<svg width="25" height="25" viewBox="0 0 25 25" fill="none" xmlns="http://www.w3.org/2000/svg">
<path d="M12.097 1.98718C11.38 1.98718 10.6787 2.05748 9.99981 2.19178L10.2909 3.66326C10.8744 3.54783 11.4783 3.48718 12.097 3.48718C12.1973 3.48718 12.2972 3.48878 12.3967 3.49194C14.67 3.56431 16.7362 4.45691 18.3092 5.88351C18.6002 6.14748 18.8744 6.42973 19.1298 6.72844C20.4656 8.29036 21.2901 10.3026 21.3442 12.5059C21.346 12.5827 21.347 12.6598 21.347 12.7372C21.347 12.8794 21.3438 13.0208 21.3374 13.1614C21.237 15.3856 20.3512 17.4051 18.9507 18.9494C18.6865 19.2406 18.404 19.515 18.105 19.7707C16.5432 21.106 14.5312 21.9303 12.3283 21.9844C12.2514 21.9862 12.1743 21.9872 12.097 21.9872C11.4783 21.9872 10.8744 21.9265 10.2909 21.8111L9.99981 23.2826C10.6787 23.4169 11.38 23.4872 12.097 23.4872C12.265 23.4872 12.4322 23.4833 12.5985 23.4757C15.1801 23.3571 17.5241 22.328 19.3168 20.702C19.6613 20.3895 19.9855 20.055 20.287 19.7006C21.8297 17.8881 22.7812 15.5569 22.8437 13.0053C22.8459 12.9162 22.847 12.8268 22.847 12.7372C22.847 12.5691 22.8431 12.4019 22.8355 12.2357C22.7169 9.65407 21.6878 7.31004 20.0618 5.51734C19.7559 5.18005 19.4288 4.86228 19.0827 4.56612C17.2038 2.95827 14.7638 1.98718 12.097 1.98718Z" fill="#10181B"/>
<path d="M6.12359 3.7983C4.95161 4.58292 3.94272 5.59181 3.1581 6.76379L4.40456 7.59827C5.0801 6.58922 5.94902 5.7203 6.95807 5.04475L6.12359 3.7983Z" fill="#10181B"/>
<path d="M1.55158 10.64C1.41728 11.3189 1.34698 12.0202 1.34698 12.7372C1.34698 13.4542 1.41728 14.1555 1.55158 14.8344L3.02307 14.5433C2.90763 13.9597 2.84698 13.3559 2.84698 12.7372C2.84698 12.1185 2.90763 11.5146 3.02307 10.9311L1.55158 10.64Z" fill="#10181B"/>
<path d="M3.1581 18.7106C3.94273 19.8826 4.95161 20.8914 6.12359 21.6761L6.95807 20.4296C5.94902 19.7541 5.0801 18.8851 4.40456 17.8761L3.1581 18.7106Z" fill="#10181B"/>
<path d="M7.51691 11.4362L11.5969 7.35614C11.8898 7.06324 12.3647 7.06324 12.6576 7.35614L16.7447 11.4432L15.684 12.5039L12.8063 9.62619L12.8063 18.72H11.3063L11.3063 9.76807L8.57757 12.4968L7.51691 11.4362Z" fill="#10181B"/>
</svg>
