<svg width="17" height="17" viewBox="0 0 17 17" fill="none" xmlns="http://www.w3.org/2000/svg">
<g clip-path="url(#clip0_25000_19389)">
<path d="M6.68629 1.64241C7.14315 1.55203 7.61492 1.50476 8.09698 1.50476C9.95068 1.50476 11.6415 2.20214 12.9214 3.34883C13.1085 3.51647 13.2868 3.69371 13.4556 3.87979C14.5719 5.11048 15.2701 6.72737 15.3259 8.50622C15.3283 8.58297 15.3295 8.66001 15.3295 8.7373C15.3295 8.79756 15.3288 8.85766 15.3273 8.91759C15.2836 10.7047 14.5917 12.331 13.4777 13.5704C13.3124 13.7543 13.1377 13.9298 12.9545 14.0959C11.7238 15.2122 10.1069 15.9104 8.32807 15.9662C8.25132 15.9686 8.17428 15.9698 8.09698 15.9698C7.61492 15.9698 7.14315 15.9226 6.68629 15.8322L6.97739 14.3607C7.33889 14.4322 7.71317 14.4698 8.09698 14.4698C8.14496 14.4698 8.19279 14.4693 8.24046 14.4681C9.65259 14.4334 10.9381 13.8881 11.9192 13.0097C12.0682 12.8763 12.2102 12.7353 12.3445 12.5872C13.2293 11.6116 13.7826 10.3299 13.8267 8.91985C13.8286 8.85925 13.8295 8.7984 13.8295 8.7373C13.8295 8.68933 13.8289 8.6415 13.8278 8.59383C13.7931 7.18169 13.2477 5.89622 12.3694 4.91509C12.236 4.76611 12.0949 4.62414 11.9468 4.4898C10.9581 3.59311 9.65496 3.03686 8.22243 3.0061C8.18073 3.00521 8.13892 3.00476 8.09698 3.00476C7.71317 3.00476 7.33889 3.04237 6.97739 3.11389L6.68629 1.64241Z" fill="#10181B"/>
<path d="M2.0831 4.71826C2.61092 3.92987 3.28955 3.25124 4.07794 2.72342L4.91242 3.96987C4.28696 4.38861 3.74829 4.92728 3.32955 5.55274L2.0831 4.71826Z" fill="#10181B"/>
<path d="M0.864441 8.7373C0.864441 8.25524 0.911709 7.78347 1.00209 7.32661L2.47357 7.61771C2.40205 7.97921 2.36444 8.35349 2.36444 8.7373C2.36444 9.12111 2.40205 9.4954 2.47357 9.8569L1.00209 10.148C0.911709 9.69114 0.864441 9.21937 0.864441 8.7373Z" fill="#10181B"/>
<path d="M4.07794 14.7512C3.28955 14.2234 2.61092 13.5447 2.0831 12.7563L3.32955 11.9219C3.74829 12.5473 4.28696 13.086 4.91242 13.5047L4.07794 14.7512Z" fill="#10181B"/>
<path d="M7.35237 8.6525L4.34693 8.65252L7.21847 5.78098C7.70663 5.29282 8.49808 5.29282 8.98624 5.78098L11.8577 8.65247L8.85237 8.65249L8.85237 12.6488H7.35237L7.35237 8.6525Z" fill="#10181B"/>
</g>
<defs>
<clipPath id="clip0_25000_19389">
<rect width="16" height="16" fill="white" transform="translate(0.102417 0.928101)"/>
</clipPath>
</defs>
</svg>
