<svg width="17" height="17" viewBox="0 0 17 17" fill="none" xmlns="http://www.w3.org/2000/svg">
<path d="M8.81763 1.31934C4.95188 1.31934 1.81763 4.45359 1.81763 8.31934C1.81763 12.1851 4.95188 15.3193 8.81763 15.3193C12.6834 15.3193 15.8176 12.1851 15.8176 8.31934C15.8176 4.45359 12.6834 1.31934 8.81763 1.31934ZM5.87879 5.79934C6.31863 5.79934 6.65871 6.11959 6.69838 6.49934C6.73863 6.83942 6.59863 7.13925 6.21888 7.3195C6.01879 7.41925 5.93888 7.41984 5.89863 7.35975C5.87879 7.3195 5.89863 7.27984 5.93888 7.23959C6.29879 6.93975 6.29879 6.69942 6.25854 6.35992C6.23871 6.13942 6.07888 5.99942 5.91846 5.99942C5.21846 5.99942 4.21863 7.55925 4.35863 8.69967C4.41871 9.1395 4.67888 9.65984 5.23888 9.65984C5.41854 9.65984 5.61804 9.59975 5.79888 9.51984C6.09054 9.36584 6.26496 9.24567 6.43879 9.05317C6.39621 8.53692 6.84946 7.85967 7.51854 7.85967C7.81896 7.85967 8.05871 7.97925 8.07854 8.19975C8.11821 8.49959 7.85863 8.53925 7.77871 8.53925C7.69879 8.53925 7.55821 8.51942 7.55821 8.44009C7.53838 8.35959 7.73846 8.39925 7.71863 8.21959C7.69821 8.09942 7.57863 8.05975 7.45846 8.05975C7.03846 8.05975 6.79871 8.63959 6.85821 8.9995C6.87863 9.15992 6.95854 9.31975 7.11896 9.31975C7.23854 9.31975 7.41879 9.13892 7.47888 8.87934C7.51854 8.69967 7.67896 8.5795 7.81896 8.5795C7.87846 8.5795 7.91813 8.59934 7.93854 8.67925V8.75975C7.91871 8.83967 7.85863 9.07942 7.87904 9.1395C7.87904 9.17975 7.89888 9.23925 7.97821 9.23925C8.03188 9.23925 8.23254 9.13425 8.43146 8.9715C8.49971 8.62734 8.57904 8.21434 8.57904 8.17992C8.59888 8.03992 8.65896 7.89992 8.93896 7.89992C8.99904 7.89992 9.03871 7.91975 9.05854 7.99967V8.08017L8.97921 8.44009C9.23879 8.1 9.61913 7.86025 9.85888 7.86025C9.95921 7.86025 10.0391 7.91975 10.0391 8.02009C10.0391 8.08017 10.0391 8.17992 9.99888 8.28025C9.91896 8.50017 9.81863 8.84025 9.75854 9.14009C9.75854 9.22 9.77896 9.29992 9.87929 9.29992C9.97904 9.29992 10.2789 9.17975 10.5186 8.86009L10.5227 8.85775C10.5215 8.81809 10.5186 8.77959 10.5186 8.73992C10.5186 8.50017 10.539 8.30009 10.5793 8.16009C10.619 8.00025 10.819 7.86025 10.9392 7.86025C10.9993 7.86025 11.0588 7.9005 11.0588 7.96C11.0588 7.98042 11.0588 8.02009 11.039 8.03992C10.959 8.30009 10.899 8.53984 10.899 8.78017C10.899 8.92017 10.9188 9.11967 10.9585 9.23984C10.9585 9.25967 10.9789 9.28009 10.9993 9.28009C11.039 9.28009 11.319 9.0205 11.5185 8.68042C11.3388 8.56025 11.2385 8.36017 11.2385 8.12042C11.2385 7.70042 11.4986 7.4805 11.739 7.4805C11.939 7.4805 12.0989 7.6205 12.0989 7.9005C12.0989 8.08017 12.0388 8.27967 11.939 8.4605H11.9985C12.062 8.46257 12.1252 8.45116 12.1839 8.42703C12.2426 8.40289 12.2955 8.36659 12.3392 8.3205C12.3576 8.2902 12.3849 8.26635 12.4174 8.25225C12.6128 8.00434 12.9015 7.82059 13.2399 7.82059C13.5199 7.82059 13.7789 7.94017 13.7993 8.16009C13.839 8.4605 13.5788 8.52059 13.4989 8.52059L13.4977 8.51942C13.4172 8.51942 13.2778 8.499 13.2778 8.41909C13.2778 8.33917 13.458 8.37942 13.4376 8.19975C13.4178 8.07959 13.2976 8.03934 13.1775 8.03934C12.7773 8.03934 12.5183 8.55909 12.5778 8.97909C12.5976 9.1395 12.6775 9.31917 12.8374 9.31917C12.9575 9.31917 13.1378 9.1395 13.2177 8.87934C13.2574 8.7195 13.4178 8.5795 13.5578 8.5795C13.6179 8.5795 13.657 8.59934 13.6774 8.67925C13.6774 8.7195 13.6774 8.79942 13.5975 9.05959C13.4983 9.23925 13.4977 9.33959 13.5175 9.4195C13.5374 9.57934 13.6173 9.6995 13.6978 9.75959C13.7176 9.77942 13.7375 9.81909 13.7375 9.81909C13.7375 9.85934 13.7176 9.89959 13.6575 9.89959C13.6377 9.89959 13.6179 9.89959 13.5975 9.87917C13.2976 9.75959 13.1775 9.5595 13.1372 9.35942C13.0176 9.49942 12.8776 9.57934 12.7172 9.57934C12.4576 9.57934 12.198 9.33959 12.1572 9.03917C12.1458 8.91131 12.1606 8.78246 12.201 8.66059C12.0825 8.73642 11.9548 8.779 11.8375 8.779H11.7384C11.4776 9.15934 11.1976 9.4195 10.9975 9.53909C10.9296 9.57525 10.8545 9.59597 10.7776 9.59975C10.738 9.59975 10.6779 9.57934 10.658 9.53909C10.6026 9.45042 10.567 9.31042 10.5455 9.15C10.2649 9.45742 9.87754 9.61959 9.69788 9.61959C9.49779 9.61959 9.37821 9.49942 9.35838 9.29875V9.07942C9.41788 8.63959 9.57829 8.37942 9.57829 8.2995C9.57775 8.28895 9.57335 8.27896 9.56593 8.27144C9.55851 8.26391 9.54859 8.25937 9.53804 8.25867C9.39804 8.25867 8.93838 8.73934 8.85788 9.05959L8.79779 9.31917C8.75813 9.49942 8.57788 9.61959 8.45829 9.61959C8.39821 9.61959 8.35796 9.59917 8.33813 9.51925V9.43934L8.36496 9.30342C8.11121 9.48425 7.85746 9.59975 7.73788 9.59975C7.55821 9.59975 7.45788 9.49942 7.43804 9.35942C7.31788 9.51925 7.17846 9.59975 6.99821 9.59975C6.79288 9.59975 6.59221 9.45975 6.49538 9.25384C6.35304 9.41425 6.19029 9.57642 5.99838 9.6995C5.71838 9.87975 5.39871 10.0198 5.01838 10.0198C4.67888 10.0198 4.37846 9.8395 4.21863 9.67967C3.97829 9.45975 3.83888 9.11967 3.81846 8.79942C3.69888 7.81942 4.29854 6.55942 5.21846 5.99942C5.43896 5.87984 5.65888 5.79934 5.87879 5.79934ZM11.578 7.71909C11.5173 7.71909 11.4776 7.81942 11.4776 7.91917C11.4776 8.079 11.5575 8.25925 11.6579 8.35959C11.697 8.25045 11.7171 8.13543 11.7174 8.0195C11.7174 7.81942 11.638 7.71909 11.578 7.71909Z" fill="black"/>
</svg>
