<svg width="24" height="24" viewBox="0 0 24 24" fill="none" xmlns="http://www.w3.org/2000/svg">
<path d="M6.19417 14.2073H2.61917C2.49676 14.2076 2.37703 14.1715 2.27522 14.1035C2.17342 14.0356 2.09415 13.9388 2.0475 13.8257C2.0005 13.7128 1.98808 13.5886 2.01182 13.4687C2.03556 13.3488 2.09439 13.2387 2.18083 13.1523L4.65833 10.6748H2.88333C2.64906 10.6748 2.42438 10.5818 2.25872 10.4161C2.09307 10.2504 2 10.0258 2 9.79149H5.2975C5.54833 9.79149 5.7725 9.94149 5.86917 10.1732C5.91606 10.2861 5.92834 10.4103 5.90446 10.5302C5.88057 10.6501 5.82158 10.7602 5.735 10.8465L3.25833 13.3248H5.31167C5.79917 13.3248 6.195 13.7207 6.195 14.2082L6.19417 14.2073ZM22 11.4482C22 10.4982 21.2275 9.72649 20.2783 9.72649C19.77 9.72649 19.3133 9.94732 18.9975 10.2982C18.8363 10.1182 18.639 9.97429 18.4185 9.87579C18.1979 9.77728 17.9591 9.72641 17.7175 9.72649C16.7675 9.72649 15.9958 10.4982 15.9958 11.4482V14.2073C16.2301 14.2073 16.4548 14.1143 16.6204 13.9486C16.7861 13.7829 16.8792 13.5583 16.8792 13.324V11.4482C16.8792 11.2257 16.9675 11.0124 17.1248 10.8551C17.2821 10.6978 17.4955 10.6094 17.7179 10.6094C17.9404 10.6094 18.1537 10.6978 18.311 10.8551C18.4683 11.0124 18.5567 11.2257 18.5567 11.4482V13.324C18.5567 13.8123 18.9517 14.2073 19.44 14.2073V11.4482C19.44 11.2258 19.5283 11.0126 19.6855 10.8554C19.8428 10.6981 20.056 10.6098 20.2783 10.6098C20.5007 10.6098 20.7139 10.6981 20.8711 10.8554C21.0283 11.0126 21.1167 11.2258 21.1167 11.4482V13.324C21.1167 13.8123 21.5125 14.2073 22 14.2073V11.4482ZM15.5542 11.9998C15.5542 12.2984 15.4954 12.5941 15.3811 12.87C15.2668 13.1458 15.0993 13.3965 14.8882 13.6076C14.6771 13.8187 14.4264 13.9862 14.1505 14.1005C13.8747 14.2148 13.579 14.2736 13.2804 14.2736C12.9818 14.2736 12.6862 14.2148 12.4103 14.1005C12.1344 13.9862 11.8838 13.8187 11.6726 13.6076C11.4615 13.3965 11.294 13.1458 11.1797 12.87C11.0655 12.5941 11.0067 12.2984 11.0067 11.9998C11.0067 11.3968 11.2462 10.8185 11.6726 10.392C12.099 9.96563 12.6774 9.72607 13.2804 9.72607C13.8835 9.72607 14.4618 9.96563 14.8882 10.392C15.3146 10.8185 15.5542 11.3968 15.5542 11.9998ZM14.6708 11.9998C14.6708 11.631 14.5243 11.2772 14.2635 11.0164C14.0026 10.7555 13.6489 10.609 13.28 10.609C12.9111 10.609 12.5574 10.7555 12.2965 11.0164C12.0357 11.2772 11.8892 11.631 11.8892 11.9998C11.8892 12.3687 12.0357 12.7225 12.2965 12.9833C12.5574 13.2441 12.9111 13.3907 13.28 13.3907C13.6489 13.3907 14.0026 13.2441 14.2635 12.9833C14.5243 12.7225 14.6708 12.3687 14.6708 11.9998ZM10.6542 11.9998C10.6542 12.2985 10.5953 12.5942 10.4811 12.8701C10.3668 13.146 10.1993 13.3967 9.98808 13.6079C9.7769 13.8191 9.5262 13.9866 9.25029 14.1009C8.97437 14.2152 8.67865 14.274 8.38 14.274C8.08135 14.274 7.78563 14.2152 7.50971 14.1009C7.2338 13.9866 6.9831 13.8191 6.77192 13.6079C6.56075 13.3967 6.39323 13.146 6.27894 12.8701C6.16466 12.5942 6.10583 12.2985 6.10583 11.9998C6.10583 11.3968 6.34539 10.8185 6.7718 10.392C7.19821 9.96563 7.77655 9.72607 8.37958 9.72607C8.98262 9.72607 9.56096 9.96563 9.98737 10.392C10.4138 10.8185 10.6533 11.3968 10.6533 11.9998H10.6542ZM9.77083 11.9998C9.77083 11.631 9.6243 11.2772 9.36347 11.0164C9.10264 10.7555 8.74887 10.609 8.38 10.609C8.01113 10.609 7.65736 10.7555 7.39653 11.0164C7.1357 11.2772 6.98917 11.631 6.98917 11.9998C6.98917 12.3687 7.1357 12.7225 7.39653 12.9833C7.65736 13.2441 8.01113 13.3907 8.38 13.3907C8.74887 13.3907 9.10264 13.2441 9.36347 12.9833C9.6243 12.7225 9.77083 12.3687 9.77083 11.9998Z" fill="black"/>
</svg>
