<svg width="25" height="25" viewBox="0 0 25 25" fill="none" xmlns="http://www.w3.org/2000/svg">
<path d="M2.79317 15.8087C2.79317 16.1987 3.10983 16.517 3.49983 16.517H8.44733V3.442L2.79317 9.39617V15.8087ZM15.6398 22.9603C16.029 22.9603 16.3448 22.6437 16.3448 22.2528V17.3053H3.27067L9.22567 22.9595L15.6398 22.9603ZM22.7932 10.1187C22.7934 10.026 22.7753 9.93411 22.7399 9.84842C22.7045 9.76273 22.6525 9.68489 22.5869 9.61937C22.5213 9.55385 22.4434 9.50194 22.3576 9.46664C22.2719 9.43134 22.18 9.41334 22.0873 9.41367H17.139V22.4878L22.7907 16.5312L22.7932 10.1187ZM9.94733 2.96533C9.76013 2.96533 9.5806 3.0397 9.44823 3.17207C9.31586 3.30444 9.2415 3.48397 9.2415 3.67117V8.62117H22.3148L16.3615 2.96533H9.94733Z" fill="black"/>
</svg>
