<svg width="17" height="17" viewBox="0 0 17 17" fill="none" xmlns="http://www.w3.org/2000/svg">
<g clip-path="url(#clip0_24965_967)">
<path d="M12.5869 5.83092V4.09101C12.8172 3.98335 13.0122 3.81258 13.1493 3.59853C13.2864 3.38449 13.36 3.13594 13.3615 2.88176V2.84079C13.3605 2.48546 13.219 2.14495 12.9678 1.89363C12.7166 1.64231 12.3761 1.50062 12.0208 1.49949H11.9799C11.6246 1.50062 11.2843 1.64223 11.0331 1.89341C10.7819 2.1446 10.6403 2.48496 10.6392 2.84018V2.88114C10.6403 3.13386 10.7127 3.38112 10.8481 3.5945C10.9835 3.80788 11.1764 3.97871 11.4046 4.08734L11.4125 4.09101V5.83459C10.7473 5.93623 10.1209 6.21259 9.59741 6.63546L9.60475 6.62935L4.81908 2.90315C4.9102 2.56181 4.88009 2.19943 4.7339 1.8778C4.58772 1.55617 4.33449 1.2952 4.01741 1.13939C3.70033 0.983577 3.33902 0.942571 2.99509 1.02336C2.65116 1.10415 2.34589 1.30174 2.13135 1.58243C1.9168 1.86312 1.80625 2.20953 1.81855 2.56261C1.83085 2.91569 1.96524 3.25358 2.19881 3.51865C2.43237 3.78373 2.75064 3.95959 3.09937 4.01625C3.44809 4.07291 3.80567 4.00685 4.11114 3.82935L4.1038 3.83302L8.80938 7.49563C8.39339 8.1193 8.17249 8.85269 8.17479 9.60235C8.17479 10.4234 8.43462 11.1845 8.87601 11.8075L8.86807 11.7953L7.43628 13.2277C7.32166 13.1907 7.20213 13.1711 7.0817 13.1696H7.08047C6.83465 13.1696 6.59436 13.2425 6.38997 13.3791C6.18558 13.5156 6.02627 13.7097 5.9322 13.9368C5.83813 14.164 5.81352 14.4139 5.86148 14.6549C5.90943 14.896 6.02781 15.1175 6.20163 15.2913C6.37544 15.4651 6.5969 15.5835 6.838 15.6315C7.07909 15.6794 7.329 15.6548 7.5561 15.5607C7.78321 15.4667 7.97732 15.3074 8.11389 15.103C8.25046 14.8986 8.32335 14.6583 8.32335 14.4125C8.3217 14.2888 8.30108 14.1661 8.26222 14.0487L8.26527 14.0573L9.68178 12.6408C10.1435 12.9931 10.6794 13.2354 11.2489 13.3494C11.8183 13.4634 12.4063 13.446 12.968 13.2986C13.5297 13.1512 14.0504 12.8776 14.4905 12.4986C14.9306 12.1197 15.2785 11.6454 15.5077 11.1118C15.7368 10.5781 15.8413 9.99928 15.8131 9.41921C15.7849 8.83915 15.6248 8.27315 15.345 7.76427C15.0651 7.25539 14.6729 6.81703 14.1982 6.48254C13.7234 6.14806 13.1786 5.92624 12.6053 5.83398L12.5833 5.83092H12.5869ZM11.9976 11.5642C11.6102 11.5631 11.2318 11.4472 10.9102 11.2312C10.5886 11.0152 10.3383 10.7088 10.1908 10.3506C10.0432 9.99238 10.0052 9.59849 10.0814 9.21867C10.1576 8.83885 10.3446 8.49013 10.6189 8.21654C10.8932 7.94296 11.2423 7.75678 11.6224 7.68153C12.0024 7.60628 12.3961 7.64533 12.754 7.79374C13.1118 7.94216 13.4176 8.19328 13.6328 8.5154C13.848 8.83752 13.963 9.21618 13.9631 9.60357V9.6048C13.9632 9.86229 13.9125 10.1173 13.814 10.3552C13.7155 10.5931 13.5711 10.8093 13.389 10.9913C13.2069 11.1734 12.9908 11.3178 12.7529 11.4163C12.5149 11.5148 12.26 11.5655 12.0025 11.5654L11.9976 11.5642Z" fill="black"/>
</g>
<defs>
<clipPath id="clip0_24965_967">
<rect width="16" height="16" fill="white" transform="translate(0.817627 0.319336)"/>
</clipPath>
</defs>
</svg>
