<svg width="16" height="16" viewBox="0 0 16 16" fill="none" xmlns="http://www.w3.org/2000/svg">
<path d="M3.93592 9.54508H1.43342C1.34773 9.54529 1.26392 9.52 1.19266 9.47242C1.12139 9.42484 1.0659 9.35713 1.03325 9.27791C1.00035 9.19894 0.991659 9.11198 1.00828 9.02806C1.02489 8.94414 1.06607 8.86705 1.12658 8.80658L2.86083 7.07233H1.61833C1.45434 7.07233 1.29707 7.00718 1.18111 6.89122C1.06515 6.77526 1 6.61799 1 6.454H3.30825C3.48383 6.454 3.64075 6.55899 3.70842 6.72116C3.74124 6.80019 3.74984 6.88719 3.73312 6.97111C3.7164 7.05503 3.67511 7.13209 3.6145 7.1925L1.88083 8.92733H3.31817C3.65942 8.92733 3.9365 9.20441 3.9365 9.54566L3.93592 9.54508ZM15 7.61366C15 6.94866 14.4592 6.4085 13.7948 6.4085C13.439 6.4085 13.1193 6.56308 12.8982 6.80866C12.7854 6.6827 12.6473 6.58195 12.4929 6.513C12.3385 6.44405 12.1713 6.40844 12.0022 6.4085C11.3372 6.4085 10.7971 6.94866 10.7971 7.61366V9.54508C10.9611 9.54508 11.1184 9.47993 11.2343 9.36397C11.3503 9.24801 11.4154 9.09074 11.4154 8.92674V7.61366C11.4154 7.45795 11.4773 7.30861 11.5874 7.1985C11.6975 7.08839 11.8468 7.02654 12.0025 7.02654C12.1583 7.02654 12.3076 7.08839 12.4177 7.1985C12.5278 7.30861 12.5897 7.45795 12.5897 7.61366V8.92674C12.5897 9.26858 12.8662 9.54508 13.208 9.54508V7.61366C13.208 7.45802 13.2698 7.30876 13.3799 7.19871C13.4899 7.08866 13.6392 7.02683 13.7948 7.02683C13.9505 7.02683 14.0997 7.08866 14.2098 7.19871C14.3198 7.30876 14.3817 7.45802 14.3817 7.61366V8.92674C14.3817 9.26858 14.6587 9.54508 15 9.54508V7.61366ZM10.4879 7.99983C10.4879 8.20884 10.4467 8.41581 10.3668 8.60892C10.2868 8.80202 10.1695 8.97748 10.0217 9.12528C9.87394 9.27307 9.69848 9.39031 9.50538 9.4703C9.31227 9.55028 9.10531 9.59145 8.89629 9.59145C8.68728 9.59145 8.48031 9.55028 8.2872 9.4703C8.0941 9.39031 7.91864 9.27307 7.77084 9.12528C7.62305 8.97748 7.50581 8.80202 7.42582 8.60892C7.34583 8.41581 7.30467 8.20884 7.30467 7.99983C7.30467 7.5777 7.47236 7.17287 7.77084 6.87438C8.06933 6.57589 8.47417 6.4082 8.89629 6.4082C9.31842 6.4082 9.72325 6.57589 10.0217 6.87438C10.3202 7.17287 10.4879 7.5777 10.4879 7.99983ZM9.86958 7.99983C9.86958 7.74162 9.76701 7.49398 9.58443 7.3114C9.40184 7.12882 9.15421 7.02625 8.896 7.02625C8.63779 7.02625 8.39015 7.12882 8.20757 7.3114C8.02499 7.49398 7.92242 7.74162 7.92242 7.99983C7.92242 8.25804 8.02499 8.50567 8.20757 8.68826C8.39015 8.87084 8.63779 8.97341 8.896 8.97341C9.15421 8.97341 9.40184 8.87084 9.58443 8.68826C9.76701 8.50567 9.86958 8.25804 9.86958 7.99983ZM7.05792 7.99983C7.05792 8.20888 7.01674 8.41589 6.93674 8.60903C6.85674 8.80217 6.73948 8.97766 6.59165 9.12548C6.44383 9.27331 6.26834 9.39057 6.0752 9.47057C5.88206 9.55057 5.67505 9.59174 5.466 9.59174C5.25695 9.59174 5.04994 9.55057 4.8568 9.47057C4.66366 9.39057 4.48817 9.27331 4.34034 9.12548C4.19252 8.97766 4.07526 8.80217 3.99526 8.60903C3.91526 8.41589 3.87408 8.20888 3.87408 7.99983C3.87408 7.5777 4.04177 7.17287 4.34026 6.87438C4.63875 6.57589 5.04358 6.4082 5.46571 6.4082C5.88783 6.4082 6.29267 6.57589 6.59116 6.87438C6.88964 7.17287 7.05733 7.5777 7.05733 7.99983H7.05792ZM6.43958 7.99983C6.43958 7.74162 6.33701 7.49398 6.15443 7.3114C5.97185 7.12882 5.72421 7.02625 5.466 7.02625C5.20779 7.02625 4.96015 7.12882 4.77757 7.3114C4.59499 7.49398 4.49242 7.74162 4.49242 7.99983C4.49242 8.25804 4.59499 8.50567 4.77757 8.68826C4.96015 8.87084 5.20779 8.97341 5.466 8.97341C5.72421 8.97341 5.97185 8.87084 6.15443 8.68826C6.33701 8.50567 6.43958 8.25804 6.43958 7.99983Z" fill="black"/>
</svg>
