<svg width="17" height="17" viewBox="0 0 17 17" fill="none" xmlns="http://www.w3.org/2000/svg">
<path d="M4.41873 3.77385C4.8539 4.12735 5.01723 4.10052 5.83506 4.04569L13.5438 3.5831C13.7071 3.5831 13.5712 3.41977 13.517 3.39294L12.236 2.46719C11.991 2.27702 11.6637 2.05886 11.0372 2.11311L3.57349 2.65794C3.30165 2.68477 3.24682 2.82127 3.35532 2.92977L4.41873 3.77385ZM4.88132 5.57052V13.6812C4.88132 14.1169 5.0989 14.2802 5.58948 14.2528L14.0612 13.7628C14.5518 13.736 14.6066 13.4362 14.6066 13.0821V5.02568C14.6066 4.67218 14.4707 4.48143 14.1703 4.50827L5.31707 5.02568C4.9904 5.0531 4.88132 5.21702 4.88132 5.57052ZM13.2445 6.0051C13.2988 6.2501 13.2445 6.4951 12.9995 6.5231L12.5912 6.60476V12.5921C12.2365 12.7828 11.9099 12.8919 11.6375 12.8919C11.2011 12.8919 11.0921 12.7554 10.7654 12.3477L8.09548 8.15584V12.2112L8.94014 12.4025C8.94014 12.4025 8.94014 12.8925 8.25881 12.8925L6.37931 13.001C6.32506 12.8925 6.37931 12.6201 6.57006 12.5658L7.06006 12.4299V7.06735L6.38048 7.01251C6.32565 6.76751 6.46215 6.41401 6.84306 6.3866L8.85906 6.25068L11.6381 10.4968V6.7401L10.9293 6.65901C10.8751 6.35918 11.0926 6.1416 11.3651 6.11476L13.2445 6.0051ZM2.94699 1.92294L10.7111 1.35127C11.6643 1.26961 11.9099 1.32386 12.509 1.75961L14.9875 3.50144C15.3959 3.80069 15.5324 3.88235 15.5324 4.20902V13.7628C15.5324 14.3613 15.3148 14.716 14.5524 14.7697L5.53523 15.3145C4.96357 15.3419 4.69057 15.2602 4.39073 14.8787L2.56549 12.5104C2.23882 12.0747 2.10291 11.7486 2.10291 11.3671V2.87494C2.10291 2.38552 2.32107 1.97661 2.94699 1.92294Z" fill="black"/>
</svg>
