<svg width="17" height="17" viewBox="0 0 17 17" fill="none" xmlns="http://www.w3.org/2000/svg">
<g clip-path="url(#clip0_24965_1218)">
<g clip-path="url(#clip1_24965_1218)">
<path d="M14.7511 9.93831C13.8872 9.93831 13.1825 10.6429 13.1825 11.5153C13.1825 12.3835 13.8872 13.0923 14.7511 13.0923C15.6151 13.0923 16.3197 12.3835 16.3197 11.5153C16.3197 10.6429 15.6151 9.93831 14.7511 9.93831ZM14.7511 12.3415C14.294 12.3415 13.9249 11.9683 13.9249 11.5111C13.9249 11.0539 14.294 10.6807 14.7511 10.6807C15.2041 10.6807 15.5774 11.0539 15.5774 11.5111C15.5774 11.9683 15.2041 12.3415 14.7511 12.3415ZM10.1292 11.1924L9.85659 11.0539C9.73916 10.9952 9.66366 10.9491 9.6343 10.9155C9.60495 10.8862 9.58817 10.8442 9.58817 10.8065C9.58817 10.752 9.61333 10.71 9.65947 10.6723C9.7056 10.6345 9.77271 10.6178 9.85659 10.6178C10.0118 10.6178 10.1795 10.71 10.3683 10.8988L10.8296 10.4332C10.7164 10.278 10.5654 10.1522 10.3934 10.0641C10.2257 9.98025 10.0369 9.93412 9.8482 9.93831C9.5672 9.93831 9.33233 10.0222 9.15198 10.19C8.97163 10.3577 8.87936 10.559 8.87936 10.7981C8.87936 11.163 9.11843 11.4692 9.60075 11.7124L9.8524 11.8383C10.0705 11.9473 10.1795 12.0605 10.1795 12.178C10.1795 12.2409 10.1502 12.2954 10.0915 12.3457C10.0327 12.3919 9.95306 12.417 9.8524 12.417C9.76013 12.417 9.65528 12.3835 9.53784 12.3206C9.4204 12.2577 9.31555 12.1738 9.23167 12.0731L8.77031 12.5764C9.03035 12.9161 9.37846 13.0881 9.81046 13.0881C10.1376 13.0881 10.3976 13 10.5906 12.8197C10.7835 12.6435 10.8842 12.4212 10.8842 12.1528C10.8842 11.9515 10.8296 11.7795 10.7248 11.6285C10.6157 11.4818 10.4186 11.3391 10.1292 11.1924ZM5.47373 12.7442V10.0012H4.72717V10.1858C4.47553 10.0222 4.18194 9.93831 3.88415 9.93831C3.02436 9.93831 2.31974 10.6429 2.31974 11.5111C2.31974 12.3793 3.02436 13.0881 3.88835 13.0881C4.18194 13.0881 4.47133 13.0042 4.72298 12.849C4.72298 12.8742 4.72298 12.8952 4.72298 12.9078C4.72298 13.3649 4.3539 13.7382 3.89674 13.7382C3.74155 13.7382 3.59057 13.6921 3.46055 13.6124L3.09146 14.2583C3.33472 14.4051 3.61154 14.4847 3.89674 14.4847C4.76073 14.4847 5.47373 13.7759 5.47373 12.9078C5.47373 12.8742 5.47792 12.7777 5.47373 12.7442ZM3.88835 12.3415C3.43538 12.3415 3.0621 11.9683 3.0621 11.5111C3.0621 11.0539 3.43119 10.6807 3.88835 10.6807C4.34551 10.6807 4.71459 11.0539 4.71459 11.5111C4.71459 11.9683 4.34131 12.3415 3.88835 12.3415ZM8.43898 9.99703H7.69242V11.4943C7.69242 11.7082 7.69242 12.0731 7.53724 12.2325C7.46175 12.308 7.38206 12.3751 7.2101 12.3751C7.03814 12.3751 6.95426 12.308 6.87876 12.2325C6.72358 12.0773 6.72358 11.7082 6.72358 11.4943V9.99703H5.97702V11.4901C5.97283 11.8005 5.97283 12.3709 6.34611 12.7484C6.5642 12.9707 6.82843 13.0839 7.2059 13.0839C7.58338 13.0839 7.84761 12.9707 8.0657 12.7484C8.43898 12.3709 8.43898 11.7963 8.43478 11.4901L8.43898 9.99703ZM12.6792 12.2073C12.6205 12.2535 12.4737 12.3541 12.3102 12.3332C12.1759 12.3164 12.0669 12.2157 12.0501 11.8844V10.6387H12.9309V9.99703H12.0501V9.1582H11.3036V9.32177V11.7837C11.3036 12.1738 11.4 13.0839 12.3102 13.0839C12.7673 13.0755 13.0483 12.8281 13.1658 12.7274L13.1825 12.7148L12.7338 12.1612C12.7296 12.1696 12.7002 12.1948 12.6792 12.2073Z" fill="black"/>
</g>
</g>
<defs>
<clipPath id="clip0_24965_1218">
<rect width="16" height="16" fill="white" transform="translate(0.319739 0.962891)"/>
</clipPath>
<clipPath id="clip1_24965_1218">
<rect width="14" height="5.32654" fill="white" transform="translate(2.31974 9.1582)"/>
</clipPath>
</defs>
</svg>
