<svg width="17" height="17" viewBox="0 0 17 17" fill="none" xmlns="http://www.w3.org/2000/svg">
<path d="M8.56738 8.03525H1.81763C1.81786 8.43551 1.89703 8.8318 2.05061 9.20143C2.20419 9.57105 2.42916 9.90676 2.71265 10.1893C2.99614 10.4719 3.33257 10.6958 3.7027 10.8482C4.07282 11.0005 4.46937 11.0784 4.86963 11.0773H6.11213V12.2773C6.11213 13.0839 6.43247 13.8574 7.00272 14.4279C7.57297 14.9984 8.34643 15.319 9.15304 15.3193V8.6215C9.15304 8.46602 9.09128 8.3169 8.98133 8.20696C8.87139 8.09702 8.72228 8.03525 8.56679 8.03525H8.56738ZM11.9058 4.67759H5.16363C5.16378 5.4843 5.48435 6.25791 6.05484 6.82829C6.62532 7.39866 7.399 7.71909 8.20571 7.71909H9.44763V8.91959C9.44824 9.72615 9.76897 10.4995 10.3394 11.0698C10.9097 11.64 11.6831 11.9606 12.4897 11.9611V5.2615C12.4897 5.10664 12.4282 4.95812 12.3187 4.84861C12.2092 4.73911 12.0607 4.67759 11.9058 4.67759ZM15.2419 1.31934H8.49971C8.49971 2.12615 8.82021 2.89991 9.39072 3.47041C9.96122 4.04091 10.735 4.36142 11.5418 4.36142H12.7837V5.56134C12.7843 6.36633 13.104 7.13826 13.6726 7.70802C14.2413 8.27779 15.0126 8.59892 15.8176 8.60109V1.90559C15.8183 1.75172 15.7581 1.60383 15.6503 1.49405C15.5425 1.38427 15.3957 1.32149 15.2419 1.31934Z" fill="black"/>
</svg>
