<svg width="17" height="17" viewBox="0 0 17 17" fill="none" xmlns="http://www.w3.org/2000/svg">
<path d="M13.1967 10.2824C13.3606 10.2824 13.5216 10.2958 13.6797 10.3197C13.6797 10.3226 13.6768 10.3256 13.6768 10.3279C13.6156 10.4836 13.5403 10.6394 13.4546 10.7864L12.7435 12.0149C12.0948 13.1442 10.8902 13.839 9.58706 13.839H8.1684C6.86756 13.839 5.66356 13.1442 5.0114 12.0149L4.3009 10.7864C3.98075 10.232 3.8122 9.60308 3.8122 8.96289C3.8122 8.3227 3.98075 7.69378 4.3009 7.13939L5.0114 5.91089C5.66065 4.78156 6.86465 4.08681 8.1684 4.08681H9.58706C10.8879 4.08681 12.0919 4.78156 12.7435 5.91089L13.4546 7.13939C13.5403 7.28639 13.6126 7.44214 13.6768 7.59789C13.6768 7.60022 13.6797 7.60314 13.6797 7.60606C13.524 7.62997 13.363 7.64339 13.1967 7.64339C12.1374 7.64339 11.7378 7.28931 11.277 6.88156C10.8313 6.48722 10.2789 5.99664 9.27031 5.99664H8.67006C7.94031 5.99664 7.27765 6.26206 6.8034 6.74214C6.33906 7.21172 6.08415 7.85281 6.08415 8.54989V9.37297C6.08415 10.0706 6.33906 10.7117 6.8034 11.1807C7.27765 11.6608 7.94031 11.9262 8.67006 11.9262H9.27323C10.2818 11.9262 10.8342 11.4356 11.2793 11.0413C11.7407 10.6312 12.1374 10.2795 13.1967 10.2824ZM13.1996 8.39414C13.4324 8.39414 13.6628 8.37314 13.8874 8.32997C13.8862 8.32764 13.8862 8.32414 13.8862 8.32181C13.8436 8.08031 13.7736 7.84172 13.6826 7.61131C14.1091 7.54131 14.5034 7.38031 14.8411 7.13356C14.8411 7.13122 14.8382 7.12597 14.8382 7.12306C14.6451 6.49014 14.3529 5.89747 13.9696 5.35556C13.5911 4.82181 13.1326 4.35281 12.6099 3.95847C11.5208 3.14297 10.2252 2.71131 8.86023 2.71131C8.01556 2.71131 7.19481 2.87464 6.42481 3.20189C5.68223 3.51864 5.0114 3.96897 4.4374 4.54297C3.8634 5.11697 3.41015 5.78489 3.0969 6.53039C2.77198 7.30272 2.60573 8.12056 2.60573 8.96581C2.60573 9.81047 2.76965 10.6312 3.0969 11.4006C3.41306 12.1438 3.8634 12.8141 4.4374 13.3881C5.0114 13.9621 5.67931 14.4153 6.42481 14.7291C7.19715 15.0535 8.01556 15.2197 8.86023 15.2197C10.2252 15.2197 11.5208 14.7881 12.6099 13.9731C13.1328 13.5805 13.5916 13.109 13.9696 12.5755C14.35 12.0336 14.6451 11.4386 14.8382 10.808C14.8382 10.8056 14.8411 10.7998 14.8411 10.7975C14.5034 10.5507 14.1091 10.3897 13.6826 10.3197C13.7766 10.0893 13.8436 9.85072 13.8862 9.60922C13.8891 9.60397 13.8891 9.60106 13.8891 9.59581C14.3961 9.69264 14.8761 9.89097 15.2915 10.1996C15.6911 10.4941 15.6135 10.8266 15.5516 11.0256C14.672 13.8845 12.0091 15.9629 8.86023 15.9629C4.99565 15.9629 1.86023 12.8275 1.86023 8.96289C1.86023 5.09831 4.99273 1.96289 8.86023 1.96289C12.0091 1.96289 14.672 4.04131 15.5516 6.90022C15.6135 7.09914 15.6911 7.43397 15.2915 7.72914C14.8732 8.03772 14.3961 8.23839 13.8891 8.33231C13.9638 8.74997 13.9638 9.17814 13.8891 9.59581C13.6634 9.55264 13.433 9.53164 13.1996 9.53164C10.759 9.53164 10.885 11.1784 9.27031 11.1784H8.67006C7.56231 11.1784 6.83256 10.3868 6.83256 9.37297V8.54989C6.83256 7.53606 7.56231 6.74506 8.67006 6.74506H9.27323C10.8879 6.74506 10.7619 8.39181 13.1996 8.39414Z" fill="black"/>
</svg>
