<svg width="17" height="17" viewBox="0 0 17 17" fill="none" xmlns="http://www.w3.org/2000/svg">
<path d="M2.82276 6.60372C2.82276 5.43866 2.23542 4.4758 1.13776 3.66699H3.68934C4.5848 4.36025 5.13363 5.4194 5.13363 6.60372C5.13363 7.78804 4.5848 8.84718 3.68934 9.54044C4.5174 9.88707 4.9892 10.7344 4.9892 11.9476V14.2585H2.67833V11.9476C2.67833 10.7922 2.1295 9.98336 1.13776 9.54044C2.23542 8.72201 2.82276 7.76878 2.82276 6.60372ZM7.82001 6.60372C7.82001 5.43866 7.23267 4.4758 6.13501 3.66699H8.68659C9.58205 4.36025 10.1309 5.4194 10.1309 6.60372C10.1309 7.78804 9.58205 8.84718 8.68659 9.54044C9.51465 9.88707 9.98645 10.7344 9.98645 11.9476V14.2585H7.67558V11.9476C7.67558 10.7922 7.12675 9.98336 6.13501 9.54044C7.23267 8.72201 7.82001 7.76878 7.82001 6.60372ZM12.8269 6.60372C12.8269 5.43866 12.2395 4.4758 11.1419 3.66699H13.6935C14.5889 4.36025 15.1378 5.4194 15.1378 6.60372C15.1378 7.78804 14.5889 8.84718 13.6935 9.54044C14.5215 9.88707 14.9933 10.7344 14.9933 11.9476V14.2585H12.6825V11.9476C12.6825 10.7922 12.1336 9.98336 11.1419 9.54044C12.2395 8.72201 12.8269 7.76878 12.8269 6.60372Z" fill="black"/>
</svg>
