<svg width="25" height="25" viewBox="0 0 25 25" fill="none" xmlns="http://www.w3.org/2000/svg">
<path d="M12.4601 11.9135H2.81763C2.81795 12.4853 2.93105 13.0514 3.15046 13.5795C3.36986 14.1075 3.69125 14.5871 4.09623 14.9908C4.50121 15.3944 4.98184 15.7143 5.51059 15.9319C6.03933 16.1496 6.60582 16.2609 7.17763 16.2593H8.95263V17.9735C8.95263 19.1258 9.41026 20.2309 10.2249 21.0459C11.0395 21.8608 12.1445 22.3189 13.2968 22.3193V12.751C13.2968 12.5289 13.2086 12.3159 13.0515 12.1588C12.8944 12.0017 12.6814 11.9135 12.4593 11.9135H12.4601ZM17.2293 7.11684H7.59763C7.59785 8.26928 8.05581 9.37444 8.87079 10.1893C9.68576 11.0041 10.791 11.4618 11.9435 11.4618H13.7176V13.1768C13.7185 14.3291 14.1767 15.4339 14.9915 16.2485C15.8064 17.0632 16.9112 17.5212 18.0635 17.5218V7.951C18.0635 7.72977 17.9756 7.51759 17.8191 7.36116C17.6627 7.20472 17.4505 7.11684 17.2293 7.11684ZM21.9951 2.31934H12.3635C12.3635 3.47192 12.8213 4.5773 13.6363 5.3923C14.4513 6.20731 15.5567 6.66517 16.7093 6.66517H18.4835V8.37934C18.4843 9.52933 18.941 10.6321 19.7534 11.446C20.5658 12.26 21.6676 12.7187 22.8176 12.7218V3.15684C22.8185 2.93703 22.7326 2.72575 22.5786 2.56893C22.4246 2.41211 22.2149 2.32241 21.9951 2.31934Z" fill="black"/>
</svg>
