<svg width="25" height="25" viewBox="0 0 25 25" fill="none" xmlns="http://www.w3.org/2000/svg">
<path d="M7.01929 14.9568C7.01819 15.5137 6.79667 16.0474 6.40316 16.4414C6.00964 16.8354 5.47614 17.0576 4.91929 17.0593C4.36216 17.058 3.82823 16.8361 3.43436 16.442C3.04048 16.048 2.81873 15.514 2.81763 14.9568C2.81917 14.4001 3.04114 13.8666 3.43499 13.473C3.82885 13.0795 4.36252 12.8579 4.91929 12.8568H7.01929V14.9568ZM8.07846 14.9568C8.08 14.4002 8.30186 13.8668 8.69553 13.4733C9.0892 13.0798 9.62267 12.8582 10.1793 12.8568C10.7359 12.8582 11.2694 13.0798 11.6631 13.4733C12.0567 13.8668 12.2786 14.4002 12.2801 14.9568V20.2177C12.2788 20.7745 12.0571 21.3082 11.6634 21.702C11.2697 22.0958 10.7361 22.3178 10.1793 22.3193C9.62245 22.3178 9.08886 22.0958 8.69519 21.702C8.30151 21.3082 8.07978 20.7745 8.07846 20.2177V14.9568ZM10.1793 6.521C9.62273 6.51946 9.0894 6.29775 8.69577 5.90428C8.30215 5.51081 8.08022 4.97756 8.07846 4.421C8.07978 3.86416 8.30151 3.33048 8.69519 2.93665C9.08886 2.54282 9.62245 2.32088 10.1793 2.31934C10.7361 2.32088 11.2697 2.54282 11.6634 2.93665C12.0571 3.33048 12.2788 3.86416 12.2801 4.421V6.521H10.1793ZM10.1793 7.58017C10.736 7.58171 11.2695 7.80354 11.6631 8.19719C12.0568 8.59084 12.2786 9.1243 12.2801 9.681C12.2786 10.2377 12.0568 10.7712 11.6631 11.1648C11.2695 11.5585 10.736 11.7803 10.1793 11.7818H4.91929C4.36245 11.7805 3.82877 11.5588 3.43494 11.1651C3.04111 10.7714 2.81917 10.2378 2.81763 9.681C2.81917 9.12416 3.04111 8.59057 3.43494 8.1969C3.82877 7.80322 4.36245 7.58149 4.91929 7.58017H10.1793ZM18.6143 9.681C18.6158 9.12416 18.8378 8.59057 19.2316 8.1969C19.6254 7.80322 20.1591 7.58149 20.716 7.58017C21.2728 7.58149 21.8065 7.80322 22.2003 8.1969C22.5941 8.59057 22.8161 9.12416 22.8176 9.681C22.8161 10.2378 22.5941 10.7714 22.2003 11.1651C21.8065 11.5588 21.2728 11.7805 20.716 11.7818H18.6143V9.681ZM17.5576 9.681C17.5561 10.238 17.334 10.7717 16.94 11.1654C16.546 11.5591 16.0121 11.7807 15.4551 11.7818C14.8985 11.7803 14.3651 11.5584 13.9716 11.1648C13.5781 10.7711 13.3564 10.2376 13.3551 9.681V4.421C13.3562 3.86423 13.5778 3.33056 13.9713 2.9367C14.3649 2.54285 14.8984 2.32088 15.4551 2.31934C16.0123 2.32044 16.5463 2.54219 16.9403 2.93606C17.3343 3.32994 17.5563 3.86387 17.5576 4.421V9.681ZM15.4551 18.116C16.0123 18.1171 16.5463 18.3389 16.9403 18.7327C17.3343 19.1266 17.5563 19.6605 17.5576 20.2177C17.5563 20.7748 17.3343 21.3087 16.9403 21.7026C16.5463 22.0965 16.0123 22.3182 15.4551 22.3193C14.8984 22.3178 14.3649 22.0958 13.9713 21.702C13.5778 21.3081 13.3562 20.7744 13.3551 20.2177V18.116H15.4551ZM15.4551 17.0593C14.8982 17.0578 14.3646 16.8357 13.971 16.4417C13.5775 16.0476 13.356 15.5138 13.3551 14.9568C13.3564 14.4003 13.5781 13.8669 13.9717 13.4734C14.3652 13.0798 14.8986 12.8582 15.4551 12.8568H20.716C21.2727 12.8579 21.8064 13.0795 22.2003 13.473C22.5941 13.8666 22.8161 14.4001 22.8176 14.9568C22.8165 15.514 22.5948 16.048 22.2009 16.442C21.807 16.8361 21.2731 17.058 20.716 17.0593H15.4551Z" fill="black"/>
</svg>
