<svg width="17" height="17" viewBox="0 0 17 17" fill="none" xmlns="http://www.w3.org/2000/svg">
<path d="M4.02136 1.96289C3.40097 1.96289 2.80599 2.20934 2.36732 2.64802C1.92864 3.0867 1.68219 3.68167 1.68219 4.30206L1.68219 13.6237C1.68219 14.9129 2.73219 15.9571 4.02136 15.9629H13.343C14.6322 15.9629 15.6822 14.9129 15.6822 13.6237V4.29622C15.6806 3.67685 15.4335 3.08337 14.995 2.64595C14.5565 2.20854 13.9624 1.96289 13.343 1.96289L4.01552 1.96289H4.02136ZM4.96636 4.50622H12.398C12.8064 4.50622 13.133 4.83872 13.133 5.24706V12.6787C13.133 13.0871 12.8064 13.4196 12.398 13.4196H4.96636C4.55802 13.4196 4.23136 13.0871 4.23136 12.6787V5.24706C4.23135 5.05158 4.3086 4.86403 4.44628 4.72526C4.58395 4.58649 4.77089 4.50776 4.96636 4.50622ZM7.20052 7.04372C7.08759 7.04372 6.97927 7.08859 6.89941 7.16845C6.81955 7.24831 6.77469 7.35662 6.77469 7.46956V10.4387C6.77469 10.6721 6.96136 10.8587 7.19469 10.8587H10.1697C10.2816 10.8587 10.3891 10.8147 10.4688 10.7361C10.5484 10.6575 10.594 10.5506 10.5955 10.4387V7.46956C10.5955 7.41364 10.5845 7.35826 10.5631 7.3066C10.5417 7.25493 10.5103 7.20799 10.4708 7.16845C10.4313 7.12891 10.3843 7.09754 10.3326 7.07614C10.281 7.05474 10.2256 7.04372 10.1697 7.04372H7.19469H7.20052Z" fill="black"/>
</svg>
