<svg width="25" height="25" viewBox="0 0 25 25" fill="none" xmlns="http://www.w3.org/2000/svg">
<path d="M6.53348 5.82579C7.15515 6.33079 7.38848 6.29245 8.55681 6.21412L19.5693 5.55329C19.8026 5.55329 19.6085 5.31996 19.531 5.28162L17.701 3.95913C17.351 3.68746 16.8835 3.37579 15.9885 3.45329L5.32599 4.23163C4.93765 4.26996 4.85932 4.46496 5.01432 4.61996L6.53348 5.82579ZM7.19432 8.39245V19.9791C7.19432 20.6016 7.50515 20.8349 8.20598 20.7958L20.3085 20.0958C21.0093 20.0574 21.0876 19.6291 21.0876 19.1233V7.61412C21.0876 7.10912 20.8935 6.83662 20.4643 6.87495L7.81682 7.61412C7.35015 7.65328 7.19432 7.88745 7.19432 8.39245ZM19.1418 9.01328C19.2193 9.36328 19.1418 9.71328 18.7918 9.75328L18.2085 9.86995V18.4233C17.7018 18.6958 17.2351 18.8516 16.846 18.8516C16.2226 18.8516 16.0668 18.6566 15.6001 18.0741L11.786 12.0858V17.8791L12.9926 18.1524C12.9926 18.1524 12.9926 18.8524 12.0193 18.8524L9.33431 19.0074C9.25681 18.8524 9.33431 18.4633 9.60681 18.3858L10.3068 18.1916V10.5308L9.33598 10.4524C9.25765 10.1024 9.45264 9.59745 9.99681 9.55828L12.8768 9.36411L16.8468 15.4299V10.0633L15.8343 9.94745C15.7568 9.51911 16.0676 9.20828 16.4568 9.16995L19.1418 9.01328ZM4.43099 3.18163L15.5226 2.36496C16.8843 2.2483 17.2351 2.3258 18.091 2.94829L21.6318 5.43662C22.2151 5.86412 22.4101 5.98079 22.4101 6.44745V20.0958C22.4101 20.9508 22.0993 21.4574 21.0101 21.5341L8.12848 22.3124C7.31182 22.3516 6.92182 22.2349 6.49348 21.6899L3.88599 18.3066C3.41932 17.6841 3.22516 17.2183 3.22516 16.6733V4.54162C3.22516 3.84246 3.53682 3.25829 4.43099 3.18163Z" fill="black"/>
</svg>
