<svg width="25" height="25" viewBox="0 0 25 25" fill="none" xmlns="http://www.w3.org/2000/svg">
<path d="M4.54491 9.59278C4.54491 7.92841 3.70584 6.55289 2.13776 5.39746H5.78287C7.0621 6.38783 7.84615 7.9009 7.84615 9.59278C7.84615 11.2847 7.0621 12.7977 5.78287 13.7881C6.96582 14.2833 7.63982 15.4937 7.63982 17.2269V20.5281H4.33858V17.2269C4.33858 15.5763 3.55454 14.4208 2.13776 13.7881C3.70584 12.6189 4.54491 11.2572 4.54491 9.59278ZM11.6838 9.59278C11.6838 7.92841 10.8448 6.55289 9.27668 5.39746H12.9218C14.201 6.38783 14.9851 7.9009 14.9851 9.59278C14.9851 11.2847 14.201 12.7977 12.9218 13.7881C14.1047 14.2833 14.7787 15.4937 14.7787 17.2269V20.5281H11.4775V17.2269C11.4775 15.5763 10.6935 14.4208 9.27668 13.7881C10.8448 12.6189 11.6838 11.2572 11.6838 9.59278ZM18.8365 9.59278C18.8365 7.92841 17.9975 6.55289 16.4294 5.39746H20.0745C21.3537 6.38783 22.1378 7.9009 22.1378 9.59278C22.1378 11.2847 21.3537 12.7977 20.0745 13.7881C21.2574 14.2833 21.9314 15.4937 21.9314 17.2269V20.5281H18.6302V17.2269C18.6302 15.5763 17.8461 14.4208 16.4294 13.7881C17.9975 12.6189 18.8365 11.2572 18.8365 9.59278Z" fill="black"/>
</svg>
