<svg width="25" height="25" viewBox="0 0 25 25" fill="none" xmlns="http://www.w3.org/2000/svg">
<path d="M18.2023 8.76459V6.27901C18.5313 6.12521 18.8099 5.88125 19.0057 5.57547C19.2016 5.26969 19.3067 4.91463 19.3089 4.5515V4.49299C19.3075 3.98537 19.1053 3.49892 18.7464 3.1399C18.3876 2.78087 17.9012 2.57845 17.3936 2.57683H17.3351C16.8276 2.57845 16.3414 2.78075 15.9826 3.13959C15.6237 3.49842 15.4214 3.98465 15.4198 4.49211V4.55063C15.4214 4.91165 15.5249 5.26488 15.7183 5.56971C15.9118 5.87454 16.1873 6.11858 16.5133 6.27377L16.5246 6.27901V8.76983C15.5743 8.91504 14.6795 9.30984 13.9316 9.91394L13.9421 9.9052L7.10542 4.58207C7.23558 4.09444 7.19258 3.57675 6.98374 3.11728C6.7749 2.6578 6.41315 2.28499 5.96018 2.06241C5.50721 1.83982 4.99105 1.78124 4.49972 1.89665C4.00838 2.01207 3.57229 2.29433 3.2658 2.69532C2.9593 3.0963 2.80138 3.59118 2.81895 4.09559C2.83652 4.59999 3.02851 5.08268 3.36217 5.46136C3.69583 5.84004 4.15051 6.09127 4.64868 6.17221C5.14686 6.25315 5.65768 6.15878 6.09407 5.90521L6.08359 5.91045L12.8058 11.1428C12.2116 12.0337 11.896 13.0814 11.8993 14.1524C11.8993 15.3253 12.2705 16.4126 12.901 17.3026L12.8897 17.2851L10.8443 19.3314C10.6805 19.2785 10.5098 19.2506 10.3377 19.2484H10.336C9.98481 19.2484 9.64153 19.3525 9.34954 19.5476C9.05756 19.7427 8.82998 20.02 8.69559 20.3445C8.56121 20.6689 8.52604 21.0259 8.59455 21.3703C8.66306 21.7148 8.83217 22.0311 9.08048 22.2795C9.3288 22.5278 9.64517 22.6969 9.98959 22.7654C10.334 22.8339 10.691 22.7987 11.0154 22.6643C11.3399 22.53 11.6172 22.3024 11.8123 22.0104C12.0074 21.7184 12.1115 21.3751 12.1115 21.024C12.1092 20.8473 12.0797 20.672 12.0242 20.5043L12.0286 20.5165L14.0521 18.493C14.7117 18.9962 15.4773 19.3425 16.2909 19.5053C17.1044 19.6681 17.9443 19.6433 18.7468 19.4327C19.5492 19.2221 20.2931 18.8313 20.9218 18.2899C21.5505 17.7485 22.0474 17.0709 22.3748 16.3086C22.7022 15.5463 22.8515 14.7194 22.8112 13.8907C22.7709 13.0621 22.5422 12.2535 22.1424 11.5265C21.7426 10.7996 21.1823 10.1733 20.5041 9.69549C19.8259 9.21765 19.0476 8.90077 18.2285 8.76896L18.1971 8.76459H18.2023ZM17.3604 16.955C16.807 16.9534 16.2665 16.7879 15.8071 16.4793C15.3477 16.1708 14.99 15.733 14.7793 15.2213C14.5685 14.7095 14.5141 14.1468 14.623 13.6042C14.7318 13.0616 14.999 12.5635 15.3909 12.1726C15.7827 11.7818 16.2815 11.5158 16.8244 11.4083C17.3672 11.3008 17.9298 11.3566 18.441 11.5686C18.9522 11.7806 19.3891 12.1394 19.6965 12.5996C20.0039 13.0597 20.1681 13.6007 20.1683 14.1541V14.1558C20.1684 14.5237 20.096 14.888 19.9553 15.2278C19.8146 15.5677 19.6083 15.8765 19.3482 16.1366C19.0881 16.3967 18.7793 16.603 18.4394 16.7437C18.0995 16.8845 17.7353 16.9568 17.3674 16.9567L17.3604 16.955Z" fill="black"/>
</svg>
