<svg width="25" height="25" viewBox="0 0 25 25" fill="none" xmlns="http://www.w3.org/2000/svg">
<g clip-path="url(#clip0_24965_1217)">
<path d="M20.0789 10.2726C18.8446 10.2726 17.838 11.2792 17.838 12.5255C17.838 13.7658 18.8446 14.7783 20.0789 14.7783C21.3132 14.7783 22.3197 13.7658 22.3197 12.5255C22.3197 11.2792 21.3132 10.2726 20.0789 10.2726ZM20.0789 13.7058C19.4258 13.7058 18.8985 13.1726 18.8985 12.5195C18.8985 11.8664 19.4258 11.3332 20.0789 11.3332C20.726 11.3332 21.2592 11.8664 21.2592 12.5195C21.2592 13.1726 20.726 13.7058 20.0789 13.7058ZM13.4761 12.0641L13.0867 11.8664C12.9189 11.7825 12.8111 11.7166 12.7691 11.6687C12.7272 11.6267 12.7032 11.5668 12.7032 11.5129C12.7032 11.435 12.7392 11.3751 12.8051 11.3212C12.871 11.2673 12.9668 11.2433 13.0867 11.2433C13.3084 11.2433 13.548 11.3751 13.8176 11.6447L14.4767 10.9797C14.315 10.758 14.0993 10.5782 13.8536 10.4524C13.6139 10.3326 13.3443 10.2667 13.0747 10.2726C12.6733 10.2726 12.3377 10.3925 12.0801 10.6321C11.8224 10.8718 11.6906 11.1594 11.6906 11.5009C11.6906 12.0222 12.0321 12.4596 12.7212 12.8071L13.0807 12.9868C13.3922 13.1426 13.548 13.3044 13.548 13.4722C13.548 13.562 13.5061 13.6399 13.4222 13.7118C13.3383 13.7777 13.2245 13.8137 13.0807 13.8137C12.9489 13.8137 12.7991 13.7658 12.6313 13.6759C12.4635 13.586 12.3138 13.4662 12.1939 13.3224L11.5348 14.0414C11.9063 14.5267 12.4036 14.7723 13.0208 14.7723C13.4881 14.7723 13.8596 14.6465 14.1352 14.3889C14.4108 14.1372 14.5546 13.8197 14.5546 13.4362C14.5546 13.1486 14.4767 12.903 14.3269 12.6873C14.1712 12.4776 13.8895 12.2738 13.4761 12.0641ZM6.82544 14.281V10.3625H5.75893V10.6261C5.39943 10.3925 4.98002 10.2726 4.55462 10.2726C3.32634 10.2726 2.31974 11.2792 2.31974 12.5195C2.31974 13.7598 3.32634 14.7723 4.56061 14.7723C4.98002 14.7723 5.39344 14.6525 5.75294 14.4308C5.75294 14.4668 5.75294 14.4967 5.75294 14.5147C5.75294 15.1678 5.22568 15.701 4.57259 15.701C4.3509 15.701 4.1352 15.6351 3.94946 15.5213L3.4222 16.444C3.76971 16.6537 4.16516 16.7676 4.57259 16.7676C5.80686 16.7676 6.82544 15.755 6.82544 14.5147C6.82544 14.4668 6.83143 14.329 6.82544 14.281ZM4.56061 13.7058C3.91351 13.7058 3.38026 13.1726 3.38026 12.5195C3.38026 11.8664 3.90752 11.3332 4.56061 11.3332C5.21369 11.3332 5.74095 11.8664 5.74095 12.5195C5.74095 13.1726 5.2077 13.7058 4.56061 13.7058ZM11.0615 10.3565H9.995V12.4955C9.995 12.8011 9.995 13.3224 9.77331 13.5501C9.66546 13.6579 9.55162 13.7538 9.30596 13.7538C9.06031 13.7538 8.94048 13.6579 8.83263 13.5501C8.61094 13.3284 8.61094 12.8011 8.61094 12.4955V10.3565H7.54443V12.4895C7.53844 12.9329 7.53844 13.7478 8.07169 14.287C8.38326 14.6046 8.76073 14.7664 9.29997 14.7664C9.83922 14.7664 10.2167 14.6046 10.5283 14.287C11.0615 13.7478 11.0615 12.9269 11.0555 12.4895L11.0615 10.3565ZM17.119 13.5141C17.0351 13.58 16.8254 13.7238 16.5918 13.6939C16.4 13.6699 16.2443 13.5261 16.2203 13.0528V11.2732H17.4785V10.3565H16.2203V9.1582H15.1538V9.39188V12.909C15.1538 13.4662 15.2916 14.7664 16.5918 14.7664C17.2448 14.7544 17.6463 14.4009 17.8141 14.2571L17.838 14.2391L17.1969 13.4482C17.1909 13.4602 17.149 13.4961 17.119 13.5141Z" fill="black"/>
</g>
<defs>
<clipPath id="clip0_24965_1217">
<rect width="20" height="7.60935" fill="white" transform="translate(2.31974 9.1582)"/>
</clipPath>
</defs>
</svg>
