<svg width="17" height="17" viewBox="0 0 17 17" fill="none" xmlns="http://www.w3.org/2000/svg">
<path d="M2.07444 10.311C1.905 9.65548 1.8195 8.98113 1.81999 8.30411C1.81947 7.62713 1.90497 6.95282 2.07444 6.29739C3.07451 6.42006 3.84999 7.27074 3.84999 8.30405C3.84999 9.33714 3.07492 10.1882 2.07444 10.311ZM4.39191 8.30411C4.39191 8.65434 4.67576 8.93837 5.02611 8.93837C5.37669 8.93837 5.66077 8.65429 5.66077 8.30411C5.66077 7.95394 5.37669 7.66944 5.02611 7.66944C4.67576 7.66944 4.39191 7.95388 4.39191 8.30411ZM15.5609 6.29739C14.5605 6.42006 13.7853 7.27074 13.7853 8.30405C13.7853 9.33714 14.5605 10.1882 15.5609 10.311C15.7302 9.65544 15.8156 8.98112 15.8153 8.30411C15.8153 7.61094 15.7267 6.93835 15.5609 6.29739ZM11.9746 8.30405C11.9746 8.65434 12.2584 8.93837 12.6091 8.93837C12.9592 8.93837 13.2438 8.65429 13.2438 8.30411C13.2438 7.95394 12.9592 7.66944 12.6091 7.66944C12.2584 7.66944 11.9746 7.95382 11.9746 8.30405ZM8.80436 13.2895C7.77133 13.2895 6.92077 14.0653 6.79769 15.0652C7.45335 15.2344 8.12781 15.3198 8.80494 15.3193C9.49823 15.3193 10.1701 15.231 10.8116 15.0652C10.6887 14.0653 9.8382 13.2895 8.80436 13.2895ZM8.80494 11.4785C8.45424 11.4785 8.17039 11.7629 8.17039 12.1133C8.17039 12.4637 8.45424 12.7481 8.80494 12.7481C9.15494 12.7481 9.43902 12.4638 9.43902 12.1133C9.43902 11.7629 9.15494 11.4785 8.80494 11.4785ZM8.80494 3.34916C9.8382 3.34916 10.6888 2.5738 10.8115 1.57361C10.1561 1.40442 9.48183 1.31898 8.80488 1.31934C8.11147 1.31934 7.43918 1.40795 6.79763 1.57361C6.92071 2.5738 7.77133 3.34916 8.80494 3.34916ZM8.80494 3.89114C8.45424 3.89114 8.17039 4.17499 8.17039 4.52557C8.17039 4.87569 8.45424 5.16 8.80494 5.16C9.15494 5.16 9.43902 4.87569 9.43902 4.52557C9.43902 4.17499 9.15494 3.89114 8.80494 3.89114ZM12.3236 11.8224C11.5936 12.5529 11.5396 13.7014 12.1588 14.4953C13.3295 13.8046 14.3057 12.8281 14.9959 11.6571C14.2021 11.039 13.0535 11.0929 12.3236 11.8224ZM11.9405 10.5421C11.6926 10.2945 11.2909 10.2945 11.0427 10.5421C10.7952 10.7902 10.7952 11.1917 11.0427 11.4395C11.2909 11.6876 11.6926 11.6876 11.9405 11.4395C12.1878 11.1917 12.1878 10.7902 11.9405 10.5421ZM5.29707 4.79618C6.02716 4.06625 6.08089 2.9175 5.46186 2.12375C4.29113 2.81424 3.3148 3.79055 2.62429 4.96126C3.41832 5.58053 4.56708 5.52634 5.29707 4.79618ZM5.68014 5.17954C5.43281 5.42729 5.43281 5.82932 5.68014 6.07689C5.92777 6.32457 6.32997 6.32457 6.57742 6.07689C6.82522 5.82932 6.82522 5.42729 6.57742 5.17954C6.32992 4.93204 5.92777 4.93204 5.68014 5.17954ZM14.9916 4.95455C14.3014 3.78379 13.3251 2.80747 12.1544 2.1171C11.5353 2.91096 11.5892 4.0596 12.3191 4.78982C13.0493 5.51939 14.1977 5.57359 14.9916 4.95455ZM11.9361 6.07018C12.1833 5.82238 12.1833 5.42064 11.9361 5.17284C11.6882 4.92509 11.286 4.92509 11.0385 5.17284C10.7911 5.42064 10.7911 5.82238 11.0385 6.07018C11.286 6.31769 11.6881 6.31769 11.9361 6.07018ZM2.62097 11.6494C3.31134 12.8205 4.28777 13.797 5.45871 14.4876C6.0778 13.6938 6.02366 12.5452 5.29345 11.8148C4.56358 11.0851 3.41488 11.0311 2.62097 11.6494ZM5.67676 10.5344C5.42954 10.7821 5.42954 11.184 5.67676 11.4318C5.92467 11.6795 6.32665 11.6795 6.57404 11.4318C6.82196 11.184 6.82196 10.7821 6.57404 10.5344C6.32665 10.2867 5.92473 10.2867 5.67676 10.5344Z" fill="black"/>
</svg>
