<svg width="25" height="25" viewBox="0 0 25 25" fill="none" xmlns="http://www.w3.org/2000/svg">
<path d="M12.8176 2.31934C7.29513 2.31934 2.81763 6.79684 2.81763 12.3193C2.81763 17.8418 7.29513 22.3193 12.8176 22.3193C18.3401 22.3193 22.8176 17.8418 22.8176 12.3193C22.8176 6.79684 18.3401 2.31934 12.8176 2.31934ZM8.61929 8.71934C9.24763 8.71934 9.73346 9.17684 9.79013 9.71934C9.84763 10.2052 9.64763 10.6335 9.10513 10.891C8.81929 11.0335 8.70513 11.0343 8.64763 10.9485C8.61929 10.891 8.64763 10.8343 8.70513 10.7768C9.21929 10.3485 9.21929 10.0052 9.16179 9.52017C9.13346 9.20517 8.90513 9.00517 8.67596 9.00517C7.67596 9.00517 6.24763 11.2335 6.44763 12.8627C6.53346 13.491 6.90513 14.2343 7.70513 14.2343C7.96179 14.2343 8.24679 14.1485 8.50513 14.0343C8.92179 13.8143 9.17096 13.6427 9.41929 13.3677C9.35846 12.6302 10.006 11.6627 10.9618 11.6627C11.391 11.6627 11.7335 11.8335 11.7618 12.1485C11.8185 12.5768 11.4476 12.6335 11.3335 12.6335C11.2193 12.6335 11.0185 12.6052 11.0185 12.4918C10.9901 12.3768 11.276 12.4335 11.2476 12.1768C11.2185 12.0052 11.0476 11.9485 10.876 11.9485C10.276 11.9485 9.93346 12.7768 10.0185 13.291C10.0476 13.5202 10.1618 13.7485 10.391 13.7485C10.5618 13.7485 10.8193 13.4902 10.9051 13.1193C10.9618 12.8627 11.191 12.691 11.391 12.691C11.476 12.691 11.5326 12.7193 11.5618 12.8335V12.9485C11.5335 13.0627 11.4476 13.4052 11.4768 13.491C11.4768 13.5485 11.5051 13.6335 11.6185 13.6335C11.6951 13.6335 11.9818 13.4835 12.266 13.251C12.3635 12.7593 12.4768 12.1693 12.4768 12.1202C12.5051 11.9202 12.591 11.7202 12.991 11.7202C13.0768 11.7202 13.1335 11.7485 13.1618 11.8627V11.9777L13.0485 12.4918C13.4193 12.006 13.9626 11.6635 14.3051 11.6635C14.4485 11.6635 14.5626 11.7485 14.5626 11.8918C14.5626 11.9777 14.5626 12.1202 14.5051 12.2635C14.391 12.5777 14.2476 13.0635 14.1618 13.4918C14.1618 13.606 14.191 13.7202 14.3343 13.7202C14.4768 13.7202 14.9051 13.5485 15.2476 13.0918L15.2535 13.0885C15.2518 13.0318 15.2476 12.9768 15.2476 12.9202C15.2476 12.5777 15.2768 12.2918 15.3343 12.0918C15.391 11.8635 15.6768 11.6635 15.8485 11.6635C15.9343 11.6635 16.0193 11.721 16.0193 11.806C16.0193 11.8352 16.0193 11.8918 15.991 11.9202C15.8768 12.2918 15.791 12.6343 15.791 12.9777C15.791 13.1777 15.8193 13.4627 15.876 13.6343C15.876 13.6627 15.9051 13.6918 15.9343 13.6918C15.991 13.6918 16.391 13.321 16.676 12.8352C16.4193 12.6635 16.276 12.3777 16.276 12.0352C16.276 11.4352 16.6476 11.121 16.991 11.121C17.2768 11.121 17.5051 11.321 17.5051 11.721C17.5051 11.9777 17.4193 12.2627 17.2768 12.521H17.3618C17.4524 12.524 17.5427 12.5077 17.6266 12.4732C17.7105 12.4387 17.7861 12.3868 17.8485 12.321C17.8747 12.2777 17.9137 12.2436 17.9601 12.2235C18.2393 11.8693 18.6518 11.6068 19.1351 11.6068C19.5351 11.6068 19.9051 11.7777 19.9343 12.0918C19.991 12.521 19.6193 12.6068 19.5051 12.6068L19.5035 12.6052C19.3885 12.6052 19.1893 12.576 19.1893 12.4618C19.1893 12.3477 19.4468 12.4052 19.4176 12.1485C19.3893 11.9768 19.2176 11.9193 19.046 11.9193C18.4743 11.9193 18.1043 12.6618 18.1893 13.2618C18.2176 13.491 18.3318 13.7477 18.5601 13.7477C18.7318 13.7477 18.9893 13.491 19.1035 13.1193C19.1601 12.891 19.3893 12.691 19.5893 12.691C19.6751 12.691 19.731 12.7193 19.7601 12.8335C19.7601 12.891 19.7601 13.0052 19.646 13.3768C19.5043 13.6335 19.5035 13.7768 19.5318 13.891C19.5601 14.1193 19.6743 14.291 19.7893 14.3768C19.8176 14.4052 19.846 14.4618 19.846 14.4618C19.846 14.5193 19.8176 14.5768 19.7318 14.5768C19.7035 14.5768 19.6751 14.5768 19.646 14.5477C19.2176 14.3768 19.046 14.091 18.9885 13.8052C18.8176 14.0052 18.6176 14.1193 18.3885 14.1193C18.0176 14.1193 17.6468 13.7768 17.5885 13.3477C17.5721 13.165 17.5934 12.9809 17.651 12.8068C17.4818 12.9152 17.2993 12.976 17.1318 12.976H16.9901C16.6176 13.5193 16.2176 13.891 15.9318 14.0618C15.8347 14.1135 15.7275 14.1431 15.6176 14.1485C15.561 14.1485 15.4751 14.1193 15.4468 14.0618C15.3676 13.9352 15.3168 13.7352 15.286 13.506C14.8851 13.9452 14.3318 14.1768 14.0751 14.1768C13.7893 14.1768 13.6185 14.0052 13.5901 13.7185V13.4052C13.6751 12.7768 13.9043 12.4052 13.9043 12.291C13.9035 12.2759 13.8972 12.2617 13.8866 12.2509C13.876 12.2402 13.8619 12.2337 13.8468 12.2327C13.6468 12.2327 12.9901 12.9193 12.8751 13.3768L12.7893 13.7477C12.7326 14.0052 12.4751 14.1768 12.3043 14.1768C12.2185 14.1768 12.161 14.1477 12.1326 14.0335V13.9193L12.171 13.7252C11.8085 13.9835 11.446 14.1485 11.2751 14.1485C11.0185 14.1485 10.8751 14.0052 10.8468 13.8052C10.6751 14.0335 10.476 14.1485 10.2185 14.1485C9.92513 14.1485 9.63846 13.9485 9.50013 13.6543C9.29679 13.8835 9.06429 14.1152 8.79013 14.291C8.39013 14.5485 7.93346 14.7485 7.39013 14.7485C6.90513 14.7485 6.47596 14.491 6.24763 14.2627C5.90429 13.9485 5.70513 13.4627 5.67596 13.0052C5.50513 11.6052 6.36179 9.80517 7.67596 9.00517C7.99096 8.83434 8.30513 8.71934 8.61929 8.71934ZM16.761 11.4618C16.6743 11.4618 16.6176 11.6052 16.6176 11.7477C16.6176 11.976 16.7318 12.2335 16.8751 12.3768C16.931 12.2209 16.9597 12.0566 16.9601 11.891C16.9601 11.6052 16.8468 11.4618 16.761 11.4618Z" fill="black"/>
</svg>
