<svg width="17" height="17" viewBox="0 0 17 17" fill="none" xmlns="http://www.w3.org/2000/svg">
<path d="M1.79317 10.9552C1.79317 11.2282 2.01483 11.451 2.28783 11.451H5.75108V2.29851L1.79317 6.46643V10.9552ZM10.7858 15.9613C11.0583 15.9613 11.2793 15.7397 11.2793 15.4661V12.0028H2.12742L6.29592 15.9608L10.7858 15.9613ZM15.7932 6.97218C15.7933 6.90728 15.7806 6.84299 15.7559 6.78301C15.7311 6.72302 15.6947 6.66853 15.6488 6.62267C15.6028 6.57681 15.5483 6.54047 15.4883 6.51576C15.4283 6.49105 15.364 6.47845 15.2991 6.47868H11.8353V15.6306L15.7914 11.4609L15.7932 6.97218ZM6.80108 1.96484C6.67004 1.96484 6.54437 2.0169 6.45171 2.10956C6.35906 2.20222 6.307 2.32789 6.307 2.45893V5.92393H15.4583L11.291 1.96484H6.80108Z" fill="black"/>
</svg>
