<svg width="24" height="25" viewBox="0 0 24 25" fill="none" xmlns="http://www.w3.org/2000/svg">
<path d="M21.6638 5.85895C21.4515 5.27533 21.114 4.74531 20.6749 4.30619C20.2357 3.86707 19.7057 3.52952 19.1221 3.31729C18.0304 2.96729 17.0388 2.96729 15.0221 2.96729H8.9721C6.9721 2.96729 5.96377 2.96729 4.88877 3.30062C4.3043 3.51373 3.77374 3.85256 3.33457 4.29318C2.89539 4.7338 2.5583 5.26546 2.3471 5.85062C2.00543 6.93395 2.00543 7.93395 2.00543 9.93395V15.9923C2.00543 18.0006 2.00543 18.9923 2.33877 20.0756C2.551 20.6592 2.88855 21.1893 3.32767 21.6284C3.76679 22.0675 4.29681 22.4051 4.88043 22.6173C5.96377 22.959 6.96377 22.959 8.96377 22.959H15.0304C17.0388 22.959 18.0388 22.959 19.1138 22.6256C19.6998 22.4135 20.232 22.0752 20.6726 21.6345C21.1133 21.1938 21.4517 20.6616 21.6638 20.0756C22.0054 18.9923 22.0054 17.9923 22.0054 15.9923V9.95062C22.0054 7.94229 22.0054 6.94229 21.6638 5.85895ZM16.5221 9.71729L15.7471 10.4923C15.6716 10.5625 15.5727 10.6023 15.4695 10.6038C15.3664 10.6054 15.2664 10.5686 15.1888 10.5006C14.4382 9.86676 13.4878 9.51848 12.5054 9.51729C11.6971 9.51729 10.8888 9.78395 10.8888 10.5256C10.8888 11.2756 11.7554 11.5256 12.7554 11.9006C14.5054 12.484 15.9554 13.2173 15.9554 14.934C15.9554 16.8006 14.5054 18.084 12.1388 18.2256L11.9221 19.2256C11.9029 19.3175 11.8527 19.4 11.7799 19.4592C11.707 19.5184 11.616 19.5507 11.5221 19.5506H10.0304L9.95543 19.5423C9.84866 19.5183 9.7556 19.4533 9.69635 19.3613C9.6371 19.2693 9.61641 19.1577 9.63877 19.0506L9.8721 17.9923C8.97395 17.7671 8.14797 17.3169 7.4721 16.684V16.6756C7.43481 16.6385 7.40522 16.5943 7.38503 16.5457C7.36484 16.4971 7.35445 16.4449 7.35445 16.3923C7.35445 16.3396 7.36484 16.2875 7.38503 16.2389C7.40522 16.1903 7.43481 16.1461 7.4721 16.109L8.30543 15.3006C8.3811 15.2297 8.48091 15.1903 8.5846 15.1903C8.68829 15.1903 8.78809 15.2297 8.86376 15.3006C9.6221 16.0173 10.6388 16.4173 11.6888 16.4006C12.7721 16.4006 13.4971 15.9423 13.4971 15.2173C13.4971 14.4923 12.7638 14.3006 11.3804 13.784C9.91377 13.259 8.5221 12.5173 8.5221 10.784C8.5221 8.76729 10.1971 7.78395 12.1804 7.69229L12.3888 6.66729C12.4081 6.57619 12.4587 6.49471 12.5317 6.4369C12.6047 6.3791 12.6957 6.34858 12.7888 6.35062H14.2721L14.3554 6.35895C14.5721 6.40895 14.7138 6.61729 14.6638 6.83395L14.4388 7.97562C15.1888 8.22562 15.8971 8.61729 16.5054 9.13395L16.5221 9.15062C16.6804 9.31729 16.6804 9.56728 16.5221 9.71729Z" fill="black"/>
</svg>
