<svg width="25" height="25" viewBox="0 0 25 25" fill="none" xmlns="http://www.w3.org/2000/svg">
<path d="M3.1845 15.1645C2.94244 14.2281 2.8203 13.2648 2.821 12.2976C2.82026 11.3305 2.9424 10.3672 3.1845 9.43084C4.61317 9.60609 5.721 10.8213 5.721 12.2975C5.721 13.7733 4.61375 14.9892 3.1845 15.1645ZM6.49517 12.2976C6.49517 12.7979 6.90067 13.2037 7.40117 13.2037C7.902 13.2037 8.30784 12.7978 8.30784 12.2976C8.30784 11.7973 7.902 11.3909 7.40117 11.3909C6.90067 11.3909 6.49517 11.7973 6.49517 12.2976ZM22.4509 9.43084C21.0217 9.60609 19.9143 10.8213 19.9143 12.2975C19.9143 13.7733 21.0217 14.9892 22.4509 15.1645C22.6927 14.2281 22.8148 13.2647 22.8143 12.2976C22.8143 11.3073 22.6878 10.3465 22.4509 9.43084ZM17.3276 12.2975C17.3276 12.7979 17.733 13.2037 18.234 13.2037C18.7342 13.2037 19.1407 12.7978 19.1407 12.2976C19.1407 11.7973 18.7342 11.3909 18.234 11.3909C17.733 11.3909 17.3276 11.7972 17.3276 12.2975ZM12.7987 19.4196C11.3229 19.4196 10.1078 20.5279 9.932 21.9563C10.8687 22.198 11.8322 22.32 12.7995 22.3193C13.7899 22.3193 14.7498 22.1931 15.6662 21.9563C15.4906 20.5279 14.2756 19.4196 12.7987 19.4196ZM12.7995 16.8324C12.2985 16.8324 11.893 17.2388 11.893 17.7393C11.893 18.2399 12.2985 18.6462 12.7995 18.6462C13.2995 18.6462 13.7053 18.24 13.7053 17.7393C13.7053 17.2387 13.2995 16.8324 12.7995 16.8324ZM12.7995 5.21909C14.2756 5.21909 15.4908 4.11142 15.6661 2.68259C14.7297 2.44089 13.7665 2.31883 12.7994 2.31934C11.8088 2.31934 10.8484 2.44592 9.93192 2.68259C10.1078 4.11142 11.3229 5.21909 12.7995 5.21909ZM12.7995 5.99334C12.2985 5.99334 11.893 6.39884 11.893 6.89967C11.893 7.39984 12.2985 7.806 12.7995 7.806C13.2995 7.806 13.7053 7.39984 13.7053 6.89967C13.7053 6.39884 13.2995 5.99334 12.7995 5.99334ZM17.8262 17.3238C16.7833 18.3673 16.7062 20.008 17.5908 21.1421C19.2632 20.1555 20.6578 18.7604 21.6438 17.0876C20.5098 16.2045 18.8689 16.2815 17.8262 17.3238ZM17.2788 15.4948C16.9247 15.141 16.3509 15.141 15.9963 15.4948C15.6428 15.8491 15.6428 16.4228 15.9963 16.7767C16.3509 17.1311 16.9247 17.1311 17.2788 16.7767C17.6322 16.4228 17.6322 15.8491 17.2788 15.4948ZM7.78825 7.28625C8.83125 6.2435 8.908 4.60242 8.02367 3.4685C6.35121 4.45491 4.95645 5.84964 3.97 7.52209C5.10434 8.40675 6.74542 8.32934 7.78825 7.28625ZM8.3355 7.83392C7.98217 8.18784 7.98217 8.76217 8.3355 9.11584C8.68925 9.46967 9.26384 9.46967 9.61734 9.11584C9.97134 8.76217 9.97134 8.18784 9.61734 7.83392C9.26375 7.48034 8.68925 7.48034 8.3355 7.83392ZM21.6376 7.5125C20.6515 5.83998 19.2569 4.44523 17.5845 3.459C16.7 4.59309 16.777 6.234 17.8198 7.27717C18.8628 8.31942 20.5034 8.39684 21.6376 7.5125ZM17.2726 9.10625C17.6257 8.75225 17.6257 8.17834 17.2726 7.82434C16.9184 7.47042 16.3438 7.47042 15.9903 7.82434C15.6368 8.17834 15.6368 8.75225 15.9903 9.10625C16.3438 9.45984 16.9183 9.45984 17.2726 9.10625ZM3.96525 17.0766C4.95151 18.7495 6.3464 20.1446 8.01917 21.1311C8.90359 19.9971 8.82625 18.3563 7.78309 17.3129C6.74042 16.2704 5.09942 16.1933 3.96525 17.0766ZM8.33067 15.4837C7.9775 15.8376 7.9775 16.4117 8.33067 16.7657C8.68484 17.1195 9.25909 17.1195 9.6125 16.7657C9.96667 16.4117 9.96667 15.8376 9.6125 15.4837C9.25909 15.1299 8.68492 15.1299 8.33067 15.4837Z" fill="black"/>
</svg>
