<svg width="25" height="25" viewBox="0 0 25 25" fill="none" xmlns="http://www.w3.org/2000/svg">
<path d="M6.02386 2.96289C5.13759 2.96289 4.28763 3.31496 3.66094 3.94164C3.03426 4.56833 2.68219 5.41829 2.68219 6.30456L2.68219 19.6212C2.68219 21.4629 4.18219 22.9546 6.02386 22.9629H19.3405C21.1822 22.9629 22.6822 21.4629 22.6822 19.6212V6.29622C22.68 5.4114 22.3269 4.56358 21.7005 3.93869C21.0741 3.31381 20.2253 2.96289 19.3405 2.96289L6.01552 2.96289H6.02386ZM7.37386 6.59622H17.9905C18.5739 6.59622 19.0405 7.07122 19.0405 7.65456V18.2712C19.0405 18.8546 18.5739 19.3296 17.9905 19.3296H7.37386C6.79052 19.3296 6.32386 18.8546 6.32386 18.2712V7.65456C6.32385 7.37531 6.43421 7.10737 6.63088 6.90913C6.82756 6.7109 7.09462 6.59842 7.37386 6.59622ZM10.5655 10.2212C10.4042 10.2212 10.2495 10.2853 10.1354 10.3994C10.0213 10.5135 9.95719 10.6682 9.95719 10.8296V15.0712C9.95719 15.4046 10.2239 15.6712 10.5572 15.6712H14.8072C14.9671 15.6712 15.1206 15.6083 15.2344 15.496C15.3483 15.3837 15.4133 15.2311 15.4155 15.0712V10.8296C15.4155 10.7497 15.3998 10.6706 15.3692 10.5968C15.3386 10.523 15.2938 10.4559 15.2373 10.3994C15.1809 10.3429 15.1138 10.2981 15.04 10.2675C14.9662 10.237 14.8871 10.2212 14.8072 10.2212H10.5572H10.5655Z" fill="black"/>
</svg>
