<svg width="17" height="17" viewBox="0 0 17 17" fill="none" xmlns="http://www.w3.org/2000/svg">
<path d="M4.75879 10.1656C4.75802 10.5554 4.60296 10.929 4.3275 11.2048C4.05203 11.4806 3.67859 11.6361 3.28879 11.6373C2.8988 11.6364 2.52505 11.481 2.24934 11.2052C1.97362 10.9294 1.8184 10.5556 1.81763 10.1656C1.81871 9.77585 1.97409 9.4024 2.24978 9.12692C2.52548 8.85144 2.89905 8.69636 3.28879 8.69559H4.75879V10.1656ZM5.50021 10.1656C5.50129 9.77595 5.65659 9.40259 5.93216 9.12712C6.20773 8.85166 6.58116 8.69651 6.97079 8.69559C7.36043 8.69651 7.73386 8.85166 8.00943 9.12712C8.285 9.40259 8.4403 9.77595 8.44138 10.1656V13.8482C8.44045 14.238 8.28524 14.6115 8.00967 14.8872C7.7341 15.1629 7.36059 15.3183 6.97079 15.3193C6.581 15.3183 6.20749 15.1629 5.93192 14.8872C5.65635 14.6115 5.50113 14.238 5.50021 13.8482V10.1656ZM6.97079 4.2605C6.5812 4.25943 6.20787 4.10422 5.93233 3.82879C5.65679 3.55337 5.50144 3.18009 5.50021 2.7905C5.50113 2.40071 5.65635 2.02714 5.93192 1.75146C6.20749 1.47578 6.581 1.32041 6.97079 1.31934C7.36059 1.32041 7.7341 1.47578 8.00967 1.75146C8.28524 2.02714 8.44045 2.40071 8.44138 2.7905V4.2605H6.97079ZM6.97079 5.00192C7.36048 5.003 7.73391 5.15828 8.00946 5.43383C8.28502 5.70939 8.4403 6.08281 8.44138 6.4725C8.4403 6.86219 8.28502 7.23562 8.00946 7.51117C7.73391 7.78673 7.36048 7.94201 6.97079 7.94309H3.28879C2.899 7.94216 2.52543 7.78695 2.24975 7.51138C1.97407 7.23581 1.81871 6.86229 1.81763 6.4725C1.81871 6.08271 1.97407 5.7092 2.24975 5.43363C2.52543 5.15806 2.899 5.00284 3.28879 5.00192H6.97079ZM12.8753 6.4725C12.8764 6.08271 13.0317 5.7092 13.3074 5.43363C13.5831 5.15806 13.9567 5.00284 14.3465 5.00192C14.7363 5.00284 15.1098 5.15806 15.3855 5.43363C15.6612 5.7092 15.8165 6.08271 15.8176 6.4725C15.8165 6.86229 15.6612 7.23581 15.3855 7.51138C15.1098 7.78695 14.7363 7.94216 14.3465 7.94309H12.8753V6.4725ZM12.1356 6.4725C12.1345 6.8624 11.9791 7.23599 11.7033 7.51158C11.4275 7.78717 11.0538 7.94232 10.6639 7.94309C10.2742 7.94201 9.90088 7.78671 9.62541 7.51114C9.34995 7.23556 9.1948 6.86214 9.19388 6.4725V2.7905C9.19465 2.40076 9.34973 2.02719 9.62521 1.75149C9.90069 1.4758 10.2741 1.32041 10.6639 1.31934C11.0539 1.32011 11.4277 1.47533 11.7035 1.75105C11.9793 2.02676 12.1347 2.40051 12.1356 2.7905V6.4725ZM10.6639 12.377C11.0539 12.3778 11.4277 12.533 11.7035 12.8087C11.9793 13.0844 12.1347 13.4582 12.1356 13.8482C12.1347 14.2382 11.9793 14.6119 11.7035 14.8876C11.4277 15.1633 11.0539 15.3186 10.6639 15.3193C10.2741 15.3183 9.90069 15.1629 9.62521 14.8872C9.34973 14.6115 9.19465 14.2379 9.19388 13.8482V12.377H10.6639ZM10.6639 11.6373C10.274 11.6363 9.9005 11.4808 9.625 11.205C9.34951 10.9291 9.19449 10.5554 9.19388 10.1656C9.1948 9.776 9.34997 9.40264 9.62545 9.12716C9.90093 8.85168 10.2743 8.69651 10.6639 8.69559H14.3465C14.7362 8.69636 15.1098 8.85144 15.3855 9.12692C15.6612 9.4024 15.8165 9.77585 15.8176 10.1656C15.8169 10.5556 15.6616 10.9294 15.3859 11.2052C15.1102 11.481 14.7365 11.6364 14.3465 11.6373H10.6639Z" fill="black"/>
</svg>
