<svg width="25" height="25" viewBox="0 0 25 25" fill="none" xmlns="http://www.w3.org/2000/svg">
<path d="M19.1106 14.8479C19.3447 14.8479 19.5747 14.8671 19.8006 14.9012C19.8006 14.9054 19.7964 14.9096 19.7964 14.9129C19.7089 15.1354 19.6014 15.3579 19.4789 15.5679L18.4631 17.3229C17.5364 18.9362 15.8156 19.9287 13.9539 19.9287H11.9272C10.0689 19.9287 8.34889 18.9362 7.41722 17.3229L6.40222 15.5679C5.94487 14.7759 5.70409 13.8775 5.70409 12.9629C5.70409 12.0483 5.94487 11.1499 6.40222 10.3579L7.41722 8.60289C8.34472 6.98956 10.0647 5.99706 11.9272 5.99706H13.9539C15.8122 5.99706 17.5322 6.98956 18.4631 8.60289L19.4789 10.3579C19.6014 10.5679 19.7047 10.7904 19.7964 11.0129C19.7964 11.0162 19.8006 11.0204 19.8006 11.0246C19.5781 11.0587 19.3481 11.0779 19.1106 11.0779C17.5972 11.0779 17.0264 10.5721 16.3681 9.98956C15.7314 9.42622 14.9422 8.72539 13.5014 8.72539H12.6439C11.6014 8.72539 10.6547 9.10456 9.97722 9.79039C9.31389 10.4612 8.94972 11.3771 8.94972 12.3729V13.5487C8.94972 14.5454 9.31389 15.4612 9.97722 16.1312C10.6547 16.8171 11.6014 17.1962 12.6439 17.1962H13.5056C14.9464 17.1962 15.7356 16.4954 16.3714 15.9321C17.0306 15.3462 17.5972 14.8437 19.1106 14.8479ZM19.1147 12.1504C19.4472 12.1504 19.7764 12.1204 20.0972 12.0587C20.0956 12.0554 20.0956 12.0504 20.0956 12.0471C20.0347 11.7021 19.9347 11.3612 19.8047 11.0321C20.4139 10.9321 20.9772 10.7021 21.4597 10.3496C21.4597 10.3462 21.4556 10.3387 21.4556 10.3346C21.1797 9.43039 20.7622 8.58372 20.2147 7.80956C19.6739 7.04706 19.0189 6.37706 18.2722 5.81372C16.7164 4.64872 14.8656 4.03206 12.9156 4.03206C11.7089 4.03206 10.5364 4.26539 9.43639 4.73289C8.37556 5.18539 7.41722 5.82872 6.59722 6.64872C5.77722 7.46872 5.12972 8.42289 4.68222 9.48789C4.21806 10.5912 3.98056 11.7596 3.98056 12.9671C3.98056 14.1737 4.21472 15.3462 4.68222 16.4454C5.13389 17.5071 5.77722 18.4646 6.59722 19.2846C7.41722 20.1046 8.37139 20.7521 9.43639 21.2004C10.5397 21.6637 11.7089 21.9012 12.9156 21.9012C14.8656 21.9012 16.7164 21.2846 18.2722 20.1204C19.0193 19.5595 19.6746 18.8859 20.2147 18.1237C20.7581 17.3496 21.1797 16.4996 21.4556 15.5987C21.4556 15.5954 21.4597 15.5871 21.4597 15.5837C20.9772 15.2312 20.4139 15.0012 19.8047 14.9012C19.9389 14.5721 20.0347 14.2312 20.0956 13.8862C20.0997 13.8787 20.0997 13.8746 20.0997 13.8671C20.8239 14.0054 21.5097 14.2887 22.1031 14.7296C22.6739 15.1504 22.5631 15.6254 22.4747 15.9096C21.2181 19.9937 17.4139 22.9629 12.9156 22.9629C7.39472 22.9629 2.91556 18.4837 2.91556 12.9629C2.91556 7.44206 7.39056 2.96289 12.9156 2.96289C17.4139 2.96289 21.2181 5.93206 22.4747 10.0162C22.5631 10.3004 22.6739 10.7787 22.1031 11.2004C21.5056 11.6412 20.8239 11.9279 20.0997 12.0621C20.2064 12.6587 20.2064 13.2704 20.0997 13.8671C19.7772 13.8054 19.4481 13.7754 19.1147 13.7754C15.6281 13.7754 15.8081 16.1279 13.5014 16.1279H12.6439C11.0614 16.1279 10.0189 14.9971 10.0189 13.5487V12.3729C10.0189 10.9246 11.0614 9.79456 12.6439 9.79456H13.5056C15.8122 9.79456 15.6322 12.1471 19.1147 12.1504Z" fill="black"/>
</svg>
