<svg width="16" height="17" viewBox="0 0 16 17" fill="none" xmlns="http://www.w3.org/2000/svg">
<path d="M14.7663 3.98999C14.6177 3.58145 14.3814 3.21044 14.074 2.90305C13.7666 2.59567 13.3956 2.35938 12.9871 2.21082C12.2229 1.96582 11.5288 1.96582 10.1171 1.96582H5.8821C4.4821 1.96582 3.77627 1.96582 3.02377 2.19915C2.61464 2.34833 2.24325 2.58552 1.93583 2.89395C1.6284 3.20238 1.39244 3.57454 1.2446 3.98415C1.00543 4.74249 1.00543 5.44249 1.00543 6.84249V11.0833C1.00543 12.4892 1.00543 13.1833 1.23877 13.9417C1.38733 14.3502 1.62361 14.7212 1.931 15.0286C2.23838 15.336 2.6094 15.5723 3.01793 15.7208C3.77627 15.96 4.47627 15.96 5.87627 15.96H10.1229C11.5288 15.96 12.2288 15.96 12.9813 15.7267C13.3915 15.5782 13.764 15.3413 14.0725 15.0329C14.3809 14.7244 14.6178 14.3519 14.7663 13.9417C15.0054 13.1833 15.0054 12.4833 15.0054 11.0833V6.85415C15.0054 5.44832 15.0054 4.74832 14.7663 3.98999ZM11.1671 6.69082L10.6246 7.23332C10.5717 7.2825 10.5025 7.31032 10.4303 7.31139C10.3581 7.31247 10.2881 7.28673 10.2338 7.23915C9.70838 6.79545 9.04311 6.55166 8.35543 6.55082C7.7896 6.55082 7.22377 6.73749 7.22377 7.25665C7.22377 7.78165 7.83043 7.95665 8.53043 8.21915C9.75543 8.62749 10.7704 9.14082 10.7704 10.3425C10.7704 11.6492 9.75543 12.5475 8.09877 12.6467L7.9471 13.3467C7.93369 13.411 7.89852 13.4687 7.84753 13.5102C7.79653 13.5516 7.73281 13.5742 7.6671 13.5742H6.62293L6.57043 13.5683C6.49569 13.5516 6.43055 13.5061 6.38907 13.4417C6.3476 13.3773 6.33312 13.2991 6.34877 13.2242L6.5121 12.4833C5.88339 12.3257 5.30521 12.0105 4.8321 11.5675V11.5617C4.806 11.5356 4.78528 11.5047 4.77115 11.4707C4.75702 11.4367 4.74974 11.4002 4.74974 11.3633C4.74974 11.3265 4.75702 11.29 4.77115 11.2559C4.78528 11.2219 4.806 11.191 4.8321 11.165L5.41543 10.5992C5.4684 10.5495 5.53827 10.5219 5.61085 10.5219C5.68343 10.5219 5.7533 10.5495 5.80627 10.5992C6.3371 11.1008 7.04877 11.3808 7.78377 11.3692C8.5421 11.3692 9.0496 11.0483 9.0496 10.5408C9.0496 10.0333 8.53627 9.89915 7.56793 9.53749C6.54127 9.16999 5.5671 8.65082 5.5671 7.43749C5.5671 6.02582 6.7396 5.33749 8.12793 5.27332L8.27377 4.55582C8.28733 4.49205 8.32272 4.43502 8.37384 4.39455C8.42495 4.35409 8.48859 4.33273 8.55376 4.33415H9.5921L9.65043 4.33999C9.8021 4.37499 9.90126 4.52082 9.86626 4.67249L9.70877 5.47165C10.2338 5.64665 10.7296 5.92082 11.1554 6.28249L11.1671 6.29415C11.2779 6.41082 11.2779 6.58582 11.1671 6.69082Z" fill="black"/>
</svg>
