<svg width="24" height="25" viewBox="0 0 24 25" fill="none" xmlns="http://www.w3.org/2000/svg">
<g clip-path="url(#clip0_697_2569)">
<path d="M16.4199 12.04H8.41992V10.54H16.4199V12.04Z" fill="black"/>
<path d="M14.4199 16.04H8.41992V14.54H14.4199V16.04Z" fill="black"/>
<path fill-rule="evenodd" clip-rule="evenodd" d="M12.11 0.850098C10.4165 0.850098 8.73513 1.82195 8.31163 3.3401H6.01C4.48579 3.3401 3.25 4.57588 3.25 6.1001V19.8001C3.25 21.3243 4.48579 22.5601 6.01 22.5601H18.22C19.7442 22.5601 20.98 21.3243 20.98 19.8001V6.1101C20.98 4.58588 19.7442 3.3501 18.22 3.3501H15.9211C15.7687 2.73196 15.4234 2.17912 14.912 1.75198C14.211 1.16644 13.2414 0.850098 12.11 0.850098ZM9.71 4.0901C9.71 3.29083 10.6281 2.3501 12.11 2.3501C12.9686 2.3501 13.574 2.58875 13.9505 2.90322C14.3196 3.21153 14.51 3.62365 14.51 4.0901V4.40074L14.9593 4.8501H15.49V5.6001H8.98999V4.8401H9.71V4.0901ZM7.48999 4.8401H6.01C5.31421 4.8401 4.75 5.40431 4.75 6.1001V19.8001C4.75 20.4959 5.31421 21.0601 6.01 21.0601H18.22C18.9158 21.0601 19.48 20.4959 19.48 19.8001V6.1101C19.48 5.41431 18.9158 4.8501 18.22 4.8501H16.99V6.3501C16.99 6.76431 16.6542 7.1001 16.24 7.1001H8.23999C7.82578 7.1001 7.48999 6.76431 7.48999 6.3501V4.8401Z" fill="black"/>
</g>
<defs>
<clipPath id="clip0_697_2569">
<rect width="24" height="24" fill="white" transform="translate(0 0.0991211)"/>
</clipPath>
</defs>
</svg>
