<svg width="16" height="17" viewBox="0 0 16 17" fill="none" xmlns="http://www.w3.org/2000/svg">
<g clip-path="url(#clip0_697_2571)">
<path d="M10.9601 9.04028H5.7301V7.54028H10.9601V9.04028Z" fill="black"/>
<path d="M9.6601 11.4402H5.7301V9.94019H9.6601V11.4402Z" fill="black"/>
<path fill-rule="evenodd" clip-rule="evenodd" d="M8.12289 0.550049C7.03469 0.550049 5.90483 1.15211 5.52045 2.15173H4.26967C3.14152 2.15173 2.25 3.07933 2.25 4.19466V13.0071C2.25 14.1225 3.14152 15.05 4.26967 15.05H11.9824C13.1106 15.05 14.0021 14.1225 14.0021 13.0071V4.20109C14.0021 3.08576 13.1106 2.15816 11.9824 2.15816H10.7384C10.6103 1.79068 10.3856 1.46079 10.0751 1.19672C9.57256 0.769273 8.89112 0.550049 8.12289 0.550049ZM6.88311 2.90173C6.88311 2.58021 7.28832 2.05005 8.12289 2.05005C8.6117 2.05005 8.92515 2.18783 9.10325 2.33931C9.27492 2.48533 9.36267 2.67638 9.36267 2.90173V3.2084L9.80432 3.65816H10.0901V4.3401H6.36011V3.65173H6.88311V2.90173ZM4.86011 3.65173H4.26967C3.9955 3.65173 3.75 3.88197 3.75 4.19466V13.0071C3.75 13.3198 3.9955 13.55 4.26967 13.55H11.9824C12.2566 13.55 12.5021 13.3198 12.5021 13.0071V4.20109C12.5021 3.88841 12.2566 3.65816 11.9824 3.65816H11.5901V5.0901C11.5901 5.50431 11.2543 5.8401 10.8401 5.8401H5.61011C5.19589 5.8401 4.86011 5.50431 4.86011 5.0901V3.65173Z" fill="black"/>
</g>
<defs>
<clipPath id="clip0_697_2571">
<rect width="16" height="16" fill="white" transform="translate(0 0.0991211)"/>
</clipPath>
</defs>
</svg>
