<svg width="17" height="17" viewBox="0 0 17 17" fill="none" xmlns="http://www.w3.org/2000/svg">
<g clip-path="url(#clip0_24997_4209)">
<path d="M12.5147 5.14148H5.42847V6.64148H12.5147V5.14148Z" fill="black"/>
<path d="M10.9985 7.88428H6.95117V9.38428H10.9985V7.88428Z" fill="black"/>
<path d="M7.79492 10.6271H10.1548V12.1271H7.79492V10.6271Z" fill="black"/>
<path fill-rule="evenodd" clip-rule="evenodd" d="M8.81666 0.765137C4.80558 0.765137 1.55396 4.01676 1.55396 8.02784C1.55396 12.0389 4.80558 15.2905 8.81666 15.2905C12.8277 15.2905 16.0794 12.0389 16.0794 8.02784C16.0794 4.01676 12.8277 0.765137 8.81666 0.765137ZM3.05396 8.02784C3.05396 4.84519 5.634 2.26514 8.81666 2.26514C11.9993 2.26514 14.5794 4.84519 14.5794 8.02784C14.5794 11.2105 11.9993 13.7905 8.81666 13.7905C5.634 13.7905 3.05396 11.2105 3.05396 8.02784Z" fill="black"/>
</g>
<defs>
<clipPath id="clip0_24997_4209">
<rect width="16" height="16" fill="white" transform="translate(0.81665 0.027832)"/>
</clipPath>
</defs>
</svg>
