<svg width="25" height="25" viewBox="0 0 25 25" fill="none" xmlns="http://www.w3.org/2000/svg">
<path d="M18.4266 8.53784H7.67664V10.0378H18.4266V8.53784Z" fill="black"/>
<path d="M16.1267 12.1979H9.98669V13.6979H16.1267V12.1979Z" fill="black"/>
<path d="M11.2666 15.8578H14.8466V17.3578H11.2666V15.8578Z" fill="black"/>
<path fill-rule="evenodd" clip-rule="evenodd" d="M12.8166 1.39783C6.94586 1.39783 2.18665 6.15704 2.18665 12.0278C2.18665 17.8986 6.94586 22.6578 12.8166 22.6578C18.6874 22.6578 23.4466 17.8986 23.4466 12.0278C23.4466 6.15704 18.6874 1.39783 12.8166 1.39783ZM3.68665 12.0278C3.68665 6.98547 7.77429 2.89783 12.8166 2.89783C17.859 2.89783 21.9466 6.98547 21.9466 12.0278C21.9466 17.0702 17.859 21.1578 12.8166 21.1578C7.77429 21.1578 3.68665 17.0702 3.68665 12.0278Z" fill="black"/>
</svg>
