<svg width="17" height="17" viewBox="0 0 17 17" fill="none" xmlns="http://www.w3.org/2000/svg">
<path fill-rule="evenodd" clip-rule="evenodd" d="M15.8167 5.02783C15.8167 7.23697 14.0258 9.02783 11.8167 9.02783C9.60751 9.02783 7.81665 7.23697 7.81665 5.02783C7.81665 2.81869 9.60751 1.02783 11.8167 1.02783C14.0258 1.02783 15.8167 2.81869 15.8167 5.02783ZM11.8167 7.52783C13.1974 7.52783 14.3167 6.40854 14.3167 5.02783C14.3167 3.64712 13.1974 2.52783 11.8167 2.52783C10.4359 2.52783 9.31665 3.64712 9.31665 5.02783C9.31665 6.40854 10.4359 7.52783 11.8167 7.52783Z" fill="black"/>
<path d="M3.56665 2.80545L6.77184 2.77778L6.75889 1.27783L2.06665 1.31834V14.7778H15.5718L15.541 10.2727L14.041 10.2829L14.0615 13.2778H3.56665V2.80545Z" fill="black"/>
<path d="M5.34704 12.5582L8.34704 9.55822L7.28638 8.49756L4.28638 11.4976L5.34704 12.5582Z" fill="black"/>
</svg>
