<svg width="25" height="25" viewBox="0 0 25 25" fill="none" xmlns="http://www.w3.org/2000/svg">
<path fill-rule="evenodd" clip-rule="evenodd" d="M22.8167 8.02783C22.8167 11.3415 20.1304 14.0278 16.8167 14.0278C13.5029 14.0278 10.8167 11.3415 10.8167 8.02783C10.8167 4.71412 13.5029 2.02783 16.8167 2.02783C20.1304 2.02783 22.8167 4.71412 22.8167 8.02783ZM16.8167 12.5278C19.3019 12.5278 21.3167 10.5131 21.3167 8.02783C21.3167 5.54255 19.3019 3.52783 16.8167 3.52783C14.3314 3.52783 12.3167 5.54255 12.3167 8.02783C12.3167 10.5131 14.3314 12.5278 16.8167 12.5278Z" fill="black"/>
<path d="M4.56665 4.82049L10.2496 4.77779L10.2384 3.27783L3.06665 3.33172V21.7778H21.5718L21.5303 15.7102L20.0303 15.7204L20.0615 20.2778H4.56665V4.82049Z" fill="black"/>
<path d="M7.34704 18.5582L12.347 13.5582L11.2864 12.4976L6.28638 17.4976L7.34704 18.5582Z" fill="black"/>
</svg>
