<svg width="17" height="17" viewBox="0 0 17 17" fill="none" xmlns="http://www.w3.org/2000/svg">
<g clip-path="url(#clip0_24997_4076)">
<path d="M4.8898 1.89233C4.67046 1.89233 4.48759 2.0752 4.48759 2.29454C4.48759 3.67695 3.36426 4.79326 1.98888 4.79326C1.76954 4.79326 1.58667 4.97613 1.58667 5.19547C1.58667 5.40974 1.75677 5.59768 1.98888 5.59768C3.37203 5.59768 4.48759 6.71398 4.48759 8.08861C4.48759 8.30795 4.67046 8.49082 4.8898 8.49082C5.10914 8.49082 5.29201 8.30795 5.29201 8.08861C5.29201 6.70621 6.41535 5.5899 7.79072 5.5899C8.01006 5.5899 8.19293 5.40703 8.19293 5.18769C8.19293 4.97341 8.02284 4.78548 7.79072 4.78548C6.40757 4.78548 5.29201 3.66917 5.29201 2.29454C5.29201 2.0752 5.10914 1.89233 4.8898 1.89233Z" fill="black"/>
<path d="M10.5424 4.47931C10.2373 4.47931 9.98091 4.73571 9.98091 5.04082C9.98091 7.59965 7.90174 9.66567 5.35607 9.66567C5.05095 9.66567 4.79456 9.92206 4.79456 10.2272C4.79456 10.5272 5.03205 10.7887 5.35607 10.7887C7.91564 10.7887 9.98091 12.8547 9.98091 15.3996C9.98091 15.7048 10.2373 15.9612 10.5424 15.9612C10.8475 15.9612 11.1039 15.7048 11.1039 15.3996C11.1039 12.8408 13.1831 10.7748 15.7288 10.7748C16.0339 10.7748 16.2903 10.5184 16.2903 10.2133C16.2903 9.91322 16.0528 9.65176 15.7288 9.65176C13.1692 9.65176 11.1039 7.58574 11.1039 5.04082C11.1039 4.73571 10.8475 4.47931 10.5424 4.47931Z" fill="black"/>
</g>
<defs>
<clipPath id="clip0_24997_4076">
<rect width="16" height="16" fill="white" transform="translate(0.938477 0.926758)"/>
</clipPath>
</defs>
</svg>
