<svg width="25" height="25" viewBox="0 0 25 25" fill="none" xmlns="http://www.w3.org/2000/svg">
<path d="M22.2534 15.4646C18.6613 15.4646 15.7274 18.3797 15.7274 21.9906C15.7274 22.2539 15.5017 22.4796 15.2384 22.4796C14.9751 22.4796 14.7494 22.2539 14.7494 21.9906C14.7494 18.3985 11.8344 15.4834 8.22347 15.4834C7.94137 15.4834 7.7345 15.2578 7.7345 14.9945C7.7345 14.7312 7.96018 14.5055 8.22347 14.5055C11.8156 14.5055 14.7494 11.5904 14.7494 7.97952C14.7494 7.71622 14.9751 7.49054 15.2384 7.49054C15.5017 7.49054 15.7274 7.71622 15.7274 7.97952C15.7274 11.5716 18.6425 14.4867 22.2534 14.4867C22.5355 14.4867 22.7424 14.7124 22.7424 14.9757C22.7424 15.239 22.5167 15.4646 22.2534 15.4646Z" fill="black"/>
<path d="M7.90606 3.37393C7.60933 3.37393 7.36142 3.62185 7.36142 3.91857C7.36142 5.9558 5.706 7.60083 3.67916 7.60083C3.38244 7.60083 3.13452 7.84875 3.13452 8.14547C3.13452 8.43586 3.36486 8.6901 3.67916 8.6901C5.71733 8.6901 7.36142 10.3351 7.36142 12.361C7.36142 12.6578 7.60934 12.9057 7.90606 12.9057C8.20278 12.9057 8.45069 12.6578 8.45069 12.361C8.45069 10.3238 10.1061 8.67877 12.133 8.67877C12.4297 8.67877 12.6776 8.43086 12.6776 8.13414C12.6776 7.84374 12.4473 7.5895 12.133 7.5895C10.0948 7.5895 8.45069 5.94447 8.45069 3.91857C8.45069 3.62185 8.20278 3.37393 7.90606 3.37393Z" fill="black"/>
</svg>
