<svg width="17" height="17" viewBox="0 0 17 17" fill="none" xmlns="http://www.w3.org/2000/svg">
<g clip-path="url(#clip0_24997_4089)">
<path d="M4.5604 1.28354C4.28585 1.28354 4.05822 1.51116 4.05822 1.78571C4.05822 3.11242 2.98007 4.18393 1.66001 4.18393C1.38546 4.18393 1.15784 4.41155 1.15784 4.6861C1.15784 4.95305 1.37019 5.18827 1.66001 5.18827C2.98785 5.18827 4.05822 6.25977 4.05822 7.57871C4.05822 7.85326 4.28585 8.08088 4.5604 8.08088C4.83494 8.08088 5.06257 7.85326 5.06257 7.57871C5.06257 6.252 6.14072 5.18049 7.46078 5.18049C7.73533 5.18049 7.96295 4.95287 7.96295 4.67832C7.96295 4.41137 7.7506 4.17615 7.46078 4.17615C6.13294 4.17615 5.06257 3.10465 5.06257 1.78571C5.06257 1.51116 4.83494 1.28354 4.5604 1.28354Z" fill="black"/>
<path fill-rule="evenodd" clip-rule="evenodd" d="M9.00679 4.82752C9.00679 4.21864 9.50943 3.716 10.1183 3.716C10.7272 3.716 11.2298 4.21864 11.2298 4.82752C11.2298 7.06765 13.0478 8.88846 15.3047 8.88846C15.9462 8.88846 16.4162 9.41008 16.4162 9.99997C16.4162 10.6088 15.9135 11.1115 15.3047 11.1115C13.0617 11.1115 11.2298 12.9323 11.2298 15.1863C11.2298 15.7952 10.7272 16.2978 10.1183 16.2978C9.50943 16.2978 9.00679 15.7952 9.00679 15.1863C9.00679 12.9462 7.1888 11.1254 4.93195 11.1254C4.29044 11.1254 3.82043 10.6038 3.82043 10.0139C3.82043 9.405 4.32307 8.90236 4.93195 8.90236C7.17489 8.90236 9.00679 7.08155 9.00679 4.82752ZM10.1189 6.87392C9.55288 8.30631 8.41054 9.44659 6.98151 10.0127C8.41233 10.5765 9.55204 11.7135 10.1177 13.1399C10.6837 11.7075 11.8261 10.5673 13.2551 10.0012C11.8243 9.43733 10.6846 8.30031 10.1189 6.87392Z" fill="black"/>
</g>
<defs>
<clipPath id="clip0_24997_4089">
<rect width="16" height="16" fill="white" transform="translate(0.547363 0.926758)"/>
</clipPath>
</defs>
</svg>
