<svg width="17" height="17" viewBox="0 0 17 17" fill="none" xmlns="http://www.w3.org/2000/svg">
<g clip-path="url(#clip0_24997_4103)">
<path d="M1.88232 14.6832C1.88232 8.96199 6.52083 4.32349 12.2421 4.32349C13.5067 4.32349 14.7229 4.55099 15.8372 4.96468L16.3592 3.55846C15.0796 3.08338 13.6867 2.82349 12.2421 2.82349C5.6924 2.82349 0.382324 8.13357 0.382324 14.6832H1.88232Z" fill="black"/>
<path d="M12.242 6.54544C7.74646 6.54544 4.10425 10.1877 4.10425 14.6832H2.60425C2.60425 9.35923 6.91804 5.04544 12.242 5.04544C13.4541 5.04544 14.6115 5.2709 15.6817 5.67419L15.1528 7.07784C14.2448 6.7357 13.2663 6.54544 12.242 6.54544Z" fill="black"/>
<path d="M12.242 8.76743C8.97209 8.76743 6.32617 11.4133 6.32617 14.6833H4.82617C4.82617 10.5849 8.14367 7.26743 12.242 7.26743C13.2389 7.26743 14.187 7.46696 15.0529 7.81651L14.4914 9.20746C13.7948 8.92627 13.037 8.76743 12.242 8.76743Z" fill="black"/>
</g>
<defs>
<clipPath id="clip0_24997_4103">
<rect width="16" height="16" fill="white" transform="translate(0.34375 0.926758)"/>
</clipPath>
</defs>
</svg>
