<svg width="25" height="25" viewBox="0 0 25 25" fill="none" xmlns="http://www.w3.org/2000/svg">
<path fill-rule="evenodd" clip-rule="evenodd" d="M6.50163 2.62637C5.94429 2.62637 5.48582 3.08484 5.48582 3.64218C5.48582 5.18946 4.22816 6.43971 2.68829 6.43971C2.13095 6.43971 1.67249 6.89818 1.67249 7.45552C1.67249 7.99388 2.102 8.47133 2.68829 8.47133C4.23839 8.47133 5.48582 9.72158 5.48582 11.2586C5.48582 11.816 5.94429 12.2744 6.50163 12.2744C7.05897 12.2744 7.51744 11.816 7.51744 11.2586C7.51744 9.71136 8.7751 8.46111 10.315 8.46111C10.8723 8.46111 11.3308 8.00264 11.3308 7.4453C11.3308 6.90694 10.9013 6.42949 10.315 6.42949C8.76488 6.42949 7.51744 5.17923 7.51744 3.64218C7.51744 3.08484 7.05897 2.62637 6.50163 2.62637ZM4.67278 7.45421C5.45368 7.04658 6.09483 6.40593 6.50242 5.62363C6.90962 6.40239 7.54952 7.04064 8.33048 7.44661C7.54959 7.85424 6.90844 8.49489 6.50085 9.27719C6.09364 8.49842 5.45374 7.86018 4.67278 7.45421Z" fill="black"/>
<path fill-rule="evenodd" clip-rule="evenodd" d="M14.2764 6.49298C13.5989 6.49298 13.0374 7.05445 13.0374 7.73196C13.0374 10.9273 10.4407 13.5079 7.26144 13.5079C6.58393 13.5079 6.02246 14.0694 6.02246 14.7469C6.02246 15.4054 6.54639 15.9859 7.26144 15.9859C10.4595 15.9859 13.0374 18.5666 13.0374 21.7431C13.0374 22.4206 13.5989 22.982 14.2764 22.982C14.9539 22.982 15.5154 22.4206 15.5154 21.7431C15.5154 18.5478 18.112 15.9671 21.2913 15.9671C21.9689 15.9671 22.5303 15.4056 22.5303 14.7281C22.5303 14.0696 22.0064 13.4891 21.2913 13.4891C18.0932 13.4891 15.5154 10.9084 15.5154 7.73196C15.5154 7.05445 14.9539 6.49298 14.2764 6.49298ZM9.20052 14.746C11.6562 14.0672 13.598 12.1312 14.2768 9.66807C14.9551 12.1209 16.8909 14.053 19.3523 14.729C16.8966 15.4078 14.9548 17.3438 14.2759 19.8069C13.5977 17.3541 11.6619 15.422 9.20052 14.746Z" fill="black"/>
</svg>
