<svg width="25" height="25" viewBox="0 0 25 25" fill="none" xmlns="http://www.w3.org/2000/svg">
<path d="M2.9707 21.0741C2.9707 12.9283 9.57492 6.32413 17.7207 6.32413C19.5207 6.32413 21.2524 6.64793 22.8397 7.23724L23.3617 5.83102C21.609 5.18032 19.7007 4.82413 17.7207 4.82413C8.74649 4.82413 1.4707 12.0999 1.4707 21.0741H2.9707Z" fill="black"/>
<path d="M17.7207 9.4241C11.2849 9.4241 6.07068 14.6383 6.07068 21.0741H4.57068C4.57068 13.8099 10.4565 7.9241 17.7207 7.9241C19.3746 7.9241 20.954 8.2317 22.4151 8.78227L21.8862 10.1859C20.5874 9.6965 19.1868 9.4241 17.7207 9.4241Z" fill="black"/>
<path d="M17.7207 12.5241C12.9949 12.5241 9.17065 16.3484 9.17065 21.0741H7.67065C7.67065 15.5199 12.1664 11.0241 17.7207 11.0241C19.0716 11.0241 20.3567 11.2945 21.5314 11.7687L20.9699 13.1596C19.9646 12.7538 18.8697 12.5241 17.7207 12.5241Z" fill="black"/>
</svg>
