<svg width="25" height="24" viewBox="0 0 25 24" fill="none" xmlns="http://www.w3.org/2000/svg">
<path d="M22.5221 4.35205H16.6798V6.35205H22.5221V4.35205Z" fill="black"/>
<path d="M12.2745 11.8862L6.73641 19.6479L2.7821 16.4698L6.40076 11.7393C6.40076 11.7393 4.8589 11.2988 4.6701 11.2359C1.91153 10.3968 2.81357 5.16283 5.87632 5.15234C8.54049 5.15234 14.9806 5.1943 14.9806 5.1943L15.0436 11.8128L12.2745 11.8862Z" fill="black"/>
<path d="M16.879 17.3584H22.7108V19.3584H16.879V17.3584Z" fill="black"/>
<path d="M16.879 11.5229H22.7108V12.5229H16.879V11.5229Z" fill="black"/>
<path d="M22.7108 9.37256H16.879V10.3726H22.7108V9.37256Z" fill="black"/>
<path d="M16.879 7.79932H22.7108V8.79932H16.879V7.79932Z" fill="black"/>
<path d="M22.7108 14.9316H16.879V15.9316H22.7108V14.9316Z" fill="black"/>
</svg>
