<svg width="17" height="16" viewBox="0 0 17 16" fill="none" xmlns="http://www.w3.org/2000/svg">
<path d="M11.979 2.34863H15.8734V4.34863H11.979V2.34863Z" fill="black"/>
<path d="M8.40886 8.02246L4.44771 13.5741L1.61938 11.3009L4.20764 7.91743C4.20764 7.91743 3.10482 7.60233 2.96978 7.55732C0.996703 6.95715 1.64189 3.21356 3.83253 3.20605C5.73808 3.20605 10.3444 3.23606 10.3444 3.23606L10.3894 7.96994L8.40886 8.02246Z" fill="black"/>
<path d="M15.8734 11.6514H11.986V13.6514H15.8734V11.6514Z" fill="black"/>
<path d="M15.8734 7.62012H11.986V8.62012H15.8734V7.62012Z" fill="black"/>
<path d="M11.986 6.04688H15.8734V7.04688H11.986V6.04688Z" fill="black"/>
<path d="M15.8734 10.0581H11.986V11.0581H15.8734V10.0581Z" fill="black"/>
</svg>
