<svg width="25" height="25" viewBox="0 0 25 25" fill="none" xmlns="http://www.w3.org/2000/svg">
<path d="M8.18713 8.73377C8.18713 6.58213 9.93138 4.83789 12.083 4.83789C14.2346 4.83789 15.9789 6.58213 15.9789 8.73377C15.9789 10.8854 14.2346 12.6296 12.083 12.6296C9.93138 12.6296 8.18713 10.8854 8.18713 8.73377Z" fill="black"/>
<path fill-rule="evenodd" clip-rule="evenodd" d="M23.083 12.0879C23.083 15.3074 21.6998 18.2039 19.4953 20.2156V20.3386H19.3582C17.4192 22.0497 14.8723 23.0879 12.083 23.0879C9.29367 23.0879 6.74681 22.0497 4.8078 20.3386H4.67065V20.2155C2.46616 18.2039 1.08301 15.3074 1.08301 12.0879C1.08301 6.01276 6.00788 1.08789 12.083 1.08789C18.1581 1.08789 23.083 6.01276 23.083 12.0879ZM14.6606 14.7539C16.8688 14.7539 18.7305 16.2333 19.3092 18.2552C20.727 16.5956 21.583 14.4417 21.583 12.0879C21.583 6.84119 17.3297 2.58789 12.083 2.58789C6.8363 2.58789 2.58301 6.84119 2.58301 12.0879C2.58301 14.4417 3.43905 16.5956 4.85679 18.2552C5.43546 16.2332 7.29722 14.7539 9.50535 14.7539H14.6606Z" fill="black"/>
</svg>
