<svg width="25" height="25" viewBox="0 0 25 25" fill="none" xmlns="http://www.w3.org/2000/svg">
<path fill-rule="evenodd" clip-rule="evenodd" d="M8.18713 8.73377C8.18713 6.58213 9.93138 4.83789 12.083 4.83789C14.2346 4.83789 15.9789 6.58213 15.9789 8.73377C15.9789 10.8854 14.2346 12.6296 12.083 12.6296C9.93138 12.6296 8.18713 10.8854 8.18713 8.73377ZM12.083 6.33789C10.7598 6.33789 9.68713 7.41056 9.68713 8.73377C9.68713 10.057 10.7598 11.1296 12.083 11.1296C13.4062 11.1296 14.4789 10.057 14.4789 8.73377C14.4789 7.41056 13.4062 6.33789 12.083 6.33789Z" fill="black"/>
<path fill-rule="evenodd" clip-rule="evenodd" d="M19.4953 20.2156C21.6998 18.2039 23.083 15.3074 23.083 12.0879C23.083 6.01276 18.1581 1.08789 12.083 1.08789C6.00788 1.08789 1.08301 6.01276 1.08301 12.0879C1.08301 15.3074 2.46616 18.2039 4.67065 20.2155V20.3386H4.8078C6.74681 22.0497 9.29367 23.0879 12.083 23.0879C14.8723 23.0879 17.4192 22.0497 19.3582 20.3386H19.4953V20.2156ZM17.9947 19.5249C16.3723 20.8162 14.3178 21.5879 12.083 21.5879C9.84822 21.5879 7.79367 20.8162 6.17125 19.5248C6.20522 17.712 7.6844 16.2539 9.50535 16.2539H14.6606C16.4816 16.2539 17.9608 17.712 17.9947 19.5249ZM19.3092 18.2552C18.7305 16.2333 16.8688 14.7539 14.6606 14.7539H9.50535C7.29722 14.7539 5.43546 16.2332 4.85679 18.2552C3.43905 16.5956 2.58301 14.4417 2.58301 12.0879C2.58301 6.84119 6.8363 2.58789 12.083 2.58789C17.3297 2.58789 21.583 6.84119 21.583 12.0879C21.583 14.4417 20.727 16.5956 19.3092 18.2552Z" fill="black"/>
</svg>
