<svg width="25" height="25" viewBox="0 0 25 25" fill="none" xmlns="http://www.w3.org/2000/svg">
<path d="M21.5026 13.3306L22.99 13.5246C23.0514 13.0544 23.083 12.5748 23.083 12.0879C23.083 11.601 23.0514 11.1214 22.99 10.6512L21.5026 10.8452C21.5556 11.2513 21.583 11.666 21.583 12.0879C21.583 12.5098 21.5556 12.9245 21.5026 13.3306Z" fill="black"/>
<path d="M20.8627 8.4518L22.2483 7.87722C21.8775 6.98295 21.3921 6.14819 20.8104 5.39126L19.621 6.30525C20.1237 6.95944 20.5428 7.68029 20.8627 8.4518Z" fill="black"/>
<path d="M17.8656 4.54988L18.7796 3.3605C18.0227 2.77883 17.1879 2.29342 16.2937 1.92258L15.7191 3.30817C16.4906 3.6281 17.2115 4.04716 17.8656 4.54988Z" fill="black"/>
<path d="M13.3257 2.66826L13.5197 1.18087C13.0495 1.11953 12.5699 1.08789 12.083 1.08789C11.5961 1.08789 11.1165 1.11953 10.6463 1.18087L10.8403 2.66827C11.2464 2.6153 11.6611 2.58789 12.083 2.58789C12.5049 2.58789 12.9196 2.6153 13.3257 2.66826Z" fill="black"/>
<path d="M8.44692 3.30817L7.87234 1.92258C6.97807 2.29342 6.14331 2.77883 5.38638 3.3605L6.30037 4.54988C6.95456 4.04716 7.67541 3.6281 8.44692 3.30817Z" fill="black"/>
<path d="M4.54499 6.30526L3.35561 5.39127C2.77394 6.1482 2.28853 6.98295 1.91769 7.87722L3.30328 8.45181C3.62322 7.68029 4.04228 6.95944 4.54499 6.30526Z" fill="black"/>
<path d="M1.08301 12.0879C1.08301 11.601 1.11465 11.1214 1.17598 10.6512L2.66338 10.8452C2.61042 11.2513 2.58301 11.666 2.58301 12.0879C2.58301 12.5098 2.61042 12.9245 2.66338 13.3306L1.17598 13.5246C1.11465 13.0544 1.08301 12.5748 1.08301 12.0879Z" fill="black"/>
<path d="M3.30328 15.724L1.91769 16.2986C2.28853 17.1928 2.77394 18.0276 3.35562 18.7845L4.54499 17.8705C4.04228 17.2163 3.62322 16.4955 3.30328 15.724Z" fill="black"/>
<path d="M5.40904 20.8327C5.28732 20.7482 5.11879 20.6364 4.96138 20.532C4.85332 20.4603 4.7505 20.3921 4.67164 20.3386L4.67065 20.3379C4.66943 20.3371 4.66821 20.3363 4.66699 20.3354L4.67065 20.3325V19.5886C4.67065 16.9179 6.83467 14.7539 9.50535 14.7539H14.6606C17.3313 14.7539 19.4953 16.9179 19.4953 19.5886V20.3347L19.4962 20.3354L19.4953 20.336V20.3386H19.4916C19.4128 20.392 19.3101 20.4602 19.2022 20.5318C19.0554 20.6291 18.8987 20.7331 18.7795 20.8151C18.0226 21.3968 17.1879 21.8824 16.2937 22.2532L15.7191 20.8676C16.4866 20.5493 17.2039 20.133 17.8554 19.6338L17.8556 19.6323C17.9109 19.5908 17.9568 19.5415 17.9939 19.4913C17.9425 17.6941 16.4703 16.2539 14.6606 16.2539H9.50535C7.69445 16.2539 6.22155 17.696 6.17195 19.4949C6.20688 19.5415 6.24934 19.5872 6.29994 19.6265C6.95412 20.1292 7.67541 20.5477 8.44692 20.8676L7.87234 22.2532C6.98698 21.8861 6.15996 21.4066 5.40904 20.8327Z" fill="black"/>
<path d="M10.8403 21.5075L10.6463 22.9949C11.1165 23.0562 11.5961 23.0879 12.083 23.0879C12.5699 23.0879 13.0495 23.0562 13.5197 22.9949L13.3257 21.5075C12.9196 21.5605 12.5049 21.5879 12.083 21.5879C11.6611 21.5879 11.2464 21.5605 10.8403 21.5075Z" fill="black"/>
<path d="M19.621 17.8705L20.8104 18.7845C21.3921 18.0276 21.8775 17.1928 22.2483 16.2986L20.8627 15.724C20.5428 16.4955 20.1237 17.2163 19.621 17.8705Z" fill="black"/>
<path fill-rule="evenodd" clip-rule="evenodd" d="M8.18713 8.73377C8.18713 6.58213 9.93138 4.83789 12.083 4.83789C14.2346 4.83789 15.9789 6.58213 15.9789 8.73377C15.9789 10.8854 14.2346 12.6296 12.083 12.6296C9.93138 12.6296 8.18713 10.8854 8.18713 8.73377ZM12.083 6.33789C10.7598 6.33789 9.68713 7.41056 9.68713 8.73377C9.68713 10.057 10.7598 11.1296 12.083 11.1296C13.4062 11.1296 14.4789 10.057 14.4789 8.73377C14.4789 7.41056 13.4062 6.33789 12.083 6.33789Z" fill="black"/>
</svg>
