<svg width="17" height="17" viewBox="0 0 17 17" fill="none" xmlns="http://www.w3.org/2000/svg">
<path d="M5.2688 6.9173C5.2688 5.36302 6.52879 4.10303 8.08307 4.10303C9.63735 4.10303 10.8973 5.36302 10.8973 6.9173C10.8973 8.47157 9.63735 9.73157 8.08307 9.73157C6.52879 9.73157 5.2688 8.47157 5.2688 6.9173Z" fill="black"/>
<path fill-rule="evenodd" clip-rule="evenodd" d="M8.08301 15.0879C11.949 15.0879 15.083 11.9539 15.083 8.08789C15.083 4.2219 11.949 1.08789 8.08301 1.08789C4.21701 1.08789 1.08301 4.2219 1.08301 8.08789C1.08301 11.9539 4.21701 15.0879 8.08301 15.0879ZM11.4678 10.8129C11.7822 11.0442 12.0529 11.3479 12.2237 11.708C13.0701 10.7407 13.583 9.47419 13.583 8.08789C13.583 5.05032 11.1206 2.58789 8.08301 2.58789C5.04544 2.58789 2.58301 5.05032 2.58301 8.08789C2.58301 9.47423 3.09593 10.7408 3.94235 11.7081C4.11322 11.3479 4.38385 11.0442 4.69835 10.8129C5.2376 10.4163 5.94648 10.1938 6.6965 10.1938H9.46961C10.2196 10.1938 10.9285 10.4163 11.4678 10.8129Z" fill="black"/>
</svg>
