<svg width="17" height="17" viewBox="0 0 17 17" fill="none" xmlns="http://www.w3.org/2000/svg">
<path fill-rule="evenodd" clip-rule="evenodd" d="M8.08301 15.0879C11.949 15.0879 15.083 11.9539 15.083 8.08789C15.083 4.2219 11.949 1.08789 8.08301 1.08789C4.21701 1.08789 1.08301 4.2219 1.08301 8.08789C1.08301 11.9539 4.21701 15.0879 8.08301 15.0879ZM8.08302 5.31614C8.63092 5.31614 9.07507 4.87198 9.07507 4.32408C9.07507 3.77619 8.63092 3.33203 8.08302 3.33203C7.53512 3.33203 7.09097 3.77619 7.09097 4.32408C7.09097 4.87198 7.53512 5.31614 8.08302 5.31614ZM4.51062 6.14792C5.22904 6.14792 7.22836 6.14543 8.08091 6.13788L8.08301 6.13786L8.08511 6.13788C8.93765 6.14543 10.937 6.14792 11.6554 6.14792C12.5549 6.14792 12.433 6.98675 11.837 7.1398C11.2721 7.28486 10.4119 7.46863 9.85512 7.58759L9.85508 7.5876L9.76606 7.60662C9.78553 7.92917 9.81019 8.32615 9.83675 8.75376L9.83682 8.75482L9.83689 8.7559L9.83696 8.75703C9.92945 10.2459 10.0449 12.1047 10.0449 12.4865C10.0449 13.1014 9.2855 13.1566 9.16042 12.6295C9.13565 12.5251 9.08921 12.303 9.03368 12.0374L9.03365 12.0373L9.03365 12.0372L9.03363 12.0372L9.03362 12.0371C8.92319 11.509 8.77684 10.809 8.69352 10.5212C8.59375 10.1766 8.24468 10.1121 8.08301 10.1115C7.92133 10.1121 7.57226 10.1766 7.4725 10.5212C7.38917 10.8091 7.2428 11.5091 7.13236 12.0373C7.07682 12.3029 7.03037 12.5251 7.0056 12.6295C6.88052 13.1566 6.1211 13.1014 6.1211 12.4865C6.1211 12.1047 6.23656 10.246 6.32906 8.75707C6.3557 8.3282 6.38043 7.93 6.39996 7.60662L6.31093 7.5876L6.31088 7.58759C5.75407 7.46862 4.89395 7.28486 4.329 7.1398C3.73297 6.98675 3.61112 6.14792 4.51062 6.14792Z" fill="black"/>
</svg>
