<svg width="17" height="17" viewBox="0 0 17 17" fill="none" xmlns="http://www.w3.org/2000/svg">
<path fill-rule="evenodd" clip-rule="evenodd" d="M5.2688 6.9173C5.2688 5.36302 6.52879 4.10303 8.08307 4.10303C9.63735 4.10303 10.8973 5.36302 10.8973 6.9173C10.8973 8.47157 9.63735 9.73157 8.08307 9.73157C6.52879 9.73157 5.2688 8.47157 5.2688 6.9173ZM8.08307 5.60303C7.35722 5.60303 6.7688 6.19145 6.7688 6.9173C6.7688 7.64315 7.35722 8.23157 8.08307 8.23157C8.80892 8.23157 9.39734 7.64315 9.39734 6.9173C9.39734 6.19145 8.80892 5.60303 8.08307 5.60303Z" fill="black"/>
<path fill-rule="evenodd" clip-rule="evenodd" d="M15.083 8.08789C15.083 11.9539 11.949 15.0879 8.08301 15.0879C4.21701 15.0879 1.08301 11.9539 1.08301 8.08789C1.08301 4.2219 4.21701 1.08789 8.08301 1.08789C11.949 1.08789 15.083 4.2219 15.083 8.08789ZM10.9168 12.8026C10.0892 13.3011 9.1196 13.5879 8.08301 13.5879C7.04646 13.5879 6.07688 13.3011 5.24927 12.8027V12.5599C5.24927 12.4088 5.33086 12.2097 5.58707 12.0213C5.84299 11.833 6.23272 11.6938 6.6965 11.6938H9.46961C9.93339 11.6938 10.3231 11.833 10.579 12.0213C10.8352 12.2097 10.9168 12.4088 10.9168 12.5599V12.8026ZM12.2237 11.708C12.0529 11.3479 11.7822 11.0442 11.4678 10.8129C10.9285 10.4163 10.2196 10.1938 9.46961 10.1938H6.6965C5.94648 10.1938 5.2376 10.4163 4.69835 10.8129C4.38385 11.0442 4.11322 11.3479 3.94235 11.7081C3.09593 10.7408 2.58301 9.47423 2.58301 8.08789C2.58301 5.05032 5.04544 2.58789 8.08301 2.58789C11.1206 2.58789 13.583 5.05032 13.583 8.08789C13.583 9.47419 13.0701 10.7407 12.2237 11.708Z" fill="black"/>
</svg>
