<svg width="25" height="25" viewBox="0 0 25 25" fill="none" xmlns="http://www.w3.org/2000/svg">
<path fill-rule="evenodd" clip-rule="evenodd" d="M12.083 22.0879C17.6059 22.0879 22.083 17.6107 22.083 12.0879C22.083 6.56504 17.6059 2.08789 12.083 2.08789C6.56016 2.08789 2.08301 6.56504 2.08301 12.0879C2.08301 17.6107 6.56016 22.0879 12.083 22.0879ZM12.083 8.12789C12.8657 8.12789 13.5002 7.49338 13.5002 6.71068C13.5002 5.92797 12.8657 5.29346 12.083 5.29346C11.3003 5.29346 10.6658 5.92797 10.6658 6.71068C10.6658 7.49338 11.3003 8.12789 12.083 8.12789ZM6.97957 9.31592C8.00588 9.31592 10.8621 9.31237 12.08 9.30157L12.083 9.30155L12.086 9.30157C13.3039 9.31237 16.1601 9.31592 17.1864 9.31592C18.4714 9.31592 18.2973 10.5142 17.4458 10.7329C16.6388 10.9401 15.4099 11.2027 14.6145 11.3726L14.4873 11.3998C14.5152 11.8617 14.5506 12.4304 14.5886 13.043L14.5886 13.0432L14.5886 13.0434C14.7208 15.1703 14.8857 17.8256 14.8857 18.3711C14.8857 19.2494 13.8008 19.3283 13.6221 18.5753C13.5868 18.4263 13.5205 18.1093 13.4412 17.7303L13.4412 17.7298L13.4411 17.7294L13.441 17.7293C13.2833 16.9748 13.0742 15.9747 12.9551 15.5634C12.8126 15.0711 12.314 14.979 12.083 14.9782C11.852 14.979 11.3533 15.0711 11.2108 15.5634C11.0918 15.9747 10.8827 16.9748 10.7249 17.7293L10.7249 17.7294L10.7248 17.7298L10.7247 17.7303C10.6454 18.1093 10.5792 18.4263 10.5438 18.5753C10.3651 19.3283 9.28025 19.2494 9.28025 18.3711C9.28025 17.8255 9.4452 15.1703 9.57733 13.0433L9.5774 13.0421L9.57745 13.0413C9.61547 12.4294 9.65076 11.8612 9.67861 11.3998L9.55145 11.3726L9.55137 11.3726C8.75592 11.2026 7.52717 10.9401 6.72011 10.7329C5.86864 10.5142 5.69457 9.31592 6.97957 9.31592Z" fill="black"/>
</svg>
