<svg width="17" height="17" viewBox="0 0 17 17" fill="none" xmlns="http://www.w3.org/2000/svg">
<path d="M13.4783 9.16292L14.9498 9.45402C15.0372 9.01218 15.083 8.55539 15.083 8.08789C15.083 7.62039 15.0372 7.1636 14.9498 6.72176L13.4783 7.01286C13.5468 7.35935 13.583 7.71865 13.583 8.08789C13.583 8.45713 13.5468 8.81643 13.4783 9.16292Z" fill="black"/>
<path d="M12.6575 5.03306L13.904 4.19858C13.3929 3.43522 12.7357 2.77799 11.9723 2.26693L11.1378 3.51339C11.7383 3.91536 12.2555 4.43263 12.6575 5.03306Z" fill="black"/>
<path d="M9.15804 2.69261L9.44914 1.22113C9.0073 1.13372 8.55051 1.08789 8.08301 1.08789C7.61551 1.08789 7.15872 1.13372 6.71687 1.22113L7.00798 2.69261C7.35446 2.62407 7.71377 2.58789 8.08301 2.58789C8.45225 2.58789 8.81155 2.62407 9.15804 2.69261Z" fill="black"/>
<path d="M5.02818 3.51339L4.1937 2.26693C3.43034 2.77799 2.77311 3.43522 2.26205 4.19858L3.5085 5.03306C3.91048 4.43263 4.42775 3.91536 5.02818 3.51339Z" fill="black"/>
<path d="M1.08301 8.08789C1.08301 7.62039 1.12884 7.1636 1.21625 6.72176L2.68773 7.01286C2.61918 7.35935 2.58301 7.71865 2.58301 8.08789C2.58301 8.45713 2.61918 8.81643 2.68773 9.16292L1.21625 9.45402C1.12884 9.01218 1.08301 8.55539 1.08301 8.08789Z" fill="black"/>
<path d="M3.5085 11.1427L2.26205 11.9772C2.76086 12.7223 3.39893 13.3662 4.13901 13.8719L4.14074 13.8791C4.35122 14.0139 5.24835 14.4798 5.24835 14.4798V13.3099L5.24927 12.5599C5.24927 12.4088 5.33086 12.2097 5.58707 12.0213C5.84299 11.833 6.23272 11.6938 6.6965 11.6938H9.46961C9.93339 11.6938 10.3231 11.833 10.579 12.0213C10.8352 12.2097 10.9168 12.4088 10.9168 12.5599V13.0098H10.9142V14.4798C10.9142 14.4798 11.8114 14.0139 12.0219 13.8791L12.0229 13.8746C12.7647 13.3686 13.4042 12.7236 13.904 11.9772L12.6575 11.1427C12.5251 11.3406 12.3801 11.5294 12.2237 11.708C12.0529 11.3479 11.7822 11.0442 11.4678 10.8129C10.9285 10.4163 10.2196 10.1938 9.46961 10.1938H6.6965C5.94648 10.1938 5.2376 10.4163 4.69835 10.8129C4.38384 11.0442 4.11321 11.3479 3.94234 11.7081C3.78597 11.5294 3.64098 11.3406 3.5085 11.1427Z" fill="black"/>
<path d="M7.00798 13.4832L6.71687 14.9547C7.15872 15.0421 7.61551 15.0879 8.08301 15.0879C8.55051 15.0879 9.0073 15.0421 9.44914 14.9547L9.15804 13.4832C8.81155 13.5517 8.45225 13.5879 8.08301 13.5879C7.71377 13.5879 7.35446 13.5517 7.00798 13.4832Z" fill="black"/>
<path fill-rule="evenodd" clip-rule="evenodd" d="M5.2688 6.9173C5.2688 5.36302 6.52879 4.10303 8.08307 4.10303C9.63735 4.10303 10.8973 5.36302 10.8973 6.9173C10.8973 8.47157 9.63735 9.73157 8.08307 9.73157C6.52879 9.73157 5.2688 8.47157 5.2688 6.9173ZM8.08307 5.60303C7.35722 5.60303 6.7688 6.19145 6.7688 6.9173C6.7688 7.64315 7.35722 8.23157 8.08307 8.23157C8.80892 8.23157 9.39734 7.64315 9.39734 6.9173C9.39734 6.19145 8.80892 5.60303 8.08307 5.60303Z" fill="black"/>
</svg>
