<svg width="25" height="24" viewBox="0 0 25 24" fill="none" xmlns="http://www.w3.org/2000/svg">
<path fill-rule="evenodd" clip-rule="evenodd" d="M12.3176 1.52345C12.827 1.72752 13.2369 2.03593 13.6115 2.41058L21.6815 10.4806C22.128 10.9271 22.5845 11.4676 22.7444 12.0977C22.929 12.8253 22.6866 13.5061 22.1015 14.0912L18.5772 17.6155L18.5715 17.6213L15.0415 21.1513C14.4564 21.7364 13.7756 21.9788 13.048 21.7942C12.4179 21.6343 11.8774 21.1778 11.4308 20.7313L3.36084 12.6613C2.9862 12.2867 2.67778 11.8768 2.47371 11.3674C2.27073 10.8608 2.19014 10.3036 2.20126 9.65887C2.22114 8.33138 2.22117 6.42041 2.21617 4.83709C2.21367 4.04614 2.20993 3.33846 2.2068 2.82854C2.20524 2.57359 2.20384 2.3681 2.20282 2.2264L2.20119 2.00698C2.20068 1.94339 2.2081 1.88159 2.22252 1.82252C2.30311 1.49212 2.60323 1.2481 2.95805 1.25094L3.1766 1.25257C3.3183 1.25358 3.52378 1.25499 3.77873 1.25655C4.28865 1.25967 4.99632 1.26341 5.78728 1.26591C7.37059 1.27091 9.28156 1.27088 10.6091 1.25101C11.2538 1.23988 11.8109 1.32047 12.3176 1.52345ZM9.41827 6.59099C9.41827 7.6277 8.57784 8.46812 7.54113 8.46812C6.50443 8.46812 5.66406 7.6277 5.66406 6.59099C5.66406 5.55428 6.50443 4.71387 7.54113 4.71387C8.57784 4.71387 9.41827 5.55428 9.41827 6.59099Z" fill="#10181B"/>
</svg>
