<svg width="17" height="16" viewBox="0 0 17 16" fill="none" xmlns="http://www.w3.org/2000/svg">
<path fill-rule="evenodd" clip-rule="evenodd" d="M8.44506 1.26135C8.80853 1.40674 9.09605 1.62534 9.35058 1.87987L14.4255 6.95474C14.7053 7.23981 15.0372 7.62506 15.1562 8.09666C15.3 8.66648 15.1016 9.18954 14.6806 9.61053L12.4606 11.8305L12.4526 11.8383L10.2406 14.0504C9.81961 14.4714 9.29655 14.6698 8.72674 14.526C8.25512 14.407 7.86988 14.0752 7.5848 13.7953C7.14394 13.3624 4.44045 10.6542 3.15508 9.36652L2.50996 8.72041C2.25543 8.46588 2.03682 8.17836 1.89143 7.81489C1.74719 7.45431 1.69439 7.06756 1.70034 6.63966L1.70038 6.63669C1.71523 5.80559 1.71527 4.60778 1.71152 3.61291C1.70965 3.1165 1.70684 2.67241 1.7045 2.35244L1.7003 1.83724C1.69825 1.62319 1.78608 1.42923 1.92861 1.29122C2.06613 1.15301 2.2571 1.06822 2.46746 1.07023L2.98263 1.07444C3.3026 1.07678 3.74669 1.07958 4.2431 1.08145C5.23798 1.0852 6.43579 1.08516 7.26688 1.07032L7.26986 1.07027C7.69775 1.06433 8.08449 1.11711 8.44506 1.26135ZM6.92999 4.91002C6.92999 5.67203 6.31224 6.28976 5.55023 6.28976C4.78822 6.28976 4.17053 5.67203 4.17053 4.91002C4.17053 4.14801 4.78822 3.53027 5.55023 3.53027C6.31224 3.53027 6.92999 4.14801 6.92999 4.91002Z" fill="#10181B"/>
</svg>
