<svg width="25" height="25" viewBox="0 0 25 25" fill="none" xmlns="http://www.w3.org/2000/svg">
<path d="M2.81665 2.02783V6.52783H4.31665V3.52783H6.31665V2.02783H2.81665Z" fill="black"/>
<path d="M10.3167 2.02783H15.3167V3.52783H10.3167V2.02783Z" fill="black"/>
<path d="M19.3167 3.52783V2.02783H22.8167V6.52783H21.3167V3.52783H19.3167Z" fill="black"/>
<path d="M21.3167 17.5278H22.8167V22.0278H19.3167V20.5278H21.3167V17.5278Z" fill="black"/>
<path d="M15.3167 20.5278V22.0278H10.3167V20.5278H15.3167Z" fill="black"/>
<path d="M6.31665 20.5278V22.0278H2.81665V17.5278H4.31665V20.5278H6.31665Z" fill="black"/>
<path fill-rule="evenodd" clip-rule="evenodd" d="M22.8388 7.98328H2.79443V16.0723H22.8388V7.98328ZM21.3388 9.52783H21.3167V14.5278H21.3388V14.5723H4.29443V14.5278H4.31665V9.52783H4.29443V9.48328H21.3388V9.52783Z" fill="black"/>
</svg>
