<svg width="25" height="25" viewBox="0 0 25 25" fill="none" xmlns="http://www.w3.org/2000/svg">
<path fill-rule="evenodd" clip-rule="evenodd" d="M6.62744 7.0252C6.62744 6.64136 6.9386 6.3302 7.32244 6.3302H12.6689C13.0527 6.3302 13.3639 6.64136 13.3639 7.0252V9.37524H18.3108C18.6947 9.37524 19.0058 9.68641 19.0058 10.0702V17.0304C19.0058 17.4143 18.6947 17.7254 18.3108 17.7254H11.3506C10.9668 17.7254 10.6556 17.4143 10.6556 17.0304V13.0666H7.32244C6.9386 13.0666 6.62744 12.7555 6.62744 12.3716V7.0252ZM11.9739 7.7202V9.37524H11.3506C10.9668 9.37524 10.6556 9.68641 10.6556 10.0702V11.6766H8.01744V7.7202H11.9739ZM12.0456 10.7652V16.3354H17.6158V10.7652H12.0456Z" fill="black"/>
<path fill-rule="evenodd" clip-rule="evenodd" d="M2.79395 2.00781H5.79395V3.08752H19.8116V2.02344H22.8116V5.02344H22.1573V18.9878H22.829V21.9878H19.829V20.9682H5.81152V21.9878H2.81152V18.9878H3.47607V5.00781H2.79395V2.00781ZM4.86607 5.00781V18.9878H5.81152V19.5782H19.829V18.9878H20.7673V5.02344H19.8116V4.47752H5.79395V5.00781H4.86607Z" fill="black"/>
</svg>
