<svg width="25" height="25" viewBox="0 0 25 25" fill="none" xmlns="http://www.w3.org/2000/svg">
<path fill-rule="evenodd" clip-rule="evenodd" d="M2.81665 1.02783H16.7367V14.9478H2.81665V1.02783ZM4.31665 2.52783V13.4478H15.2367V2.52783H4.31665Z" fill="black"/>
<path d="M11.9667 16.7678V18.1578H10.4667V16.7678H11.9667Z" fill="black"/>
<path d="M8.13666 18.1578V16.7678H6.63666V18.1578H8.13666Z" fill="black"/>
<path d="M4.31665 16.7678V18.1578H2.81665V16.7678H4.31665Z" fill="black"/>
<path d="M11.9667 22.1378V20.7378H10.4667V22.1378H11.9667Z" fill="black"/>
<path d="M8.13666 20.7378V22.1378H6.63666V20.7378H8.13666Z" fill="black"/>
<path d="M4.31665 22.1378V20.7378H2.81665V22.1378H4.31665Z" fill="black"/>
<path d="M15.7866 16.7678V18.1578H14.2866V16.7678H15.7866Z" fill="black"/>
<path d="M15.7866 22.1378V20.7378H14.2866V22.1378H15.7866Z" fill="black"/>
<path d="M23.4366 8.95789V10.3579H21.9366V8.95789H23.4366Z" fill="black"/>
<path d="M19.6166 10.3579V8.95789H18.1166V10.3579H19.6166Z" fill="black"/>
<path d="M23.4366 12.9379V14.3379H21.9366V12.9379H23.4366Z" fill="black"/>
<path d="M19.6166 14.3379V12.9379H18.1166V14.3379H19.6166Z" fill="black"/>
<path d="M23.4366 16.7678V18.1578H21.9366V16.7678H23.4366Z" fill="black"/>
<path d="M19.6166 18.1578V16.7678H18.1166V18.1578H19.6166Z" fill="black"/>
<path d="M23.4366 20.7378V22.1378H21.9366V20.7378H23.4366Z" fill="black"/>
<path d="M19.6166 22.1378V20.7378H18.1166V22.1378H19.6166Z" fill="black"/>
<path d="M23.4366 5.13782V6.53782H21.9366V5.13782H23.4366Z" fill="black"/>
<path d="M19.6166 6.53782V5.13782H18.1166V6.53782H19.6166Z" fill="black"/>
<path d="M23.4366 1.31787V2.70787H21.9366V1.31787H23.4366Z" fill="black"/>
<path d="M19.6166 2.70787V1.31787H18.1166V2.70787H19.6166Z" fill="black"/>
</svg>
