<svg width="25" height="25" viewBox="0 0 25 25" fill="none" xmlns="http://www.w3.org/2000/svg">
<path d="M22.1266 3.52783H17.8167V2.02783H23.6266V22.9778H2.81665V18.2778H4.31665V21.4778H22.1266V3.52783Z" fill="black"/>
<path d="M12.6367 10.0378V11.4978H11.1367V10.0378H12.6367Z" fill="black"/>
<path d="M8.63666 11.4978V10.0378H7.13666V11.4978H8.63666Z" fill="black"/>
<path d="M4.63666 10.0378V11.4978H3.13666V10.0378H4.63666Z" fill="black"/>
<path d="M12.6367 15.6579V14.1979H11.1367V15.6579H12.6367Z" fill="black"/>
<path d="M8.63666 14.1979V15.6579H7.13666V14.1979H8.63666Z" fill="black"/>
<path d="M4.63666 15.6579V14.1979H3.13666V15.6579H4.63666Z" fill="black"/>
<path d="M12.6367 6.03784V7.49784H11.1367V6.03784H12.6367Z" fill="black"/>
<path d="M8.63666 7.49784V6.03784H7.13666V7.49784H8.63666Z" fill="black"/>
<path d="M4.63666 6.03784V7.49784H3.13666V6.03784H4.63666Z" fill="black"/>
<path d="M12.6367 3.49783V2.02783H11.1367V3.49783H12.6367Z" fill="black"/>
<path d="M16.6367 10.0378V11.4978H15.1367V10.0378H16.6367Z" fill="black"/>
<path d="M16.6367 15.6579V14.1979H15.1367V15.6579H16.6367Z" fill="black"/>
<path d="M16.6367 6.03784V7.49784H15.1367V6.03784H16.6367Z" fill="black"/>
<path d="M16.6367 3.49783V2.02783H15.1367V3.49783H16.6367Z" fill="black"/>
<path d="M8.63666 2.02783V3.49783H7.13666V2.02783H8.63666Z" fill="black"/>
<path d="M4.63666 3.49783V2.02783H3.13666V3.49783H4.63666Z" fill="black"/>
</svg>
