<svg width="17" height="17" viewBox="0 0 17 17" fill="none" xmlns="http://www.w3.org/2000/svg">
<g clip-path="url(#clip0_24997_4385)">
<path fill-rule="evenodd" clip-rule="evenodd" d="M1.57587 0.786987H11.5085V10.7196H1.57587V0.786987ZM3.07587 2.28699V9.21958H10.0085V2.28699H3.07587Z" fill="black"/>
<path d="M8.26984 11.7146V12.6583H6.76984V11.7146H8.26984Z" fill="black"/>
<path d="M5.66943 12.6583V11.7146H4.16943V12.6583H5.66943Z" fill="black"/>
<path d="M3.07587 11.7146V12.6583H1.57587V11.7146H3.07587Z" fill="black"/>
<path d="M8.26984 15.3606V14.41H6.76984V15.3606H8.26984Z" fill="black"/>
<path d="M5.66943 14.41V15.3606H4.16943V14.41H5.66943Z" fill="black"/>
<path d="M3.07587 15.3606V14.41H1.57587V15.3606H3.07587Z" fill="black"/>
<path d="M10.8635 11.7146V12.6583H9.36346V11.7146H10.8635Z" fill="black"/>
<path d="M10.8635 15.3606V14.41H9.36346V15.3606H10.8635Z" fill="black"/>
<path d="M16.0574 6.41187V7.3624H14.5574V6.41187H16.0574Z" fill="black"/>
<path d="M13.4639 7.3624V6.41187H11.9639V7.3624H13.4639Z" fill="black"/>
<path d="M16.0574 9.11414V10.0647H14.5574V9.11414H16.0574Z" fill="black"/>
<path d="M13.4639 10.0647V9.11414H11.9639V10.0647H13.4639Z" fill="black"/>
<path d="M16.0574 11.7146V12.6583H14.5574V11.7146H16.0574Z" fill="black"/>
<path d="M13.4639 12.6583V11.7146H11.9639V12.6583H13.4639Z" fill="black"/>
<path d="M16.0574 14.41V15.3606H14.5574V14.41H16.0574Z" fill="black"/>
<path d="M13.4639 15.3606V14.41H11.9639V15.3606H13.4639Z" fill="black"/>
<path d="M16.0574 3.81836V4.76889H14.5574V3.81836H16.0574Z" fill="black"/>
<path d="M13.4639 4.76889V3.81836H11.9639V4.76889H13.4639Z" fill="black"/>
<path d="M16.0574 1.22473V2.16848H14.5574V1.22473H16.0574Z" fill="black"/>
<path d="M13.4639 2.16848V1.22473H11.9639V2.16848H13.4639Z" fill="black"/>
</g>
<defs>
<clipPath id="clip0_24997_4385">
<rect width="16" height="16" fill="white" transform="translate(0.81665 0.027832)"/>
</clipPath>
</defs>
</svg>
