<svg width="17" height="17" viewBox="0 0 17 17" fill="none" xmlns="http://www.w3.org/2000/svg">
<g clip-path="url(#clip0_24997_4435)">
<path d="M14.5621 2.28235H12.908V0.782349H16.0621V15.3674H1.57123V12.2278H3.07123V13.8674H14.5621V2.28235Z" fill="black"/>
<path d="M8.48645 6.41663V7.39885H6.98645V6.41663H8.48645Z" fill="black"/>
<path d="M5.88654 7.39885V6.41663H4.38654V7.39885H5.88654Z" fill="black"/>
<path d="M3.2865 6.41663V7.39885H1.7865V6.41663H3.2865Z" fill="black"/>
<path d="M8.48645 10.1974V9.21521H6.98645V10.1974H8.48645Z" fill="black"/>
<path d="M5.88654 9.21521V10.1974H4.38654V9.21521H5.88654Z" fill="black"/>
<path d="M3.2865 10.1974V9.21521H1.7865V10.1974H3.2865Z" fill="black"/>
<path d="M8.48645 3.72559V4.70781H6.98645V3.72559H8.48645Z" fill="black"/>
<path d="M5.88654 4.70781V3.72559H4.38654V4.70781H5.88654Z" fill="black"/>
<path d="M3.2865 3.72559V4.70781H1.7865V3.72559H3.2865Z" fill="black"/>
<path d="M8.48645 2.01678V1.02783H6.98645V2.01678H8.48645Z" fill="black"/>
<path d="M11.0865 6.41663V7.39885H9.58649V6.41663H11.0865Z" fill="black"/>
<path d="M11.0865 10.1974V9.21521H9.58649V10.1974H11.0865Z" fill="black"/>
<path d="M11.0865 3.72559V4.70781H9.58649V3.72559H11.0865Z" fill="black"/>
<path d="M11.0865 2.01678V1.02783H9.58649V2.01678H11.0865Z" fill="black"/>
<path d="M5.88654 1.02783V2.01678H4.38654V1.02783H5.88654Z" fill="black"/>
<path d="M3.2865 2.01678V1.02783H1.7865V2.01678H3.2865Z" fill="black"/>
</g>
<defs>
<clipPath id="clip0_24997_4435">
<rect width="16" height="16" fill="white" transform="translate(0.81665 0.027832)"/>
</clipPath>
</defs>
</svg>
