<?xml version="1.0" encoding="UTF-8"?>
<svg id="Layer_1" data-name="Layer 1" xmlns="http://www.w3.org/2000/svg" viewBox="0 0 1138.87 239.2">
  <defs>
    <style>
      .cls-1 {
        fill: #0050ff;
      }
    </style>
  </defs>
  <g>
    <path class="cls-1" d="M378.14,177.33c-6.85,10.52-23,18.35-44.28,18.35-46.23,0-80.23-31.7-80.23-84.54s34.73-91.49,83.66-91.49c38.4,0,63.6,20.31,74.37,52.6l-38.9,12.48c-3.91-18.84-16.63-29.6-35.23-29.6-25.44,0-43.05,22.01-43.05,55.52s17.62,50.54,43.79,50.54c20.06,0,33.51-8.46,35.71-26.57h-38.89v-33.51h79.26v91.88h-36.2v-15.66h-.01Z"/>
    <path class="cls-1" d="M466.29,192.99h-39.14V22.34h39.14v170.65h0Z"/>
    <path class="cls-1" d="M496.89,237.76c-6.84,0-10.27-.25-14.67-.74v-31.06c3.42.49,5.87.74,9.78.74,8.32,0,13.46-2.21,16.88-11.02l3.18-8.32-45.74-118.29h40.37l26.42,79.26,25.92-79.26h38.9l-49.17,126.86c-9.54,25.92-21.28,41.83-51.87,41.83h0Z"/>
    <path class="cls-1" d="M636.88,180.27v55.77h-39.14V69.07h39.14v12.96c7.34-9.29,19.57-15.66,34.99-15.66,35.47,0,55.52,30.34,55.52,67.28s-20.06,62.03-55.52,62.03c-15.42,0-27.65-6.35-34.99-15.41h0ZM636.64,137.07c0,15.96,10.52,25.34,25.2,25.34,17.12,0,26.17-13.25,26.17-33.07s-9.05-29.46-26.17-29.46c-14.68,0-25.2,8.22-25.2,27.79v9.4Z"/>
    <path class="cls-1" d="M733.1,22.34h39.14v59.69c7.1-8.32,19.08-15.66,35.48-15.66,26.42,0,43.05,18.36,43.05,46.48v80.14h-39.14v-68.88c0-12.97-5.39-22.51-18.11-22.51-10.77,0-21.28,7.59-21.28,22.76v68.64h-39.14V22.34h0Z"/>
    <path class="cls-1" d="M904.9,98.42l62.62-76.08h47.46l-63.36,73.88,67.52,96.77h-47.46l-47.22-65.21-19.57,17.75v47.46h-40.85V22.34h40.85v76.08h0Z"/>
    <path class="cls-1" d="M1017.02,22.34h39.87v33.51h-39.87V22.34ZM1056.4,192.99h-39.14v-123.92h39.14v123.92Z"/>
    <path class="cls-1" d="M1073.55,101.36h-10.32v-32.29h10.32v-35.73h38.65v35.72h25.2v32.29h-25.2v47.11c0,10.76,5.63,12.72,15.42,12.72,4.64,0,6.84-.25,11.25-.74v32.05c-6.85.98-14.19,1.71-23.48,1.71-27.9,0-41.84-9.3-41.84-35.71v-57.14h0Z"/>
  </g>
  <g>
    <path class="cls-1" d="M209.66,97.75v114.06h-114.07v-18.48c52.79,0,95.58-42.8,95.58-95.58h18.49Z"/>
    <path class="cls-1" d="M191.17,97.75h-95.58v95.58C42.8,193.33,0,150.54,0,97.75S42.8,2.16,95.59,2.16s95.58,42.8,95.58,95.59Z"/>
  </g>
</svg>