<?xml version="1.0" encoding="UTF-8"?>
<svg id="Layer_1" xmlns="http://www.w3.org/2000/svg" viewBox="0 0 1138.87 239.2">
  <defs>
    <style>
      .cls-1 {
        fill: #f200ff;
      }
    </style>
  </defs>
  <g>
    <path class="cls-1" d="M356.32,174.16c-7.05,10.82-23.66,18.87-45.55,18.87-47.56,0-82.53-32.61-82.53-86.97S263.96,11.96,314.3,11.96c39.5,0,65.42,20.89,76.5,54.1l-40.02,12.84c-4.03-19.38-17.11-30.45-36.24-30.45-26.17,0-44.29,22.64-44.29,57.12s18.12,51.99,45.05,51.99c20.63,0,34.47-8.7,36.74-27.33h-40.01v-34.47h81.53v94.52h-37.24v-16.11Z"/>
    <path class="cls-1" d="M447,190.26h-40.26V14.72h40.26v175.54Z"/>
    <path class="cls-1" d="M478.48,236.32c-7.04,0-10.56-.26-15.09-.76v-31.95c3.51.5,6.03.76,10.06.76,8.55,0,13.84-2.27,17.37-11.33l3.27-8.55-47.05-121.69h41.52l27.18,81.53,26.67-81.53h40.02l-50.58,130.5c-9.81,26.67-21.89,43.03-53.36,43.03Z"/>
    <path class="cls-1" d="M622.49,177.18v57.37h-40.26V62.79h40.26v13.33c7.55-9.56,20.13-16.11,35.99-16.11,36.48,0,57.12,31.21,57.12,69.2s-20.63,63.81-57.12,63.81c-15.86,0-28.44-6.54-35.99-15.85ZM622.24,132.74c0,16.42,10.82,26.07,25.92,26.07,17.61,0,26.92-13.63,26.92-34.01s-9.31-30.31-26.92-30.31c-15.1,0-25.92,8.46-25.92,28.59v9.67Z"/>
    <path class="cls-1" d="M721.46,14.72h40.26v61.4c7.3-8.55,19.63-16.11,36.49-16.11,27.18,0,44.29,18.88,44.29,47.81v82.44h-40.26v-70.86c0-13.34-5.54-23.15-18.63-23.15-11.07,0-21.89,7.81-21.89,23.41v70.6h-40.26V14.72Z"/>
    <path class="cls-1" d="M898.19,92.98l64.42-78.26h48.82l-65.18,76,69.46,99.55h-48.82l-48.57-67.08-20.13,18.26v48.82h-42.02V14.72h42.02v78.26Z"/>
    <path class="cls-1" d="M1013.52,14.72h41.01v34.47h-41.01V14.72ZM1054.03,190.26h-40.26V62.79h40.26v127.47Z"/>
    <path class="cls-1" d="M1071.67,96.01h-10.62v-33.21h10.62V26.04h39.76v36.75h25.92v33.21h-25.92v48.46c0,11.06,5.79,13.08,15.86,13.08,4.77,0,7.04-.26,11.58-.76v32.97c-7.05,1-14.6,1.76-24.16,1.76-28.7,0-43.04-9.57-43.04-36.74v-58.78Z"/>
  </g>
  <g>
    <path class="cls-1" d="M200.47,96.86v104.09h-104.09v-6.54h.89c53.53,0,97.25-43.42,97.25-97.25v-.3h5.95Z"/>
    <path class="cls-1" d="M194.52,96.86h-98.14v97.54C42.85,193.81.03,150.69.03,97.16S43.45-.09,97.27-.09s96.95,43.42,97.25,96.95Z"/>
  </g>
</svg>