<svg width="468" height="406" viewBox="0 0 468 406" fill="none" xmlns="http://www.w3.org/2000/svg">
<rect width="468" height="406" fill="#1E1E1E"/>
<path d="M129 29.4391L124.75 25.1892L123.689 26.2499L129.75 32.3105L135.811 26.2499L134.75 25.1892L130.5 29.4393V15H129V29.4391Z" fill="white"/>
<path d="M120 35.5H139.5V34H120V35.5Z" fill="white"/>
<path d="M77.7501 15.6895L83.3108 21.2501L82.2501 22.3108L78.5 18.5607V31.5713H77V18.5609L73.2501 22.3108L72.1895 21.2501L77.7501 15.6895Z" fill="white"/>
<path d="M69.5 33.75V25H68V33.75C68 34.7115 68.7734 35.5 69.7449 35.5H85.7529C86.7222 35.5 87.5 34.7137 87.5 33.75V25H86V33.75C86 33.8909 85.8881 34 85.7529 34H69.7449C69.6118 34 69.5 33.8931 69.5 33.75Z" fill="white"/>
<path d="M173.5 17.75C173.5 17.6119 173.612 17.5 173.75 17.5H180V16H173.75C172.784 16 172 16.7835 172 17.75V33.75C172 34.7115 172.773 35.5 173.745 35.5H189.753C190.722 35.5 191.5 34.7137 191.5 33.75V27H190V33.75C190 33.8909 189.888 34 189.753 34H173.745C173.612 34 173.5 33.8931 173.5 33.75V17.75Z" fill="white"/>
<path d="M190.75 16.0001C191.164 16.0001 191.5 16.3358 191.5 16.7501V23.5001H190V18.4602L180.75 27.7101L179.689 26.6494L188.839 17.5001L184 17.5001V16.0001L190.75 16.0001Z" fill="white"/>
<path d="M176.75 87.8301H178.75V89.8301H176.75V87.8301Z" fill="white"/>
<path d="M178.75 83.6797H176.75V85.6797H178.75V83.6797Z" fill="white"/>
<path d="M176.75 79.54H178.75V81.54H176.75V79.54Z" fill="white"/>
<path d="M184.75 87.8301H186.75V89.8301H184.75V87.8301Z" fill="white"/>
<path d="M186.75 83.6797H184.75V85.6797H186.75V83.6797Z" fill="white"/>
<path fill-rule="evenodd" clip-rule="evenodd" d="M182.5 78.75V80.01H187.75C189.264 80.01 190.5 81.2458 190.5 82.76V90.76C190.5 92.2742 189.264 93.51 187.75 93.51H175.75C174.236 93.51 173 92.2742 173 90.76V78.75C173 77.2358 174.236 76 175.75 76H179.75C181.264 76 182.5 77.2358 182.5 78.75ZM174.5 78.75C174.5 78.0642 175.064 77.5 175.75 77.5H179.75C180.436 77.5 181 78.0642 181 78.75V92.01H175.75C175.064 92.01 174.5 91.4458 174.5 90.76V78.75ZM182.5 92.01V81.51H187.75C188.436 81.51 189 82.0742 189 82.76V90.76C189 91.4458 188.436 92.01 187.75 92.01H182.5Z" fill="white"/>
<path d="M80.5 89.0801V91.0801H82.5V89.0801H80.5Z" fill="white"/>
<path d="M72.5 89.0801H74.5V91.0801H72.5V89.0801Z" fill="white"/>
<path d="M72.5 84.9199V86.9199H74.5V84.9199H72.5Z" fill="white"/>
<path d="M76.5 89.0801H78.5V91.0801H76.5V89.0801Z" fill="white"/>
<path d="M78.5 84.9199H76.5V86.9199H78.5V84.9199Z" fill="white"/>
<path d="M76.5 80.79H78.5V82.79H76.5V80.79Z" fill="white"/>
<path fill-rule="evenodd" clip-rule="evenodd" d="M77.0126 74.93C77.2842 74.6977 77.682 74.6894 77.9631 74.9101L81.9631 78.0501C82.1442 78.1922 82.25 78.4097 82.25 78.64V85.25H85.5C85.9142 85.25 86.25 85.5858 86.25 86V94C86.25 94.4142 85.9142 94.75 85.5 94.75H69.5C69.0858 94.75 68.75 94.4142 68.75 94V81.79C68.75 81.3758 69.0858 81.04 69.5 81.04H72.75V78.92C72.75 78.7007 72.846 78.4924 73.0126 78.35L77.0126 74.93ZM77.5203 76.4694L74.25 79.2655V81.79C74.25 82.2042 73.9142 82.54 73.5 82.54H70.25V93.25H84.75V86.75H81.5C81.0858 86.75 80.75 86.4142 80.75 86V79.0047L77.5203 76.4694Z" fill="white"/>
<path fill-rule="evenodd" clip-rule="evenodd" d="M228.097 81.8042C228.812 79.0431 231.325 77 234.31 77C237.789 77 240.632 79.7895 240.738 83.2402H240.741V83.4126C240.741 83.422 240.741 83.4314 240.741 83.4408V84.1644C242.978 84.2645 244.75 86.1111 244.75 88.3601C244.75 90.6743 242.864 92.5601 240.55 92.5601H228.4C225.416 92.5601 223 90.1443 223 87.1601C223 84.2552 225.195 81.9057 228.097 81.8042ZM229.451 82.6549C229.815 80.305 231.855 78.5 234.31 78.5C237.016 78.5 239.228 80.7099 239.241 83.4161V83.9902C239.241 84.037 239.225 84.1802 239.188 84.3783C239.154 84.5647 239.117 84.7239 239.1 84.7785L238.744 85.9915L239.979 85.723C240.162 85.6833 240.358 85.6601 240.55 85.6601C242.044 85.6601 243.25 86.8729 243.25 88.3601C243.25 89.8459 242.036 91.0601 240.55 91.0601H228.4C226.244 91.0601 224.5 89.3159 224.5 87.1601C224.5 84.99 226.151 83.3008 228.293 83.3008C228.383 83.3008 228.504 83.3058 228.588 83.3134L229.109 83.3607L229.336 83.396L229.451 82.6549Z" fill="white"/>
<path fill-rule="evenodd" clip-rule="evenodd" d="M130.132 76.935C130.516 76.7486 130.78 76.3552 130.78 75.9C130.78 75.2649 130.265 74.75 129.63 74.75C128.995 74.75 128.48 75.2649 128.48 75.9C128.48 76.3552 128.744 76.7486 129.128 76.935C126.198 77.2232 123.37 79.9924 123.37 83.6802V88.1902C123.37 89.1443 122.979 89.8246 122.578 90.2788C122.376 90.5077 122.173 90.6759 122.024 90.7854C121.949 90.8398 121.889 90.8787 121.851 90.9025C121.831 90.9143 121.818 90.9223 121.81 90.9265L121.805 90.9295C121.504 91.0918 121.349 91.4385 121.432 91.7713C121.515 92.1055 121.816 92.3402 122.16 92.3402H137.1C137.444 92.3402 137.744 92.1055 137.828 91.7713C137.911 91.4385 137.757 91.0922 137.455 90.9298L137.45 90.9265C137.442 90.9223 137.429 90.9143 137.409 90.9025C137.371 90.8787 137.311 90.8398 137.236 90.7854C137.087 90.6759 136.884 90.5077 136.682 90.2788C136.281 89.8246 135.89 89.1443 135.89 88.1902V83.6802C135.89 79.9924 133.062 77.2232 130.132 76.935ZM124.87 83.6802C124.87 80.5785 127.39 78.4103 129.63 78.4102C131.87 78.4102 134.39 80.5784 134.39 83.6802V88.1902C134.39 89.3184 134.769 90.1978 135.218 90.8402H124.042C124.491 90.1978 124.87 89.3184 124.87 88.1902V83.6802ZM122.16 91.5902C121.809 90.9276 121.808 90.928 121.808 90.928L122.16 91.5902ZM137.452 90.928C137.452 90.928 137.451 90.9276 137.1 91.5902L137.452 90.928Z" fill="white"/>
<path d="M131.63 93.45C131.63 93.45 131.84 95.45 129.63 95.45C127.42 95.45 127.63 93.45 127.63 93.45H131.63Z" fill="white"/>
<path fill-rule="evenodd" clip-rule="evenodd" d="M70.0527 136.035C70.0527 135.068 70.8362 134.285 71.8027 134.285H73.8027C74.7692 134.285 75.5527 135.068 75.5527 136.035V138.035C75.5527 139.001 74.7692 139.785 73.8027 139.785H73.5527V143.636C74.5456 142.916 76.0207 142.573 78.0427 142.573C80.0809 142.573 81.0976 142.343 81.6014 142.031C81.8231 141.893 81.9397 141.742 82.0127 141.567C82.0935 141.374 82.1373 141.11 82.1373 140.73V139.785H81.6973C80.7308 139.785 79.9473 139.001 79.9473 138.035V136.035C79.9473 135.068 80.7308 134.285 81.6973 134.285H83.6973C84.6638 134.285 85.4473 135.068 85.4473 136.035V138.035C85.4473 139.001 84.6638 139.785 83.6973 139.785H83.6373V140.73C83.6373 141.205 83.5861 141.693 83.3968 142.146C83.1996 142.618 82.871 143.008 82.3922 143.305C81.4948 143.862 80.0892 144.073 78.0427 144.073C76.0617 144.073 74.9611 144.433 74.3625 144.903C73.8079 145.34 73.5682 145.968 73.5682 146.872H73.5527V147.715H73.8027C74.7692 147.715 75.5527 148.499 75.5527 149.465V151.465C75.5527 152.432 74.7692 153.215 73.8027 153.215H71.8027C70.8362 153.215 70.0527 152.432 70.0527 151.465V149.465C70.0527 148.499 70.8362 147.715 71.8027 147.715H72.0527V139.785H71.8027C70.8362 139.785 70.0527 139.001 70.0527 138.035V136.035ZM71.8027 135.785C71.6647 135.785 71.5527 135.897 71.5527 136.035V138.035C71.5527 138.173 71.6647 138.285 71.8027 138.285H73.8027C73.9408 138.285 74.0527 138.173 74.0527 138.035V136.035C74.0527 135.897 73.9408 135.785 73.8027 135.785H71.8027ZM71.8027 149.215C71.6647 149.215 71.5527 149.327 71.5527 149.465V151.465C71.5527 151.603 71.6647 151.715 71.8027 151.715H73.8027C73.9408 151.715 74.0527 151.603 74.0527 151.465V149.465C74.0527 149.327 73.9408 149.215 73.8027 149.215H71.8027ZM81.4473 136.035C81.4473 135.897 81.5592 135.785 81.6973 135.785H83.6973C83.8353 135.785 83.9473 135.897 83.9473 136.035V138.035C83.9473 138.173 83.8353 138.285 83.6973 138.285H81.6973C81.5592 138.285 81.4473 138.173 81.4473 138.035V136.035Z" fill="white"/>
<path d="M123.25 136C123.25 136.69 122.69 137.25 122 137.25C121.31 137.25 120.75 136.69 120.75 136C120.75 135.31 121.31 134.75 122 134.75C122.69 134.75 123.25 135.31 123.25 136Z" fill="white"/>
<path d="M134.88 140.45H120.88V141.95H134.88V140.45Z" fill="white"/>
<path d="M139.58 145.83H129.44V147.33H139.58V145.83Z" fill="white"/>
<path d="M124.38 151.2H136.66V152.7H124.38V151.2Z" fill="white"/>
<path d="M178.5 141.5C179.052 141.5 179.5 141.948 179.5 142.5C179.5 143.052 179.052 143.5 178.5 143.5C177.948 143.5 177.5 143.052 177.5 142.5C177.5 141.948 177.948 141.5 178.5 141.5Z" fill="white"/>
<path d="M182.5 142.5C182.5 141.948 182.052 141.5 181.5 141.5C180.948 141.5 180.5 141.948 180.5 142.5C180.5 143.052 180.948 143.5 181.5 143.5C182.052 143.5 182.5 143.052 182.5 142.5Z" fill="white"/>
<path d="M184.54 141.5C185.092 141.5 185.54 141.948 185.54 142.5C185.54 143.052 185.092 143.5 184.54 143.5C183.988 143.5 183.54 143.052 183.54 142.5C183.54 141.948 183.988 141.5 184.54 141.5Z" fill="white"/>
<path d="M179.5 145.5C179.5 144.948 179.052 144.5 178.5 144.5C177.948 144.5 177.5 144.948 177.5 145.5C177.5 146.052 177.948 146.5 178.5 146.5C179.052 146.5 179.5 146.052 179.5 145.5Z" fill="white"/>
<path d="M181.5 144.5C182.052 144.5 182.5 144.948 182.5 145.5C182.5 146.052 182.052 146.5 181.5 146.5C180.948 146.5 180.5 146.052 180.5 145.5C180.5 144.948 180.948 144.5 181.5 144.5Z" fill="white"/>
<path d="M179.5 148.5C179.5 147.948 179.052 147.5 178.5 147.5C177.948 147.5 177.5 147.948 177.5 148.5C177.5 149.052 177.948 149.5 178.5 149.5C179.052 149.5 179.5 149.052 179.5 148.5Z" fill="white"/>
<path d="M181.5 147.5C182.052 147.5 182.5 147.948 182.5 148.5C182.5 149.052 182.052 149.5 181.5 149.5C180.948 149.5 180.5 149.052 180.5 148.5C180.5 147.948 180.948 147.5 181.5 147.5Z" fill="white"/>
<path d="M185.54 145.5C185.54 144.948 185.092 144.5 184.54 144.5C183.988 144.5 183.54 144.948 183.54 145.5V148.5C183.54 149.052 183.988 149.5 184.54 149.5C185.092 149.5 185.54 149.052 185.54 148.5V145.5Z" fill="white"/>
<path d="M178.85 137.08C178.066 137.08 177.43 137.716 177.43 138.5V138.51C177.43 139.294 178.066 139.93 178.85 139.93H184.12C184.904 139.93 185.54 139.294 185.54 138.51V138.5C185.54 137.716 184.904 137.08 184.12 137.08H178.85Z" fill="white"/>
<path fill-rule="evenodd" clip-rule="evenodd" d="M177.5 133.75C175.981 133.75 174.75 134.981 174.75 136.5V150.5C174.75 152.019 175.981 153.25 177.5 153.25H185.5C187.019 153.25 188.25 152.019 188.25 150.5V136.5C188.25 134.981 187.019 133.75 185.5 133.75H177.5ZM176.25 136.5C176.25 135.81 176.81 135.25 177.5 135.25H185.5C186.19 135.25 186.75 135.81 186.75 136.5V150.5C186.75 151.19 186.19 151.75 185.5 151.75H177.5C176.81 151.75 176.25 151.19 176.25 150.5V136.5Z" fill="white"/>
<path fill-rule="evenodd" clip-rule="evenodd" d="M67 311.5H75.8308L77.917 314.364H86.6158V317.561H89.1078L83.8925 328.398H67V311.5ZM85.1158 317.561V315.864H77.1539L75.0677 313H68.5V326.898H82.9497L86.7213 319.061H74.197L72.0742 323.705L70.7099 323.081L73.2334 317.561H85.1158Z" fill="white"/>
<path d="M135.765 311.02L134.704 309.96L126.683 317.981L126.812 318.411C127.068 319.263 127.183 321.485 125.486 323.182C125.254 323.414 125.259 323.69 125.27 323.79C125.281 323.9 125.314 323.981 125.327 324.011C125.356 324.079 125.39 324.128 125.399 324.142C125.424 324.179 125.449 324.209 125.46 324.222C125.487 324.255 125.52 324.29 125.55 324.323C125.614 324.391 125.703 324.484 125.809 324.592C126.022 324.81 126.319 325.107 126.649 325.435C127.31 326.092 128.114 326.882 128.672 327.429L129.203 327.949L129.728 327.424C130.462 326.69 131.629 326.371 132.731 326.263C133.265 326.211 133.749 326.213 134.099 326.227C134.273 326.234 134.413 326.245 134.507 326.253C134.554 326.257 134.59 326.261 134.612 326.263L134.637 326.266L134.642 326.267L135.008 326.314L139.804 321.482L138.739 320.425L134.452 324.744C134.367 324.738 134.269 324.733 134.161 324.728C133.761 324.712 133.205 324.71 132.585 324.77C131.573 324.869 130.282 325.143 129.238 325.883C128.753 325.406 128.191 324.852 127.707 324.371C127.453 324.119 127.222 323.888 127.034 323.698C128.526 321.839 128.589 319.673 128.356 318.429L135.765 311.02Z" fill="white"/>
<path d="M124 325.26L127.66 328.93L126.69 329.84H119.42L124 325.26Z" fill="white"/>
<path fill-rule="evenodd" clip-rule="evenodd" d="M171.75 322.75V310.75H180.75V322.75H171.75ZM173.25 312.25H179.25V321.25H173.25V312.25Z" fill="white"/>
<path fill-rule="evenodd" clip-rule="evenodd" d="M182.75 330.75V318.75H191.75V330.75H182.75ZM184.25 320.25H190.25V329.25H184.25V320.25Z" fill="white"/>
<path fill-rule="evenodd" clip-rule="evenodd" d="M182.75 310.75V316.75H191.75V310.75H182.75ZM190.25 312.25H184.25V315.25H190.25V312.25Z" fill="white"/>
<path fill-rule="evenodd" clip-rule="evenodd" d="M171.75 330.75V324.75H180.75V330.75H171.75ZM173.25 326.25H179.25V329.25H173.25V326.25Z" fill="white"/>
<path d="M233.75 316.25C234.44 316.25 235 315.69 235 315C235 314.31 234.44 313.75 233.75 313.75C233.06 313.75 232.5 314.31 232.5 315C232.5 315.69 233.06 316.25 233.75 316.25Z" fill="white"/>
<path d="M231.7 320C232.39 320 232.95 319.44 232.95 318.75C232.95 318.06 232.39 317.5 231.7 317.5C231.01 317.5 230.45 318.06 230.45 318.75C230.45 319.44 231.01 320 231.7 320Z" fill="white"/>
<path d="M225.477 318.567L227.598 327H239.902L242.023 318.567L243.477 318.933L241.072 328.5H226.428L224.023 318.933L225.477 318.567Z" fill="white"/>
<path d="M231 322.5C231 323.19 230.44 323.75 229.75 323.75C229.06 323.75 228.5 323.19 228.5 322.5C228.5 321.81 229.06 321.25 229.75 321.25C230.44 321.25 231 321.81 231 322.5Z" fill="white"/>
<path d="M233.75 323.75C234.44 323.75 235 323.19 235 322.5C235 321.81 234.44 321.25 233.75 321.25C233.06 321.25 232.5 321.81 232.5 322.5C232.5 323.19 233.06 323.75 233.75 323.75Z" fill="white"/>
<path d="M239 322.5C239 323.19 238.44 323.75 237.75 323.75C237.06 323.75 236.5 323.19 236.5 322.5C236.5 321.81 237.06 321.25 237.75 321.25C238.44 321.25 239 321.81 239 322.5Z" fill="white"/>
<path d="M236.95 318.75C236.95 319.44 236.39 320 235.7 320C235.01 320 234.45 319.44 234.45 318.75C234.45 318.06 235.01 317.5 235.7 317.5C236.39 317.5 236.95 318.06 236.95 318.75Z" fill="white"/>
<path fill-rule="evenodd" clip-rule="evenodd" d="M280.815 318.75V314.93C280.815 312.677 282.656 310.836 284.909 310.836H286.024C288.278 310.836 290.118 312.677 290.118 314.93V318.75H293.75V330.75H277.75V318.75H280.815ZM282.315 314.93C282.315 313.505 283.484 312.336 284.909 312.336H286.024C287.449 312.336 288.618 313.505 288.618 314.93V318.75H282.315V314.93ZM279.25 320.25H292.25V329.25H279.25V320.25Z" fill="white"/>
<path fill-rule="evenodd" clip-rule="evenodd" d="M341.69 311.22C341.397 310.927 340.923 310.927 340.63 311.22L335.35 316.5C334.027 317.822 332.905 319.866 332.128 321.514C331.734 322.35 331.419 323.106 331.202 323.654C331.093 323.929 331.009 324.151 330.951 324.306C330.923 324.384 330.901 324.444 330.886 324.486L330.869 324.534L330.864 324.547L330.862 324.552C330.767 324.824 330.836 325.127 331.04 325.33L332.12 326.41C332.145 326.435 332.171 326.458 332.198 326.478L333.22 327.5C333.423 327.704 333.726 327.773 333.998 327.678L334.003 327.676L334.016 327.671L334.064 327.654C334.106 327.639 334.166 327.617 334.244 327.589C334.399 327.531 334.621 327.447 334.896 327.338C335.444 327.121 336.2 326.806 337.036 326.412C338.684 325.635 340.728 324.513 342.05 323.19L347.33 317.91C347.623 317.617 347.623 317.142 347.33 316.85C347.037 316.557 346.562 316.557 346.27 316.85L340.99 322.13C339.862 323.257 338.021 324.29 336.396 325.055C335.596 325.433 334.869 325.735 334.343 325.944C334.191 326.004 334.056 326.056 333.941 326.1L333.2 325.36C333.175 325.335 333.149 325.312 333.122 325.291L332.44 324.609C332.484 324.494 332.536 324.359 332.596 324.207C332.805 323.681 333.107 322.954 333.485 322.154C334.25 320.529 335.283 318.688 336.41 317.56L341.69 312.28C341.983 311.987 341.983 311.513 341.69 311.22ZM333.75 326.97C333.997 327.678 333.998 327.678 333.998 327.678L333.75 326.97ZM331.57 324.8L330.862 324.552C330.862 324.552 330.862 324.552 331.57 324.8Z" fill="white"/>
<path d="M344.72 313.94C345.013 314.233 345.013 314.707 344.72 315L340.94 318.78C340.647 319.073 340.173 319.073 339.88 318.78C339.587 318.487 339.587 318.013 339.88 317.72L343.66 313.94C343.953 313.647 344.427 313.647 344.72 313.94Z" fill="white"/>
<path d="M331.98 329.24L329.33 326.59C329.33 326.59 328.69 328.09 328.49 328.71C328.29 329.33 328.19 329.74 328.49 330.04C328.79 330.34 329.13 330.25 329.82 330.04C330.44 329.85 331.98 329.24 331.98 329.24Z" fill="white"/>
<path d="M384.78 313.16H383.27C382.994 313.16 382.77 313.384 382.77 313.66V315.17C382.77 315.446 382.994 315.67 383.27 315.67H384.78C385.056 315.67 385.28 315.446 385.28 315.17V313.66C385.28 313.384 385.056 313.16 384.78 313.16Z" fill="white"/>
<path fill-rule="evenodd" clip-rule="evenodd" d="M382.38 310C380.861 310 379.63 311.231 379.63 312.75V316.03C379.63 317.549 380.861 318.78 382.38 318.78H385.66C387.179 318.78 388.41 317.549 388.41 316.03V312.75C388.41 311.231 387.179 310 385.66 310H382.38ZM381.13 312.75C381.13 312.06 381.69 311.5 382.38 311.5H385.66C386.35 311.5 386.91 312.06 386.91 312.75V316.03C386.91 316.72 386.35 317.28 385.66 317.28H382.38C381.69 317.28 381.13 316.72 381.13 316.03V312.75Z" fill="white"/>
<path d="M396.05 313.16H394.54C394.264 313.16 394.04 313.384 394.04 313.66V315.17C394.04 315.446 394.264 315.67 394.54 315.67H396.05C396.326 315.67 396.55 315.446 396.55 315.17V313.66C396.55 313.384 396.326 313.16 396.05 313.16Z" fill="white"/>
<path fill-rule="evenodd" clip-rule="evenodd" d="M390.9 312.75C390.9 311.231 392.131 310 393.65 310H396.93C398.449 310 399.68 311.231 399.68 312.75V316.03C399.68 317.549 398.449 318.78 396.93 318.78H393.65C392.131 318.78 390.9 317.549 390.9 316.03V312.75ZM393.65 311.5C392.96 311.5 392.4 312.06 392.4 312.75V316.03C392.4 316.72 392.96 317.28 393.65 317.28H396.93C397.62 317.28 398.18 316.72 398.18 316.03V312.75C398.18 312.06 397.62 311.5 396.93 311.5H393.65Z" fill="white"/>
<path d="M384.78 324.47H383.27C382.994 324.47 382.77 324.694 382.77 324.97V326.48C382.77 326.756 382.994 326.98 383.27 326.98H384.78C385.056 326.98 385.28 326.756 385.28 326.48V324.97C385.28 324.694 385.056 324.47 384.78 324.47Z" fill="white"/>
<path fill-rule="evenodd" clip-rule="evenodd" d="M382.38 321.31C380.861 321.31 379.63 322.541 379.63 324.06V327.34C379.63 328.859 380.861 330.09 382.38 330.09H385.66C387.179 330.09 388.41 328.859 388.41 327.34V324.06C388.41 322.541 387.179 321.31 385.66 321.31H382.38ZM381.13 324.06C381.13 323.37 381.69 322.81 382.38 322.81H385.66C386.35 322.81 386.91 323.37 386.91 324.06V327.34C386.91 328.03 386.35 328.59 385.66 328.59H382.38C381.69 328.59 381.13 328.03 381.13 327.34V324.06Z" fill="white"/>
<path d="M394.54 324.4H396.05C396.326 324.4 396.55 324.624 396.55 324.9V326.41C396.55 326.686 396.326 326.91 396.05 326.91H394.54C394.264 326.91 394.04 326.686 394.04 326.41V324.9C394.04 324.624 394.264 324.4 394.54 324.4Z" fill="white"/>
<path d="M399.17 327.52H397.66C397.384 327.52 397.16 327.744 397.16 328.02V329.53C397.16 329.806 397.384 330.03 397.66 330.03H399.17C399.446 330.03 399.67 329.806 399.67 329.53V328.02C399.67 327.744 399.446 327.52 399.17 327.52Z" fill="white"/>
<path d="M391.5 327.54H393.01C393.286 327.54 393.51 327.764 393.51 328.04V329.55C393.51 329.826 393.286 330.05 393.01 330.05H391.5C391.224 330.05 391 329.826 391 329.55V328.04C391 327.764 391.224 327.54 391.5 327.54Z" fill="white"/>
<path d="M399.17 321.23H397.66C397.384 321.23 397.16 321.454 397.16 321.73V323.24C397.16 323.516 397.384 323.74 397.66 323.74H399.17C399.446 323.74 399.67 323.516 399.67 323.24V321.73C399.67 321.454 399.446 321.23 399.17 321.23Z" fill="white"/>
<path d="M391.5 321.24H393.01C393.286 321.24 393.51 321.464 393.51 321.74V323.25C393.51 323.526 393.286 323.75 393.01 323.75H391.5C391.224 323.75 391 323.526 391 323.25V321.74C391 321.464 391.224 321.24 391.5 321.24Z" fill="white"/>
<path d="M432.38 318.88C437.557 313.703 445.942 313.703 451.119 318.88L451.65 319.411L452.71 318.35L452.18 317.82C446.417 312.057 437.082 312.057 431.319 317.82L430.789 318.35L431.85 319.411L432.38 318.88Z" fill="white"/>
<path d="M447.82 322.181C444.463 318.832 439.027 318.834 435.68 322.18L435.15 322.711L434.089 321.65L434.62 321.12C438.553 317.186 444.937 317.187 448.879 321.119L449.41 321.648L448.351 322.711L447.82 322.181Z" fill="white"/>
<path d="M441.75 324.14C440.587 324.14 439.468 324.602 438.65 325.42L438.12 325.951L437.059 324.89L437.589 324.36C438.691 323.258 440.192 322.64 441.75 322.64C443.307 322.64 444.808 323.258 445.91 324.36L446.44 324.89L445.38 325.951L444.849 325.42C444.031 324.602 442.912 324.14 441.75 324.14Z" fill="white"/>
<path d="M441.77 326.15C440.942 326.15 440.27 326.821 440.27 327.65C440.27 328.478 440.942 329.15 441.77 329.15C442.598 329.15 443.27 328.478 443.27 327.65C443.27 326.821 442.598 326.15 441.77 326.15Z" fill="white"/>
<path fill-rule="evenodd" clip-rule="evenodd" d="M436.5 371.75H441V369.75H442.5V371.75H447V369.75H448.5V371.75H451.75V389.75H431.75V371.75H435V369.75H436.5V371.75ZM447 373.25V373.75H448.5V373.25H450.25V376H433.25V373.25H435V373.75H436.5V373.25H441V373.75H442.5V373.25H447ZM450.25 388.25V377.5H433.25V388.25H450.25Z" fill="white"/>
<path fill-rule="evenodd" clip-rule="evenodd" d="M383.587 371.548H384.766V375.895L388.612 379.741L384.766 383.587V388.147H383.587V389.647H395.913V388.147H394.579V383.587L390.733 379.741L394.579 375.895V371.548H395.913V370.048H383.587V371.548ZM393.079 371.548H386.266V375.274L389.672 378.681L393.079 375.274V371.548ZM389.672 380.802L386.266 384.209V388.147H393.079V384.209L389.672 380.802Z" fill="white"/>
<path d="M340.941 370.264L338.017 369.085C337.909 369.029 337.788 368.999 337.665 369C337.542 368.999 337.42 369.029 337.31 369.087L334.39 370.265C334.005 370.42 333.82 370.857 333.975 371.241C334.13 371.625 334.567 371.811 334.951 371.656L336.91 370.865V372.96C336.91 373.374 337.246 373.71 337.66 373.71C338.074 373.71 338.41 373.374 338.41 372.96V370.861L340.38 371.656C340.764 371.81 341.201 371.625 341.356 371.241C341.511 370.856 341.325 370.419 340.941 370.264Z" fill="white"/>
<path d="M328 373.389C327.992 373.086 328.17 372.796 328.468 372.675L331.298 371.525C331.681 371.369 332.119 371.554 332.275 371.938C332.431 372.321 332.246 372.759 331.862 372.915L330.687 373.392L332.048 373.982C332.428 374.147 332.603 374.588 332.438 374.968C332.273 375.348 331.832 375.523 331.452 375.358L329.5 374.513V377.21C329.5 377.624 329.164 377.96 328.75 377.96C328.336 377.96 328 377.624 328 377.21V373.389Z" fill="white"/>
<path d="M335.187 375.321C334.807 375.157 334.366 375.332 334.202 375.713C334.037 376.093 334.213 376.534 334.593 376.699L336.92 377.703V381.16C336.92 381.574 337.256 381.91 337.67 381.91H337.675H337.68C338.094 381.91 338.43 381.574 338.43 381.16V377.703L340.757 376.699C341.138 376.534 341.313 376.093 341.149 375.713C340.985 375.332 340.543 375.157 340.163 375.321L337.675 376.395L335.187 375.321Z" fill="white"/>
<path d="M337.675 384.18L337.67 384.18C337.256 384.18 336.92 384.516 336.92 384.93V387.618L335.218 386.882C334.838 386.717 334.396 386.892 334.232 387.272C334.067 387.652 334.242 388.094 334.622 388.258L337.372 389.448C337.469 389.49 337.572 389.511 337.675 389.51C337.778 389.511 337.881 389.49 337.978 389.448L340.728 388.258C341.108 388.094 341.283 387.652 341.118 387.272C340.954 386.892 340.512 386.717 340.132 386.882L338.43 387.618V384.93C338.43 384.516 338.094 384.18 337.68 384.18L337.675 384.18Z" fill="white"/>
<path d="M328.78 380.36C329.194 380.36 329.53 380.696 329.53 381.11V383.703L331.67 382.656C332.042 382.474 332.492 382.628 332.674 383C332.856 383.372 332.702 383.821 332.33 384.003L330.555 384.872L332.078 385.532C332.458 385.696 332.633 386.138 332.468 386.518C332.304 386.898 331.862 387.073 331.482 386.908L328.579 385.65C328.367 385.6 328.179 385.46 328.076 385.249C327.991 385.074 327.979 384.883 328.03 384.709V381.11C328.03 380.696 328.366 380.36 328.78 380.36Z" fill="white"/>
<path d="M346.57 380.36C346.984 380.36 347.32 380.696 347.32 381.11V384.92C347.32 385.219 347.143 385.489 346.868 385.608L343.868 386.908C343.488 387.073 343.047 386.898 342.882 386.518C342.717 386.138 342.892 385.696 343.272 385.532L344.721 384.904L342.88 384.003C342.508 383.821 342.354 383.372 342.536 383C342.718 382.628 343.167 382.474 343.539 382.656L345.82 383.772V381.11C345.82 380.696 346.156 380.36 346.57 380.36Z" fill="white"/>
<path d="M344.663 373.392L343.488 372.915C343.104 372.759 342.919 372.321 343.075 371.938C343.231 371.554 343.669 371.369 344.052 371.525L346.882 372.675C347.178 372.795 347.356 373.083 347.35 373.384V377.21C347.35 377.624 347.014 377.96 346.6 377.96C346.186 377.96 345.85 377.624 345.85 377.21V374.513L343.898 375.358C343.518 375.523 343.077 375.348 342.912 374.968C342.747 374.588 342.922 374.147 343.302 373.982L344.663 373.392Z" fill="white"/>
<path fill-rule="evenodd" clip-rule="evenodd" d="M283.211 369.696C282.935 369.696 282.711 369.92 282.711 370.196V388.921C282.711 389.198 282.935 389.421 283.211 389.421H295.115C295.391 389.421 295.615 389.198 295.615 388.921V370.196C295.615 369.92 295.391 369.696 295.115 369.696H283.211ZM284.211 371.196V387.921H294.115V371.196H284.211Z" fill="white"/>
<path d="M278.487 372.516C278.487 371.826 279.046 371.266 279.737 371.266H281.523V372.766H279.987V386.351H281.523V387.851H279.737C279.046 387.851 278.487 387.291 278.487 386.601V372.516Z" fill="white"/>
<path d="M276.593 373.599C275.902 373.599 275.343 374.159 275.343 374.849V384.268C275.343 384.958 275.902 385.518 276.593 385.518H277.42V384.018H276.843V375.099H277.42V373.599H276.593Z" fill="white"/>
<path fill-rule="evenodd" clip-rule="evenodd" d="M228.75 374.75V369.75H243.75V384.75H238.75V389.75H223.75V374.75H228.75ZM230.25 371.25H242.25V383.25H238.75V374.75H230.25V371.25ZM237.25 384.75V388.25H225.25V376.25H228.75V384.75H237.25ZM237.25 383.25H230.25V376.25H237.25V383.25Z" fill="white"/>
<path d="M175.5 371.25C174.254 371.25 173.25 372.254 173.25 373.5V383.77C173.25 385.016 174.254 386.02 175.5 386.02H183.3V387.52H175.5C173.426 387.52 171.75 385.844 171.75 383.77V373.5C171.75 371.426 173.426 369.75 175.5 369.75H185.55C187.624 369.75 189.3 371.426 189.3 373.5V381.52H187.8V373.5C187.8 372.254 186.796 371.25 185.55 371.25H175.5Z" fill="white"/>
<path d="M189.3 387.52V390.29H187.8V387.52H185.03V386.02H187.8V383.24H189.3V386.02H192.07V387.52H189.3Z" fill="white"/>
<path d="M133.594 373.802C132.407 373.312 131.113 373 129.75 373C127.203 373 124.899 374.089 123.083 375.391C121.509 376.52 120.254 377.843 119.465 378.869C119.422 378.915 119.383 378.96 119.35 379.001C119.284 379.082 119.222 379.168 119.173 379.247C119.149 379.285 119.12 379.333 119.096 379.385C119.083 379.411 119.066 379.448 119.051 379.493C119.04 379.525 119.008 379.623 119.008 379.75C119.008 379.923 119.066 380.057 119.083 380.096C119.11 380.159 119.141 380.215 119.168 380.258C119.222 380.347 119.289 380.438 119.357 380.519C119.396 380.565 119.441 380.615 119.492 380.665C120.281 381.686 121.526 382.993 123.083 384.11C123.123 384.138 123.162 384.166 123.202 384.194L124.28 383.115C124.171 383.042 124.064 382.967 123.958 382.891C122.527 381.865 121.386 380.662 120.68 379.75C121.386 378.838 122.527 377.636 123.958 376.61C125.628 375.412 127.629 374.5 129.75 374.5C130.671 374.5 131.571 374.672 132.43 374.965L133.594 373.802Z" fill="white"/>
<path d="M131.324 376.072C130.841 375.865 130.309 375.75 129.75 375.75C127.541 375.75 125.75 377.541 125.75 379.75C125.75 380.309 125.864 380.841 126.071 381.324L131.324 376.072Z" fill="white"/>
<path fill-rule="evenodd" clip-rule="evenodd" d="M121.457 388.026L121.216 388.267L122.276 389.328L125.906 385.698C127.093 386.188 128.386 386.5 129.75 386.5C132.296 386.5 134.6 385.412 136.416 384.11C138.004 382.971 139.267 381.635 140.054 380.605C140.088 380.568 140.118 380.532 140.145 380.499C140.211 380.419 140.273 380.333 140.322 380.254C140.347 380.215 140.375 380.167 140.4 380.115C140.412 380.09 140.429 380.052 140.444 380.007C140.455 379.975 140.487 379.877 140.487 379.75C140.487 379.577 140.429 379.443 140.412 379.404C140.385 379.341 140.354 379.286 140.327 379.242C140.273 379.153 140.206 379.062 140.138 378.981C140.104 378.941 140.065 378.897 140.022 378.854C139.233 377.83 137.983 376.514 136.416 375.391C136.377 375.362 136.337 375.334 136.298 375.307L139.087 372.517L138.043 371.474L121.473 388.043L121.457 388.026ZM135.219 376.385L133.428 378.176C133.635 378.659 133.75 379.191 133.75 379.75C133.75 381.959 131.959 383.75 129.75 383.75C129.191 383.75 128.659 383.635 128.176 383.428L127.069 384.535C127.929 384.828 128.828 385 129.75 385C131.87 385 133.871 384.089 135.542 382.891C136.973 381.865 138.113 380.662 138.819 379.75C138.113 378.838 136.973 377.636 135.542 376.61C135.436 376.533 135.328 376.458 135.219 376.385Z" fill="white"/>
<path d="M75.5935 384.303L75.3779 379.303L76.8765 379.239L77.0921 384.239L75.5935 384.303Z" fill="white"/>
<path d="M80.916 379.29L80.7918 384.29L79.2922 384.252L79.4165 379.252L80.916 379.29Z" fill="white"/>
<path fill-rule="evenodd" clip-rule="evenodd" d="M78.0961 371C75.8218 371 73.9179 372.585 73.4292 374.711H68.6729V376.211H70.7398L73.2787 389.107H83.3601L85.6169 376.211H87.519V374.711H82.7629C82.2743 372.585 80.3703 371 78.0961 371ZM78.0961 372.5C76.6571 372.5 75.434 373.424 74.988 374.711H81.2041C80.7581 373.424 79.535 372.5 78.0961 372.5ZM74.5122 387.607L72.289 376.315L84.076 376.315L82.0998 387.607H74.5122Z" fill="white"/>
<path fill-rule="evenodd" clip-rule="evenodd" d="M232.733 137.462L236.119 140.326V137.805H237.939V147.715H237.697C236.731 147.715 235.947 148.499 235.947 149.465V151.465C235.947 152.432 236.731 153.215 237.697 153.215H239.697C240.664 153.215 241.447 152.432 241.447 151.465V149.465C241.447 148.499 240.664 147.715 239.697 147.715H239.439V137.555C239.439 136.865 238.879 136.305 238.189 136.305H236.119V133.988L232.733 136.852C232.544 137.011 232.544 137.303 232.733 137.462ZM237.697 149.215C237.559 149.215 237.447 149.327 237.447 149.465V151.465C237.447 151.603 237.559 151.715 237.697 151.715H239.697C239.835 151.715 239.947 151.603 239.947 151.465V149.465C239.947 149.327 239.835 149.215 239.697 149.215H237.697Z" fill="white"/>
<path fill-rule="evenodd" clip-rule="evenodd" d="M227.803 134.285C226.836 134.285 226.053 135.068 226.053 136.035V138.035C226.053 139.001 226.836 139.785 227.803 139.785H228.053V147.715H227.803C226.836 147.715 226.053 148.499 226.053 149.465V151.465C226.053 152.432 226.836 153.215 227.803 153.215H229.803C230.769 153.215 231.553 152.432 231.553 151.465V149.465C231.553 148.499 230.769 147.715 229.803 147.715H229.553V139.785H229.803C230.769 139.785 231.553 139.001 231.553 138.035V136.035C231.553 135.068 230.769 134.285 229.803 134.285H227.803ZM227.553 136.035C227.553 135.897 227.665 135.785 227.803 135.785H229.803C229.941 135.785 230.053 135.897 230.053 136.035V138.035C230.053 138.173 229.941 138.285 229.803 138.285H227.803C227.665 138.285 227.553 138.173 227.553 138.035V136.035ZM227.553 149.465C227.553 149.327 227.665 149.215 227.803 149.215H229.803C229.941 149.215 230.053 149.327 230.053 149.465V151.465C230.053 151.603 229.941 151.715 229.803 151.715H227.803C227.665 151.715 227.553 151.603 227.553 151.465V149.465Z" fill="white"/>
<path d="M282.955 134.267H288.545V139.857H286.5V142.79H291.811V147.643H293.884V153.233H288.294V147.643H290.311V144.29H281.189V147.643H283.206V153.233H277.616V147.643H279.689V142.79H285V139.857H282.955V134.267Z" fill="white"/>
<path fill-rule="evenodd" clip-rule="evenodd" d="M330.303 134.5C329.336 134.5 328.553 135.284 328.553 136.25V138.25C328.553 139.216 329.336 140 330.303 140H330.492V148.16C330.492 149.679 331.723 150.91 333.242 150.91H339.551V149.41H333.242C332.552 149.41 331.992 148.851 331.992 148.16V140H332.303C333.269 140 334.053 139.216 334.053 138.25V136.25C334.053 135.284 333.269 134.5 332.303 134.5H330.303ZM330.053 136.25C330.053 136.112 330.165 136 330.303 136H332.303C332.441 136 332.553 136.112 332.553 136.25V138.25C332.553 138.388 332.441 138.5 332.303 138.5H330.303C330.165 138.5 330.053 138.388 330.053 138.25V136.25Z" fill="white"/>
<path fill-rule="evenodd" clip-rule="evenodd" d="M343.197 147.5C342.231 147.5 341.447 148.284 341.447 149.25V151.25C341.447 152.216 342.231 153 343.197 153H345.197C346.164 153 346.947 152.216 346.947 151.25V149.25C346.947 148.284 346.164 147.5 345.197 147.5H345.023V139.363C345.023 137.844 343.792 136.613 342.273 136.613H335.857V138.113H342.273C342.964 138.113 343.523 138.672 343.523 139.363V147.5H343.197ZM342.947 149.25C342.947 149.112 343.059 149 343.197 149H345.197C345.335 149 345.447 149.112 345.447 149.25V151.25C345.447 151.388 345.335 151.5 345.197 151.5H343.197C343.059 151.5 342.947 151.388 342.947 151.25V149.25Z" fill="white"/>
<path d="M69.25 209.34V192.75H67.75V209.34C67.75 210.852 68.9733 212.09 70.5 212.09H87.09V210.59H70.5C69.8067 210.59 69.25 210.028 69.25 209.34Z" fill="white"/>
<path d="M78.1957 199.644L80.9491 201.629L86.3257 194.4L87.5293 195.296L81.7149 203.113L81.2796 203.717L81.2706 203.71L81.2641 203.719L80.6728 203.279L77.9008 201.281L72.5244 208.509L71.3208 207.614L77.1257 199.809L77.5702 199.193L77.5793 199.199L77.586 199.19L78.1957 199.644Z" fill="white"/>
<path fill-rule="evenodd" clip-rule="evenodd" d="M382.29 140.77C382.264 140.517 382.25 140.26 382.25 140C382.25 135.996 385.496 132.75 389.5 132.75C393.504 132.75 396.75 135.996 396.75 140C396.75 140.26 396.736 140.517 396.71 140.77C398.83 142.035 400.25 144.352 400.25 147C400.25 151.004 397.004 154.25 393 154.25C391.731 154.25 390.538 153.924 389.5 153.351C388.462 153.924 387.269 154.25 386 154.25C381.996 154.25 378.75 151.004 378.75 147C378.75 144.352 380.17 142.035 382.29 140.77ZM383.75 140C383.75 136.824 386.324 134.25 389.5 134.25C392.676 134.25 395.25 136.824 395.25 140C395.25 140.035 395.25 140.07 395.249 140.106C394.541 139.875 393.785 139.75 393 139.75C391.731 139.75 390.538 140.076 389.5 140.649C388.462 140.076 387.269 139.75 386 139.75C385.215 139.75 384.459 139.875 383.751 140.106C383.75 140.07 383.75 140.035 383.75 140ZM395.02 141.615C394.392 141.379 393.711 141.25 393 141.25C392.256 141.25 391.544 141.391 390.892 141.649C391.782 142.463 392.468 143.496 392.865 144.663C393.888 143.924 394.658 142.856 395.02 141.615ZM393.21 146.23C394.675 145.356 395.806 143.979 396.365 142.337C397.81 143.381 398.75 145.081 398.75 147C398.75 150.176 396.176 152.75 393 152.75C392.256 152.75 391.544 152.609 390.892 152.351C392.341 151.026 393.25 149.119 393.25 147C393.25 146.74 393.236 146.483 393.21 146.23ZM391.52 145.385C391.174 144.199 390.455 143.172 389.5 142.438C388.545 143.172 387.826 144.199 387.48 145.385C388.108 145.621 388.789 145.75 389.5 145.75C390.211 145.75 390.892 145.621 391.52 145.385ZM387.251 146.894C387.959 147.125 388.715 147.25 389.5 147.25C390.285 147.25 391.041 147.125 391.749 146.894C391.75 146.93 391.75 146.965 391.75 147C391.75 148.859 390.868 150.511 389.5 151.562C388.132 150.511 387.25 148.859 387.25 147C387.25 146.965 387.25 146.93 387.251 146.894ZM385.79 146.23C385.764 146.483 385.75 146.74 385.75 147C385.75 149.119 386.659 151.026 388.108 152.351C387.456 152.609 386.744 152.75 386 152.75C382.824 152.75 380.25 150.176 380.25 147C380.25 145.081 381.19 143.381 382.635 142.337C383.194 143.979 384.325 145.356 385.79 146.23ZM386.135 144.663C385.112 143.924 384.342 142.856 383.98 141.615C384.608 141.379 385.289 141.25 386 141.25C386.744 141.25 387.456 141.391 388.108 141.649C387.218 142.463 386.532 143.496 386.135 144.663Z" fill="white"/>
<path d="M437.61 145.5H445.61V144H437.61V145.5Z" fill="white"/>
<path d="M437.61 149.16H443.61V147.66H437.61V149.16Z" fill="white"/>
<path fill-rule="evenodd" clip-rule="evenodd" d="M433.56 133.75H442.667L449.75 140.625V153.75H433.56V133.75ZM435.06 135.25H442.058L442.131 135.32V141.369H448.25V152.25H435.06V135.25Z" fill="white"/>
<path fill-rule="evenodd" clip-rule="evenodd" d="M223.945 17H243.555L236.822 26.5532V34.7612H230.678V26.5532L223.945 17ZM226.837 18.5L232.178 26.0777V33.2612H235.322V26.0777L240.662 18.5H226.837Z" fill="white"/>
<path fill-rule="evenodd" clip-rule="evenodd" d="M133.277 202.75C133.277 204.698 131.698 206.277 129.75 206.277C127.802 206.277 126.224 204.698 126.224 202.75C126.224 200.802 127.802 199.224 129.75 199.224C131.698 199.224 133.277 200.802 133.277 202.75ZM131.777 202.75C131.777 203.869 130.869 204.777 129.75 204.777C128.631 204.777 127.724 203.869 127.724 202.75C127.724 201.631 128.631 200.724 129.75 200.724C130.869 200.724 131.777 201.631 131.777 202.75Z" fill="white"/>
<path fill-rule="evenodd" clip-rule="evenodd" d="M137.247 209.18L139.286 205.567C137.853 204.292 137.461 202.146 138.455 200.418C138.696 199.999 138.998 199.639 139.345 199.341L137.324 195.92C136.281 196.224 135.12 196.119 134.103 195.534C132.996 194.897 132.295 193.825 132.092 192.658L127.414 192.705C127.2 193.854 126.503 194.906 125.41 195.535C124.428 196.1 123.31 196.217 122.295 195.949L120.309 199.468C120.597 199.74 120.851 200.057 121.059 200.418C122.035 202.115 121.674 204.214 120.305 205.496L122.454 209.134C124.175 208.746 126.019 209.497 126.945 211.107C127.153 211.467 127.3 211.845 127.389 212.23L132.135 212.183C132.226 211.814 132.369 211.452 132.568 211.106C133.528 209.439 135.474 208.692 137.247 209.18ZM136.558 197.572L137.491 199.152C137.371 199.317 137.258 199.489 137.155 199.67C136.018 201.645 136.212 204.019 137.455 205.759L136.45 207.541C134.399 207.434 132.363 208.455 131.268 210.358C131.205 210.469 131.145 210.58 131.09 210.693L128.436 210.719C128.377 210.598 128.314 210.477 128.245 210.359C127.183 208.513 125.237 207.497 123.251 207.535L122.137 205.648C123.309 203.919 123.472 201.604 122.359 199.67C122.286 199.543 122.208 199.419 122.127 199.3L123.097 197.58C124.132 197.627 125.194 197.39 126.158 196.835C127.25 196.206 128.053 195.267 128.517 194.194L130.986 194.169C131.449 195.252 132.255 196.201 133.355 196.834C134.364 197.415 135.478 197.648 136.558 197.572Z" fill="white"/>
<path fill-rule="evenodd" clip-rule="evenodd" d="M283.59 87.0929H287.884V93.75H294.75V83.75L285.75 75.75L276.75 83.75V93.75H283.59V87.0929ZM282.09 92.25V85.5929H289.384V92.25H293.25V84.4236L285.75 77.7569L278.25 84.4236V92.25H282.09Z" fill="white"/>
<path d="M341.57 77.3378C342.687 76.2207 344.503 76.2207 345.62 77.3378C346.737 78.4549 346.737 80.2701 345.62 81.3872L341.25 85.7572C340.133 86.8743 338.317 86.8743 337.2 85.7572L336.67 85.2268L335.609 86.2875L336.14 86.8178C337.843 88.5207 340.607 88.5207 342.31 86.8178L346.68 82.4478C348.383 80.7449 348.383 77.9801 346.68 76.2772C344.977 74.5743 342.213 74.5743 340.51 76.2772L337.569 79.2175L338.63 80.2782L341.57 77.3378Z" fill="white"/>
<path d="M335.09 83.8178C336.207 82.7007 338.023 82.7007 339.14 83.8178L339.67 84.3481L340.731 83.2875L340.2 82.7571C338.497 81.0543 335.733 81.0543 334.03 82.7571L329.66 87.1272C327.957 88.83 327.957 91.5949 329.66 93.2978C331.363 95.0007 334.127 95.0007 335.83 93.2978L338.771 90.3575L337.71 89.2968L334.77 92.2372C333.653 93.3543 331.838 93.3543 330.72 92.2372C329.603 91.12 329.603 89.3049 330.72 88.1878L335.09 83.8178Z" fill="white"/>
<path fill-rule="evenodd" clip-rule="evenodd" d="M389.75 81.0801C387.474 81.0801 385.63 82.9247 385.63 85.2001C385.63 87.4755 387.474 89.3201 389.75 89.3201C392.025 89.3201 393.87 87.4755 393.87 85.2001C393.87 82.9247 392.025 81.0801 389.75 81.0801ZM387.13 85.2001C387.13 83.7531 388.303 82.5801 389.75 82.5801C391.197 82.5801 392.37 83.7531 392.37 85.2001C392.37 86.6471 391.197 87.8201 389.75 87.8201C388.303 87.8201 387.13 86.6471 387.13 85.2001Z" fill="white"/>
<path fill-rule="evenodd" clip-rule="evenodd" d="M379.864 79.7629C379.864 79.2106 380.312 78.7629 380.864 78.7629H384.125C384.496 78.7629 384.837 78.5574 385.01 78.2291L386.068 76.2215C386.241 75.8922 386.583 75.6866 386.956 75.6877L392.613 75.7059C392.991 75.7071 393.335 75.9203 393.504 76.2573L394.485 78.2115C394.655 78.5495 395 78.7629 395.379 78.7629H398.69C399.242 78.7629 399.69 79.2106 399.69 79.7629V91.6872C399.69 92.2395 399.242 92.6872 398.69 92.6872H380.864C380.312 92.6872 379.864 92.2395 379.864 91.6872V79.7629ZM395.379 80.2629H398.19V91.1872H381.364V80.2629H384.125C385.053 80.2629 385.904 79.7492 386.337 78.9285L387.254 77.1887L392.301 77.2049L393.144 78.8844C393.569 79.7295 394.433 80.2629 395.379 80.2629Z" fill="white"/>
<path d="M279.794 19.7139H295.321V29.7551H296.821V18.2139H279.794V19.7139Z" fill="white"/>
<path d="M284.76 29.2385C286.074 29.2385 287.14 28.173 287.14 26.8585C287.14 25.5441 286.074 24.4785 284.76 24.4785C283.445 24.4785 282.38 25.5441 282.38 26.8585C282.38 28.173 283.445 29.2385 284.76 29.2385Z" fill="white"/>
<path fill-rule="evenodd" clip-rule="evenodd" d="M275.805 20.917V32.8838H293.755V20.917H275.805ZM280.224 22.417H289.34C289.481 23.9203 290.726 25.1028 292.255 25.1464V28.6851C290.736 28.7284 289.498 29.8951 289.343 31.3838H280.221C280.066 29.8939 278.826 28.7266 277.305 28.685V25.1465C278.836 25.1047 280.083 23.9215 280.224 22.417Z" fill="white"/>
<path fill-rule="evenodd" clip-rule="evenodd" d="M438.315 78.93C438.315 77.505 439.484 76.3359 440.909 76.3359H442.024C443.449 76.3359 444.618 77.505 444.618 78.93V81H446.118V78.93C446.118 76.6765 444.278 74.8359 442.024 74.8359H440.909C438.656 74.8359 436.815 76.6765 436.815 78.93V82.75H433.75V94.75H449.75V82.75H438.315V78.93ZM435.25 84.25H448.25V93.25H435.25V84.25Z" fill="white"/>
<path fill-rule="evenodd" clip-rule="evenodd" d="M441.75 16.5C439.226 16.5 437.18 18.5461 437.18 21.07C437.18 23.5939 439.226 25.64 441.75 25.64C444.274 25.64 446.32 23.5939 446.32 21.07C446.32 18.5461 444.274 16.5 441.75 16.5ZM438.68 21.07C438.68 19.3745 440.055 18 441.75 18C443.446 18 444.82 19.3745 444.82 21.07C444.82 22.7655 443.446 24.14 441.75 24.14C440.055 24.14 438.68 22.7655 438.68 21.07Z" fill="white"/>
<path d="M438.62 28.54C435.466 28.54 432.91 31.0958 432.91 34.25V35H434.41V34.25C434.41 31.9243 436.294 30.04 438.62 30.04H444.88C447.206 30.04 449.09 31.9243 449.09 34.25V35H450.59V34.25C450.59 31.0958 448.034 28.54 444.88 28.54H438.62Z" fill="white"/>
<path d="M390.5 15.75V18.75H389V15.75H390.5Z" fill="white"/>
<path fill-rule="evenodd" clip-rule="evenodd" d="M389.75 30.75C392.511 30.75 394.75 28.5114 394.75 25.75C394.75 22.9886 392.511 20.75 389.75 20.75C386.989 20.75 384.75 22.9886 384.75 25.75C384.75 28.5114 386.989 30.75 389.75 30.75ZM389.75 29.25C391.683 29.25 393.25 27.683 393.25 25.75C393.25 23.817 391.683 22.25 389.75 22.25C387.817 22.25 386.25 23.817 386.25 25.75C386.25 27.683 387.817 29.25 389.75 29.25Z" fill="white"/>
<path d="M396.75 26.5H399.75V25H396.75V26.5Z" fill="white"/>
<path d="M394.24 31.3012L395.301 30.2405L397.422 32.3618L396.362 33.4225L394.24 31.3012Z" fill="white"/>
<path d="M384.341 30.2405L385.402 31.3012L383.28 33.4225L382.22 32.3618L384.341 30.2405Z" fill="white"/>
<path d="M390.5 32.75V35.75H389V32.75H390.5Z" fill="white"/>
<path d="M379.75 26.5H382.75V25H379.75V26.5Z" fill="white"/>
<path d="M382.22 19.2802L383.281 18.2195L385.402 20.3408L384.341 21.4015L382.22 19.2802Z" fill="white"/>
<path d="M397.422 19.2802L395.301 21.4015L394.24 20.3408L396.362 18.2195L397.422 19.2802Z" fill="white"/>
<path d="M333 25.5H331.5V27H333V25.5Z" fill="white"/>
<path d="M331.5 22.5H333V24H331.5V22.5Z" fill="white"/>
<path d="M333 19.5H331.5V21H333V19.5Z" fill="white"/>
<path d="M334.5 25.5H336V27H334.5V25.5Z" fill="white"/>
<path d="M336 22.5H334.5V24H336V22.5Z" fill="white"/>
<path d="M334.5 19.5H336V21H334.5V19.5Z" fill="white"/>
<path d="M339 25.5H337.5V27H339V25.5Z" fill="white"/>
<path d="M337.5 22.5H339V24H337.5V22.5Z" fill="white"/>
<path d="M339 19.5H337.5V21H339V19.5Z" fill="white"/>
<path fill-rule="evenodd" clip-rule="evenodd" d="M342.75 15.75H327.75V30.75H332V36.5H348.5V20H342.75V15.75ZM341.25 29.25V17.25H329.25V29.25H341.25ZM333.5 35V30.75H342.75V21.5H347V35H333.5Z" fill="white"/>
<path fill-rule="evenodd" clip-rule="evenodd" d="M179.211 192.696C178.935 192.696 178.711 192.92 178.711 193.196V211.921C178.711 212.198 178.935 212.421 179.211 212.421H191.115C191.391 212.421 191.615 212.198 191.615 211.921V193.196C191.615 192.92 191.391 192.696 191.115 192.696H179.211ZM180.211 194.196V210.921H190.115V194.196H180.211Z" fill="white"/>
<path d="M174.487 195.516C174.487 194.826 175.046 194.266 175.737 194.266H177.523V195.766H175.987V209.351H177.523V210.851H175.737C175.046 210.851 174.487 210.291 174.487 209.601V195.516Z" fill="white"/>
<path d="M172.593 196.599C171.902 196.599 171.343 197.159 171.343 197.849V207.268C171.343 207.958 171.902 208.518 172.593 208.518H173.42V207.018H172.843V198.099H173.42V196.599H172.593Z" fill="white"/>
<path fill-rule="evenodd" clip-rule="evenodd" d="M225.25 194.75C224.974 194.75 224.75 194.974 224.75 195.25V200.25C224.75 200.526 224.974 200.75 225.25 200.75H230.25C230.526 200.75 230.75 200.526 230.75 200.25V195.25C230.75 194.974 230.526 194.75 230.25 194.75H225.25ZM226.25 196.25V199.25H229.25V196.25H226.25Z" fill="white"/>
<path d="M233 195H242.5V196.5H233V195Z" fill="white"/>
<path d="M233 209H242.5V210.5H233V209Z" fill="white"/>
<path d="M242.5 202H233V203.5H242.5V202Z" fill="white"/>
<path fill-rule="evenodd" clip-rule="evenodd" d="M224.75 205.25C224.75 204.974 224.974 204.75 225.25 204.75H230.25C230.526 204.75 230.75 204.974 230.75 205.25V210.25C230.75 210.526 230.526 210.75 230.25 210.75H225.25C224.974 210.75 224.75 210.526 224.75 210.25V205.25ZM226.25 209.25V206.25H229.25V209.25H226.25Z" fill="white"/>
<path fill-rule="evenodd" clip-rule="evenodd" d="M338.288 192.825L343.011 195.062C343.289 195.194 343.449 195.475 343.44 195.764V201.005L347.728 203.026C347.759 203.04 347.788 203.056 347.817 203.074C348.048 203.217 348.178 203.472 348.17 203.734V209.56C348.17 209.857 347.995 210.126 347.723 210.246L342.998 212.334C342.976 212.344 342.954 212.353 342.931 212.36C342.771 212.414 342.596 212.414 342.434 212.355C342.417 212.349 342.399 212.342 342.382 212.334L337.96 210.38L333.538 212.334C333.516 212.344 333.494 212.353 333.471 212.36C333.311 212.414 333.137 212.414 332.976 212.356C332.958 212.349 332.94 212.342 332.922 212.334L328.197 210.246C327.925 210.126 327.75 209.857 327.75 209.56V203.711C327.75 203.457 327.878 203.22 328.091 203.081C328.126 203.059 328.161 203.04 328.198 203.023L332.48 201.005V195.741C332.48 195.59 332.526 195.443 332.608 195.321C332.67 195.228 332.754 195.148 332.857 195.09C332.876 195.079 332.895 195.069 332.915 195.059L337.633 192.825C337.645 192.819 337.658 192.814 337.671 192.808C337.765 192.769 337.863 192.75 337.96 192.75C338.057 192.75 338.155 192.769 338.249 192.808C338.262 192.814 338.275 192.819 338.288 192.825ZM340.888 195.717L337.96 194.33L335.032 195.717L337.96 197.01L340.888 195.717ZM342.69 202.33C342.676 202.33 342.662 202.33 342.648 202.329L339.762 203.69L342.69 204.989L345.618 203.69L342.732 202.329C342.718 202.33 342.704 202.33 342.69 202.33ZM341.94 196.892V201.005L338.71 202.527V198.319L341.94 196.892ZM337.21 202.527V198.319L333.98 196.892V201.005L337.21 202.527ZM333.23 202.33C333.216 202.33 333.202 202.33 333.188 202.329L330.302 203.69L333.23 204.989L336.158 203.69L333.272 202.329C333.258 202.33 333.244 202.33 333.23 202.33ZM341.94 210.499V206.298L338.71 204.864V209.071L341.94 210.499ZM346.67 209.071L343.44 210.499V206.298L346.67 204.864V209.071ZM333.98 206.298L337.21 204.864V209.071L333.98 210.499V206.298ZM332.48 210.499V206.298L329.25 204.864V209.071L332.48 210.499Z" fill="white"/>
<path fill-rule="evenodd" clip-rule="evenodd" d="M285.775 193.039L294.474 197.063V208.39L285.805 212.46L277.002 208.601L277.027 197.015L285.775 193.039ZM278.504 207.622L278.523 198.641L284.972 201.484V210.457L278.504 207.622ZM286.472 210.49L292.974 207.437V198.661L286.472 201.51V210.49ZM285.769 194.689L291.866 197.509L285.751 200.188L279.618 197.485L285.769 194.689Z" fill="white"/>
<path fill-rule="evenodd" clip-rule="evenodd" d="M379.797 192.75V201.75H388.797V192.75H379.797ZM387.297 194.25H381.297V200.25H387.297V194.25Z" fill="white"/>
<path fill-rule="evenodd" clip-rule="evenodd" d="M379.797 203.763V212.763H388.797V203.763H379.797ZM387.297 205.263H381.297V211.263H387.297V205.263Z" fill="white"/>
<path fill-rule="evenodd" clip-rule="evenodd" d="M390.821 212.783V203.783H399.821V212.783H390.821ZM392.321 205.283H398.321V211.283H392.321V205.283Z" fill="white"/>
<path d="M394.477 196.435V192.82H395.977V196.435H399.839V197.935H395.977V201.82H394.477V197.935H390.839V196.435H394.477Z" fill="white"/>
<path fill-rule="evenodd" clip-rule="evenodd" d="M432.25 200.75V192.75H440.25V200.75H432.25ZM433.75 194.25H438.75V199.25H433.75V194.25Z" fill="white"/>
<path fill-rule="evenodd" clip-rule="evenodd" d="M446.755 193C444.526 193 442.718 194.808 442.718 197.037C442.718 199.267 444.526 201.074 446.755 201.074C448.985 201.074 450.792 199.267 450.792 197.037C450.792 194.808 448.985 193 446.755 193ZM444.218 197.037C444.218 195.636 445.354 194.5 446.755 194.5C448.156 194.5 449.292 195.636 449.292 197.037C449.292 198.438 448.156 199.574 446.755 199.574C445.354 199.574 444.218 198.438 444.218 197.037Z" fill="white"/>
<path fill-rule="evenodd" clip-rule="evenodd" d="M446.907 203.093L441.921 208.079L446.907 213.064L451.892 208.079L446.907 203.093ZM449.771 208.079L446.907 205.215L444.043 208.079L446.907 210.943L449.771 208.079Z" fill="white"/>
<path fill-rule="evenodd" clip-rule="evenodd" d="M436.903 204.378C436.77 204.144 436.522 204 436.252 204C435.983 204 435.735 204.144 435.601 204.378L431.599 211.378C431.466 211.61 431.467 211.895 431.601 212.126C431.735 212.358 431.983 212.5 432.25 212.5H440.25C440.517 212.5 440.764 212.358 440.899 212.127C441.033 211.895 441.034 211.61 440.901 211.378L436.903 204.378ZM438.958 211H433.543L436.252 206.262L438.958 211Z" fill="white"/>
<path d="M130.985 252H121.5V271.5H128.5V270H123V253.5H130.25V259.75H136.5V262H138V258.614L130.985 252Z" fill="white"/>
<path d="M124.75 262.5H129.75V261H124.75V262.5Z" fill="white"/>
<path d="M124.75 266.5H127.75V265H124.75V266.5Z" fill="white"/>
<path d="M137.75 269.689L139.811 271.75L138.75 272.811L136.689 270.75L137.75 269.689Z" fill="white"/>
<path fill-rule="evenodd" clip-rule="evenodd" d="M133.9 262.78C131.796 262.78 130.09 264.486 130.09 266.59C130.09 268.694 131.796 270.4 133.9 270.4C136.004 270.4 137.71 268.694 137.71 266.59C137.71 264.486 136.004 262.78 133.9 262.78ZM131.59 266.59C131.59 265.314 132.624 264.28 133.9 264.28C135.176 264.28 136.21 265.314 136.21 266.59C136.21 267.866 135.176 268.9 133.9 268.9C132.624 268.9 131.59 267.866 131.59 266.59Z" fill="white"/>
<path d="M182.82 265.43L174.87 260.07L179.98 261.48C180.17 261.53 180.36 261.39 180.36 261.19V258.31C180.36 258.06 180.63 257.92 180.83 258.06L188.68 263.42L183.67 262.04C183.48 261.99 183.29 262.13 183.29 262.33V265.18C183.29 265.43 183.02 265.56 182.82 265.43Z" fill="white"/>
<path fill-rule="evenodd" clip-rule="evenodd" d="M181.75 252C176.365 252 172 256.365 172 261.75C172 267.135 176.365 271.5 181.75 271.5C187.135 271.5 191.5 267.135 191.5 261.75C191.5 256.365 187.135 252 181.75 252ZM173.5 261.75C173.5 257.194 177.194 253.5 181.75 253.5C186.306 253.5 190 257.194 190 261.75C190 266.306 186.306 270 181.75 270C177.194 270 173.5 266.306 173.5 261.75Z" fill="white"/>
<path fill-rule="evenodd" clip-rule="evenodd" d="M81.4342 254.75L74.5921 251.75L67.75 254.75V271.75L74.5921 268.75L81.4342 271.75L87.75 268.75V251.75L81.4342 254.75ZM82 256.142V269.821L86.25 267.802V254.123L82 256.142ZM80.5 269.703V255.978L75.5 253.786V267.51L80.5 269.703ZM69.25 255.73L74 253.647V267.372L69.25 269.454V255.73Z" fill="white"/>
<path d="M334.57 259.98C335.338 259.98 335.96 259.358 335.96 258.59C335.96 257.822 335.338 257.2 334.57 257.2C333.802 257.2 333.18 257.822 333.18 258.59C333.18 259.358 333.802 259.98 334.57 259.98Z" fill="white"/>
<path d="M331.58 265.66V267.08C331.58 267.35 331.58 267.61 332.07 267.61H342.79C342.835 267.61 342.878 267.61 342.918 267.61C343.418 267.612 343.58 267.613 343.58 267.28V262.88C343.047 262.192 342.466 261.544 341.84 260.94C341.622 260.72 341.33 260.587 341.021 260.567C340.711 260.546 340.405 260.64 340.16 260.83C339.897 261.026 339.382 261.46 338.871 261.892C338.392 262.295 337.916 262.697 337.65 262.9C337.43 263.08 337.155 263.179 336.87 263.179C336.586 263.179 336.31 263.08 336.09 262.9L336.08 262.894C335.576 262.567 335.246 262.354 334.58 262.9C333.91 263.45 331.58 265.66 331.58 265.66Z" fill="white"/>
<path fill-rule="evenodd" clip-rule="evenodd" d="M327.75 254.5C327.75 252.981 328.981 251.75 330.5 251.75H344.67C346.189 251.75 347.42 252.981 347.42 254.5V268.67C347.42 270.189 346.189 271.42 344.67 271.42H330.5C328.981 271.42 327.75 270.189 327.75 268.67V254.5ZM330.5 253.25C329.81 253.25 329.25 253.81 329.25 254.5V268.67C329.25 269.36 329.81 269.92 330.5 269.92H344.67C345.36 269.92 345.92 269.36 345.92 268.67V254.5C345.92 253.81 345.36 253.25 344.67 253.25H330.5Z" fill="white"/>
<path d="M238.25 261.763L231.25 266.75V256.75L238.25 261.763Z" fill="white"/>
<path fill-rule="evenodd" clip-rule="evenodd" d="M243.75 261.75C243.75 267.273 239.273 271.75 233.75 271.75C228.227 271.75 223.75 267.273 223.75 261.75C223.75 256.227 228.227 251.75 233.75 251.75C239.273 251.75 243.75 256.227 243.75 261.75ZM242.25 261.75C242.25 266.444 238.444 270.25 233.75 270.25C229.056 270.25 225.25 266.444 225.25 261.75C225.25 257.056 229.056 253.25 233.75 253.25C238.444 253.25 242.25 257.056 242.25 261.75Z" fill="white"/>
<path fill-rule="evenodd" clip-rule="evenodd" d="M389.75 258.08C387.474 258.08 385.63 259.925 385.63 262.2C385.63 264.475 387.474 266.32 389.75 266.32C392.025 266.32 393.87 264.475 393.87 262.2C393.87 259.925 392.025 258.08 389.75 258.08ZM387.13 262.2C387.13 260.753 388.303 259.58 389.75 259.58C391.197 259.58 392.37 260.753 392.37 262.2C392.37 263.647 391.197 264.82 389.75 264.82C388.303 264.82 387.13 263.647 387.13 262.2Z" fill="white"/>
<path fill-rule="evenodd" clip-rule="evenodd" d="M379.864 256.763C379.864 256.211 380.312 255.763 380.864 255.763H384.125C384.496 255.763 384.837 255.557 385.01 255.229L386.068 253.222C386.241 252.892 386.583 252.687 386.956 252.688L392.613 252.706C392.991 252.707 393.335 252.92 393.504 253.257L394.485 255.212C394.655 255.55 395 255.763 395.379 255.763H398.69C399.242 255.763 399.69 256.211 399.69 256.763V268.687C399.69 269.24 399.242 269.687 398.69 269.687H380.864C380.312 269.687 379.864 269.24 379.864 268.687V256.763ZM395.379 257.263H398.19V268.187H381.364V257.263H384.125C385.053 257.263 385.904 256.749 386.337 255.928L387.254 254.189L392.301 254.205L393.144 255.884C393.569 256.729 394.433 257.263 395.379 257.263Z" fill="white"/>
<path d="M289.536 253.848L288.938 255.227C291.352 256.444 293.008 258.945 293.008 261.832C293.008 264.731 291.339 267.24 288.911 268.452L289.508 269.83C292.468 268.386 294.508 265.348 294.508 261.832C294.508 258.328 292.481 255.298 289.536 253.848Z" fill="white"/>
<path d="M288.029 257.324L287.432 258.701C288.6 259.259 289.408 260.451 289.408 261.832C289.408 263.224 288.587 264.425 287.403 264.976L288 266.353C289.716 265.571 290.908 263.841 290.908 261.832C290.908 259.835 289.729 258.113 288.029 257.324Z" fill="white"/>
<path fill-rule="evenodd" clip-rule="evenodd" d="M285.13 255.316V268.164L280.056 264.47H277.6V259.01H280.056L285.13 255.316ZM283.63 258.264V265.216L280.544 262.97H279.1V260.51H280.544L283.63 258.264Z" fill="white"/>
<path d="M445.229 257.667H438.147V256.167H445.229V257.667Z" fill="white"/>
<path d="M438.147 259.958H441.891V258.458H438.147V259.958Z" fill="white"/>
<path fill-rule="evenodd" clip-rule="evenodd" d="M435.192 268.382H449.577V251.572H436.948C435.887 251.572 434.962 251.736 434.362 252.406C433.783 253.052 433.685 253.98 433.685 254.949L433.685 267.829C433.684 268.561 433.683 269.523 434.084 270.289C434.311 270.722 434.659 271.089 435.162 271.338C435.651 271.58 436.246 271.69 436.948 271.69H448.941V270.19H436.948C436.393 270.19 436.046 270.101 435.828 269.993C435.623 269.892 435.501 269.76 435.413 269.593C435.259 269.299 435.208 268.906 435.192 268.382ZM435.479 253.408C435.315 253.59 435.185 253.976 435.185 254.949V266.882H448.077V253.072H436.948C435.952 253.072 435.62 253.249 435.479 253.408Z" fill="white"/>
<path d="M26.5 16V26.97H25V16H26.5Z" fill="white"/>
<path d="M21.6555 29.1694C22.6864 29.3936 23.8166 29.5345 25 29.5766V35.4999H26.5V29.5767C28.7725 29.4963 30.8446 29.0533 32.4182 28.354C33.2898 27.9667 34.0417 27.486 34.5858 26.9143C35.1336 26.3387 35.4999 25.6364 35.4999 24.8399C35.4999 23.5833 34.6077 22.5803 33.4654 21.8714C32.2995 21.1479 30.7064 20.6159 28.905 20.3303L27.6746 20.1089L27.4089 21.5852L28.647 21.808L28.6628 21.8107C30.3382 22.0755 31.727 22.558 32.6744 23.1459C33.647 23.7495 33.9999 24.3565 33.9999 24.8399C33.9999 25.1484 33.8624 25.4986 33.4992 25.8802C33.1324 26.2656 32.5662 26.6468 31.8091 26.9833C30.2968 27.6553 28.1551 28.0899 25.7499 28.0899C24.3346 28.0899 23.0009 27.9381 21.8357 27.6729L24.5428 25.9915L23.7514 24.7173L19.6043 27.293C19.4352 27.398 19.3148 27.566 19.2696 27.7599C19.2244 27.9537 19.2581 28.1576 19.3634 28.3266L21.9398 32.4632L23.2131 31.6702L21.6555 29.1694Z" fill="white"/>
<path d="M22.8664 21.8109L24.101 21.6093L23.8593 20.1289L22.6313 20.3294C20.818 20.6146 19.2154 21.1467 18.0434 21.8706C16.8966 22.5789 16 23.5818 16 24.84C16 25.8529 16.5927 26.7174 17.4145 27.368L18.0025 27.8335L18.9336 26.6574L18.3455 26.1919C17.7273 25.7025 17.5 25.2271 17.5 24.84C17.5 24.3581 17.8534 23.751 18.8316 23.1468C19.7841 22.5585 21.1807 22.0758 22.8664 21.8109Z" fill="white"/>
<path d="M22.003 83.0684L21.9915 83.1158L21.2627 82.9386C20.9457 82.8615 20.6253 82.8198 20.3 82.8198C18.2042 82.8198 16.5 84.524 16.5 86.6198C16.5 88.7156 18.2042 90.4198 20.3 90.4198H21.05V91.9198H20.3C17.3758 91.9198 15 89.544 15 86.6198C15 83.6956 17.3758 81.3198 20.3 81.3198C20.5411 81.3198 20.7779 81.3362 21.0102 81.367C22.084 78.2447 25.0491 76 28.5398 76C32.934 76 36.4998 79.5658 36.4998 83.96C36.4998 87.5157 34.1695 90.5295 30.9452 91.5453L30.2299 91.7707L29.7791 90.34L30.4944 90.1147C33.1101 89.2905 34.9998 86.8443 34.9998 83.96C34.9998 80.3942 32.1056 77.5 28.5398 77.5C25.5208 77.5 22.9845 79.5694 22.2769 82.3641L22.0928 83.0911L22.003 83.0684Z" fill="white"/>
<path fill-rule="evenodd" clip-rule="evenodd" d="M21.75 84.75V93.75H29.75V84.75H21.75ZM28.25 86.25H23.25V88.5H28.25V86.25ZM28.25 90H23.25V92.25H28.25V90Z" fill="white"/>
<path fill-rule="evenodd" clip-rule="evenodd" d="M18.3027 134.5C17.3362 134.5 16.5527 135.284 16.5527 136.25V138.25C16.5527 139.216 17.3362 140 18.3027 140H18.492V148.16C18.492 149.679 19.7232 150.91 21.242 150.91H27.5513V149.41H21.242C20.5516 149.41 19.992 148.851 19.992 148.16V140H20.3027C21.2692 140 22.0527 139.216 22.0527 138.25V136.25C22.0527 135.284 21.2692 134.5 20.3027 134.5H18.3027ZM18.0527 136.25C18.0527 136.112 18.1647 136 18.3027 136H20.3027C20.4408 136 20.5527 136.112 20.5527 136.25V138.25C20.5527 138.388 20.4408 138.5 20.3027 138.5H18.3027C18.1647 138.5 18.0527 138.388 18.0527 138.25V136.25Z" fill="white"/>
<path fill-rule="evenodd" clip-rule="evenodd" d="M31.1973 147.5C30.2308 147.5 29.4473 148.284 29.4473 149.25V151.25C29.4473 152.216 30.2308 153 31.1973 153H33.1973C34.1638 153 34.9473 152.216 34.9473 151.25V149.25C34.9473 148.284 34.1638 147.5 33.1973 147.5H33.0233V139.363C33.0233 137.844 31.792 136.613 30.2733 136.613H23.8574V138.113H30.2733C30.9636 138.113 31.5233 138.672 31.5233 139.363V147.5H31.1973ZM30.9473 149.25C30.9473 149.112 31.0592 149 31.1973 149H33.1973C33.3353 149 33.4473 149.112 33.4473 149.25V151.25C33.4473 151.388 33.3353 151.5 33.1973 151.5H31.1973C31.0592 151.5 30.9473 151.388 30.9473 151.25V149.25Z" fill="white"/>
<path d="M24.0355 314.81C23.7241 315.718 22.8633 316.37 21.85 316.37C20.8368 316.37 19.976 315.718 19.6645 314.81H15.75V313.31H19.6645C19.9759 312.402 20.8368 311.75 21.85 311.75C22.8633 311.75 23.7242 312.402 24.0356 313.31H35.33V314.81H24.0355Z" fill="white"/>
<path d="M24.0355 328.86C23.7241 329.767 22.8633 330.42 21.85 330.42C20.8368 330.42 19.976 329.767 19.6645 328.86H15.75V327.36H19.6645C19.9759 326.452 20.8368 325.8 21.85 325.8C22.8633 325.8 23.7242 326.452 24.0356 327.36H35.33V328.86H24.0355Z" fill="white"/>
<path d="M31.4155 320.36H35.33V321.86H31.4154C31.104 322.767 30.2431 323.42 29.2299 323.42C28.2167 323.42 27.3558 322.767 27.0444 321.86H15.75V320.36H27.0444C27.3558 319.452 28.2167 318.8 29.2299 318.8C30.2432 318.8 31.1041 319.452 31.4155 320.36Z" fill="white"/>
<path fill-rule="evenodd" clip-rule="evenodd" d="M34.456 369.719H15.7188V388.456H24.1589V387.583H24.167V386.833C24.167 381.664 28.3612 377.47 33.53 377.47H34.28V377.456H34.4564L34.456 369.719ZM32.9563 375.985L32.9561 371.219H17.2188V386.956H22.667V386.833C22.667 381.028 27.2255 376.284 32.9563 375.985Z" fill="white"/>
<path fill-rule="evenodd" clip-rule="evenodd" d="M35.7499 380.3C35.7499 379.886 35.4141 379.55 34.9999 379.55C34.9559 379.55 34.9127 379.554 34.8708 379.561C30.1517 379.625 26.3501 383.466 26.3501 388.2C26.3501 388.41 26.4363 388.6 26.5752 388.736C26.7113 388.874 26.9006 388.96 27.1099 388.96H31.9999C34.0741 388.96 35.7499 387.284 35.7499 385.21V380.3ZM31.9999 387.46H27.8879C28.2328 384.106 30.8957 381.443 34.2499 381.098V385.21C34.2499 386.456 33.2457 387.46 31.9999 387.46Z" fill="white"/>
<path fill-rule="evenodd" clip-rule="evenodd" d="M18.6199 195.45C18.6199 194.484 19.4034 193.7 20.3699 193.7H22.3699C23.3364 193.7 24.1199 194.484 24.1199 195.45V197.45C24.1199 198.417 23.3364 199.2 22.3699 199.2H22.1337V206.368C22.1337 207.058 22.6934 207.618 23.3837 207.618H28.5144V207.406C28.5144 206.44 29.2979 205.656 30.2644 205.656H32.2644C33.2309 205.656 34.0144 206.44 34.0144 207.406V209.406C34.0144 210.373 33.2309 211.156 32.2644 211.156H30.2644C29.2979 211.156 28.5144 210.373 28.5144 209.406V209.118H23.3837C21.8649 209.118 20.6337 207.886 20.6337 206.368V199.2H20.3699C19.4034 199.2 18.6199 198.417 18.6199 197.45V195.45ZM20.3699 195.2C20.2318 195.2 20.1199 195.312 20.1199 195.45V197.45C20.1199 197.588 20.2318 197.7 20.3699 197.7H22.3699C22.5079 197.7 22.6199 197.588 22.6199 197.45V195.45C22.6199 195.312 22.5079 195.2 22.3699 195.2H20.3699ZM30.2644 207.156C30.1263 207.156 30.0144 207.268 30.0144 207.406V209.406C30.0144 209.544 30.1263 209.656 30.2644 209.656H32.2644C32.4025 209.656 32.5144 209.544 32.5144 209.406V207.406C32.5144 207.268 32.4025 207.156 32.2644 207.156H30.2644Z" fill="white"/>
<path d="M18.1338 268.679L27.865 258.947L27.8633 258.946L28.9385 257.871L28.9401 257.872L30.5157 256.297L30.5142 256.295L31.5765 255.233L31.578 255.234L32.8145 253.998L33.8751 255.059L32.6028 256.331C33.7961 257.845 34.5082 259.755 34.5082 261.832C34.5082 265.455 32.342 268.572 29.2343 269.958L28.6373 268.581C31.2137 267.426 33.0082 264.839 33.0082 261.832C33.0082 260.17 32.4594 258.636 31.5332 257.401L29.9857 258.948C30.5665 259.761 30.9082 260.757 30.9082 261.832C30.9082 263.948 29.5854 265.754 27.7218 266.47L27.1241 265.092C28.4564 264.608 29.4082 263.331 29.4082 261.832C29.4082 261.172 29.2238 260.555 28.9037 260.03L24.645 264.289V268.229L21.8734 267.06L19.1944 269.739L18.1338 268.679Z" fill="white"/>
<path d="M29.2788 255.409C29.0799 255.296 28.8753 255.191 28.6654 255.096L29.2624 253.719C29.6474 253.893 30.0179 254.093 30.3715 254.317L29.2788 255.409Z" fill="white"/>
<path d="M24.3103 255.316V260.378L22.8586 261.83H22.8103V258.264L19.7243 260.51H18.2803V262.969L19.5167 262.968L20.9086 263.78L19.8117 264.876L19.1121 264.469L16.7803 264.47V259.01H19.2362L24.3103 255.316Z" fill="white"/>
</svg>
