<?xml version="1.0" encoding="UTF-8"?>
<svg viewBox="0 0 24 24" xmlns="http://www.w3.org/2000/svg">
<path d="m12.75 2v3h-1.5v-3h1.5z" fill="currentColor"/>
<path d="m12 17c2.7614 0 5-2.2386 5-5 0-2.7614-2.2386-5-5-5-2.7614 0-5 2.2386-5 5 0 2.7614 2.2386 5 5 5zm0-1.5c1.933 0 3.5-1.567 3.5-3.5s-1.567-3.5-3.5-3.5-3.5 1.567-3.5 3.5 1.567 3.5 3.5 3.5z" clip-rule="evenodd" fill="currentColor" fill-rule="evenodd"/>
<path d="m19 12.75h3v-1.5h-3v1.5z" fill="currentColor"/>
<path d="m16.49 17.551 1.0606-1.0607 2.1214 2.1213-1.0607 1.0607-2.1213-2.1213z" fill="currentColor"/>
<path d="m6.591 16.49 1.0607 1.0607-2.1213 2.1213-1.0607-1.0607 2.1213-2.1213z" fill="currentColor"/>
<path d="m12.75 19v3h-1.5v-3h1.5z" fill="currentColor"/>
<path d="m2 12.75h3v-1.5h-3v1.5z" fill="currentColor"/>
<path d="m4.4699 5.5302 1.0607-1.0607 2.1213 2.1213-1.0607 1.0607-2.1213-2.1213z" fill="currentColor"/>
<path d="m19.672 5.5302-2.1213 2.1213-1.0607-1.0607 2.1214-2.1213 1.0606 1.0607z" fill="currentColor"/>
</svg>
