<svg xmlns="http://www.w3.org/2000/svg" version="1.1" xmlns:xlink="http://www.w3.org/1999/xlink" xmlns:svgjs="http://svgjs.dev/svgjs" width="1000" height="1000"><g clip-path="url(#SvgjsClipPath1179)"><rect width="1000" height="1000" fill="#ffffff"></rect><g transform="matrix(3.3333333333333335,0,0,3.3333333333333335,100,100)"><svg xmlns="http://www.w3.org/2000/svg" version="1.1" xmlns:xlink="http://www.w3.org/1999/xlink" xmlns:svgjs="http://svgjs.dev/svgjs" width="240" height="240"><svg id="Layer_1" xmlns="http://www.w3.org/2000/svg" viewBox="0 0 240 240">
  <defs>
    <style>
      .cls-1 {
        fill: #0050ff;
      }
    </style>
  <clipPath id="SvgjsClipPath1179"><rect width="1000" height="1000" x="0" y="0" rx="500" ry="500"></rect></clipPath></defs>
  <path class="cls-1" d="M225.94,100.32v128.4H97.54v-14.37c4.69.93,9.37,1.25,14.06,1.25,56.23,0,102.16-45.61,102.16-102.16,0-4.37-.32-8.75-.93-13.12,0,0,13.12,0,13.12,0Z"></path>
  <path class="cls-1" d="M212.82,100.32h-115.28v114.03c-49.98-6.57-88.09-49.06-88.09-100.91C9.45,57.21,55.06,11.28,111.6,11.28c51.86,0,94.66,39.05,101.21,89.04h.01Z"></path>
</svg></svg></g></g></svg>